<svg xmlns="http://www.w3.org/2000/svg" width="567" height="115" fill="none"><g fill="#221742" fill-rule="evenodd" clip-path="url(#a)" clip-rule="evenodd"><path d="M100.95.5h13.2c-.05 10.3 0 20.6.15 30.9 4.934-6.191 11.384-9.191 19.35-9 15.124.273 23.374 7.973 24.75 23.1.15 13.2.2 26.4.15 39.6h-13.2c.05-12 0-24-.15-36-1.439-12.498-8.289-17.248-20.55-14.25-4.94 2.221-8.09 5.971-9.45 11.25a33.88 33.88 0 0 0-.9 5.7c-.15 11.1-.2 22.2-.15 33.3h-13.2V.5Z" opacity=".987"/><path d="M298.95.5h13.5v84.6h-13.5V.5Z" opacity=".971"/><path d="M191.25 22.4c7.762-.798 15.061.652 21.9 4.35 8.692 6.133 12.992 14.583 12.9 25.35a95.882 95.882 0 0 1-.3 4.8h-46.5c-.262 7.734 3.038 13.284 9.9 16.65 5.534 2.016 10.934 1.716 16.2-.9 3.118-2.02 5.218-4.82 6.3-8.4 4.399-.15 8.799-.2 13.2-.15-1.57 9.222-6.67 15.672-15.3 19.35-5.615 2.12-11.415 2.82-17.4 2.1-14.987-2.061-23.837-10.512-26.55-25.35-1.518-9.815.482-18.815 6-27 5.146-6.148 11.695-9.748 19.65-10.8Zm1.8 10.8c7.161-.991 12.811 1.409 16.95 7.2a21.506 21.506 0 0 1 2.25 6.9c-10.902.1-21.802 0-32.7-.3 1.489-7.59 5.989-12.19 13.5-13.8Zm65.1-10.8c9.325-1.02 17.725 1.23 25.2 6.75 6.445 6.245 9.645 13.895 9.6 22.95a174.02 174.02 0 0 1-.3 4.8h-46.5c-.259 8.04 3.24 13.69 10.5 16.95 6.998 2.244 13.247.994 18.75-3.75a18.41 18.41 0 0 0 3.15-5.85c4.399-.15 8.799-.2 13.2-.15-2.542 11.592-9.641 18.642-21.3 21.15-8.665 1.52-16.864.22-24.6-3.9-7.661-4.962-12.111-12.012-13.35-21.15-1.666-10.585.734-20.084 7.2-28.5 5.093-5.221 11.243-8.321 18.45-9.3Zm1.8 10.8c5.068-.618 9.668.533 13.8 3.45 3.023 2.794 4.823 6.244 5.4 10.35-10.9.4-21.8.4-32.7 0 1.49-7.589 5.99-12.19 13.5-13.8Z" opacity=".981"/><path d="M432.45 22.4c6.33-.797 12.129.553 17.4 4.05 2.322 1.821 4.074 4.071 5.25 6.75 3.969-6.162 9.618-9.712 16.95-10.65 15.618-1.724 24.669 5.126 27.15 20.55.435 13.993.585 27.993.45 42h-13.5c.141-13.61-.009-27.21-.45-40.8-2.406-8.955-8.106-12.155-17.1-9.6-4.236 1.637-7.035 4.637-8.4 9a31.389 31.389 0 0 0-.9 4.2c-.15 12.4-.201 24.8-.15 37.2h-13.5c.051-12.5 0-25-.15-37.5-1.014-11.014-6.912-15.314-17.7-12.9-4.41 1.914-7.212 5.214-8.4 9.9a28.28 28.28 0 0 0-.9 5.1c-.15 11.8-.201 23.6-.15 35.4h-13.2V23h11.7a76.6 76.6 0 0 0 1.35 7.8c3.642-4.695 8.391-7.495 14.25-8.4Z" opacity=".978"/><path d="M566.85 47.6v9c-15.579.299-31.179.399-46.8.3.732 12.284 7.233 18.234 19.5 17.85 6.723-.675 11.022-4.226 12.9-10.65h13.5c-2.847 12.497-10.647 19.647-23.4 21.45-9.039 1.154-17.337-.746-24.9-5.7-6-4.847-9.651-11.097-10.95-18.75-1.8-10.409.3-19.909 6.3-28.5 7.656-8.22 17.106-11.57 28.35-10.05 11.283 1.288 19.134 7.138 23.55 17.55a69.318 69.318 0 0 1 1.95 7.5Zm-33-14.4c7.032-.942 12.684 1.358 16.95 6.9a15.978 15.978 0 0 1 2.25 7.2h-32.4c1.305-7.605 5.706-12.305 13.2-14.1Z" opacity=".982"/><path d="M-.15 23c4.673-.098 9.323.003 13.95.3l13.8 46.2A1778.544 1778.544 0 0 0 41.55 23a130.94 130.94 0 0 1 12.45.3l13.2 46.2a3097.072 3097.072 0 0 0 14.4-46.2c4.527-.297 9.077-.397 13.65-.3a11169.715 11169.715 0 0 1-20.4 61.8c-4.8.4-9.6.4-14.4 0L47.7 44a1406.973 1406.973 0 0 0-13.35 41.1h-14.7A2705.595 2705.595 0 0 0-.15 24.2V23Z" opacity=".976"/><path d="M363.15 114.2h-9.3c-14.73-2.78-24.03-11.43-27.9-25.95 21.6-.15 43.2-.2 64.8-.15-3.768 14.467-12.966 23.167-27.6 26.1Z" opacity=".986"/></g><defs><clipPath id="a"><path fill="#fff" d="M0 .65h567v113.7H0z"/></clipPath></defs></svg>