<svg xmlns="http://www.w3.org/2000/svg" width="931" height="187" fill="none"><g fill="#221742" clip-path="url(#a)"><path d="M64.19 145.24c-2.15-1.56-4.71-2.33-7.69-2.33-2.98 0-5.58.78-7.75 2.33-2.17 1.56-3.85 3.93-5.04 7.12-1.17 3.17-1.76 7.19-1.76 12.07s.59 9.27 1.76 12.53c1.19 3.25 2.87 5.65 5.04 7.2 2.17 1.56 4.75 2.33 7.75 2.33s5.54-.78 7.69-2.33c2.17-1.56 3.83-3.96 4.98-7.2 1.17-3.27 1.76-7.44 1.76-12.53 0-5.09-.59-8.9-1.76-12.07-1.15-3.19-2.81-5.56-4.98-7.12Zm.06 29.21c-.73 2.48-1.76 4.27-3.08 5.39-1.32 1.09-2.88 1.64-4.67 1.64s-3.35-.55-4.7-1.64c-1.34-1.11-2.4-2.91-3.17-5.39-.75-2.5-1.12-5.82-1.12-9.97s.37-7.17 1.12-9.59c.77-2.44 1.82-4.21 3.17-5.3 1.36-1.11 2.93-1.67 4.7-1.67s3.34.56 4.67 1.67c1.33 1.09 2.35 2.86 3.08 5.3.75 2.42 1.12 5.62 1.12 9.59 0 3.97-.37 7.47-1.12 9.97Zm32.421-30.54c-1.17-.67-2.51-1.01-4-1.01-1.49 0-2.84.34-4.03 1.01a7.426 7.426 0 0 0-2.82 2.77c-.69 1.15-1.04 2.49-1.04 4 0 1.51.35 2.78 1.04 3.98.71 1.17 1.66 2.1 2.85 2.79 1.19.69 2.52 1.04 3.98 1.04s2.87-.34 4.06-1.01a7.211 7.211 0 0 0 2.79-2.77c.69-1.17 1.04-2.52 1.04-4.03 0-1.51-.35-2.83-1.04-4a7.572 7.572 0 0 0-2.82-2.77h-.01Zm-1.18 9.77c-.77.79-1.72 1.18-2.85 1.18-1.13 0-2.04-.4-2.82-1.21-.77-.81-1.15-1.8-1.15-2.97 0-1.23.37-2.23 1.12-3 .77-.79 1.72-1.18 2.85-1.18 1.13 0 2.05.39 2.82 1.18.79.79 1.18 1.79 1.18 3s-.38 2.21-1.15 3ZM55.379 72.29l-14 41.89h5.73l3.33-10.4h17.19l3.31 10.4h5.73l-13.97-41.89h-7.32Zm-3.44 26.79 4.59-14.35 2.39-8.44h.14l2.48 8.44 4.59 14.35h-14.19Zm56.48-.72c-.42-.67-.82-1.19-1.18-1.56-.37-.36-.77-.61-1.21-.75-.14-.04-.31-.06-.48-.09 1.77-.5 3.24-1.26 4.39-2.3 1.42-1.29 2.44-2.8 3.05-4.55.63-1.77.95-3.58.95-5.45 0-2.54-.54-4.64-1.61-6.31-1.08-1.69-2.58-2.96-4.52-3.8-1.94-.85-4.23-1.27-6.86-1.27h-11.73v41.89h5.36V97.09h7l10.28 17.08h6.57l-10.03-15.82.02.01Zm-7.43-6.17h-6.4V77.38h6.51c1.5 0 2.78.24 3.86.72 1.09.46 1.94 1.19 2.53 2.19.6 1 .89 2.3.89 3.92 0 1.48-.24 2.82-.72 4.03a6.007 6.007 0 0 1-2.36 2.88c-1.08.71-2.52 1.07-4.32 1.07h.01ZM67.68 2.51C64.91.84 61.8 0 58.35 0s-6.63.84-9.39 2.51c-2.77 1.65-4.95 4.08-6.57 7.29C40.8 13.01 40 16.92 40 21.53s.82 8.79 2.45 12.07c1.65 3.28 3.86 5.77 6.63 7.46 2.79 1.69 5.87 2.54 9.25 2.54s6.6-.84 9.36-2.54c2.79-1.69 4.98-4.18 6.6-7.46 1.63-3.28 2.45-7.31 2.45-12.07 0-4.76-.82-8.52-2.45-11.73-1.61-3.21-3.81-5.64-6.6-7.29h-.01Zm1.75 28.69c-1.17 2.52-2.74 4.38-4.7 5.59-1.94 1.21-4.08 1.81-6.42 1.81-1.65 0-3.25-.34-4.78-1.01-1.52-.67-2.88-1.7-4.09-3.08-1.19-1.4-2.14-3.17-2.85-5.3-.69-2.15-1.04-4.7-1.04-7.63 0-3.71.6-6.79 1.79-9.25 1.21-2.46 2.79-4.29 4.73-5.5 1.96-1.23 4.05-1.84 6.28-1.84 2.23 0 4.46.61 6.4 1.84 1.96 1.21 3.52 3.04 4.7 5.5 1.17 2.46 1.76 5.54 1.76 9.25 0 3.9-.59 7.11-1.76 9.62h-.02ZM309.462 6.77c-.25.44-.37 1-.37 1.67v34.28h5.44V5.88h11.29V.84h-28.06v5.04h12.76c-.44.15-.8.45-1.07.89h.01Zm2.959 105.94c0 1.84-.09 3.58-.26 5.21s-.4 3.14-.69 4.52c-.27 1.38-.58 2.62-.92 3.72h4.26c.46-.98.95-2.22 1.47-3.72.54-1.48 1-3.16 1.38-5.04.38-1.86.59-3.87.6-6.02l.06-4.03h-5.91v5.36h.01Zm-32.772-75.09c-1.27.54-2.95.81-5.04.81-1.92 0-3.61-.29-5.07-.86-1.44-.6-2.57-1.49-3.4-2.68-.83-1.19-1.27-2.71-1.33-4.55h-5.27c.06 2.88.7 5.28 1.93 7.2s2.94 3.36 5.13 4.32c2.21.96 4.78 1.44 7.72 1.44 4.74 0 8.34-.98 10.8-2.94 2.46-1.98 3.67-4.79 3.63-8.44 0-1.94-.36-3.55-1.09-4.84a9.651 9.651 0 0 0-2.97-3.26c-1.25-.88-2.67-1.66-4.26-2.33-1.59-.67-3.26-1.34-4.98-2.02-2.38-.92-4.21-1.79-5.47-2.59-1.27-.81-2.15-1.66-2.65-2.56-.48-.9-.72-1.96-.72-3.17 0-2.04.66-3.56 1.99-4.58 1.34-1.02 3.22-1.53 5.62-1.53 1.77 0 3.18.28 4.23.84 1.08.54 1.89 1.31 2.45 2.3.56.98.92 2.13 1.09 3.46h5.3c-.31-2.52-.95-4.62-1.93-6.31a9.34 9.34 0 0 0-4.15-3.86c-1.77-.86-4-1.3-6.71-1.3-4.05 0-7.27.96-9.65 2.88-2.36 1.92-3.54 4.71-3.54 8.35 0 2.19.51 4.09 1.53 5.7 1.02 1.59 2.41 2.96 4.18 4.09 1.79 1.11 3.83 2.07 6.14 2.88 2.17.75 4.01 1.49 5.53 2.22 1.54.71 2.7 1.54 3.49 2.48.81.92 1.21 2.09 1.21 3.51 0 1.15-.3 2.2-.89 3.14-.6.92-1.54 1.65-2.82 2.19l-.03.01ZM25.12 143.88l.12-.14h-7.52L0 177.13h20.02l.03 8.5h5.24l-.03-8.5h5.39v-4.81h-5.39l-.14-28.43v-.01ZM10 172.32c-.42 0-.86.08-1.33.23-.44.15-.85.36-1.21.63l1.84-2.91 7.75-14.66 3.26-6.94-.29 7.37.03 13.25c0 .71.12 1.39.37 2.05.25.65.79.98 1.61.98H9.99 10Zm17.431-77.04c-1.25-.88-2.67-1.66-4.26-2.33-1.59-.67-3.26-1.34-4.98-2.02-2.38-.92-4.21-1.79-5.47-2.59-1.27-.81-2.15-1.66-2.65-2.56-.48-.9-.72-1.96-.72-3.17 0-2.04.66-3.56 1.99-4.58 1.34-1.02 3.22-1.53 5.62-1.53 1.77 0 3.18.28 4.23.84 1.08.54 1.89 1.31 2.45 2.3.56.98.92 2.13 1.09 3.46h5.3c-.31-2.52-.95-4.62-1.93-6.31a9.34 9.34 0 0 0-4.15-3.86c-1.77-.86-4-1.3-6.71-1.3-4.05 0-7.27.96-9.65 2.88-2.36 1.92-3.54 4.71-3.54 8.35 0 2.19.51 4.09 1.53 5.7 1.02 1.59 2.41 2.96 4.18 4.09 1.79 1.11 3.83 2.07 6.14 2.88 2.17.75 4.01 1.49 5.53 2.22 1.54.71 2.7 1.54 3.49 2.48.81.92 1.21 2.09 1.21 3.51 0 1.15-.3 2.2-.89 3.14-.6.92-1.54 1.65-2.82 2.19-1.27.54-2.95.81-5.04.81-1.92 0-3.61-.29-5.07-.86-1.44-.6-2.57-1.49-3.4-2.68-.83-1.19-1.27-2.71-1.33-4.55h-5.3c.06 2.88.7 5.28 1.93 7.2s2.94 3.36 5.13 4.32c2.21.96 4.78 1.44 7.72 1.44 4.74 0 8.34-.98 10.8-2.94 2.46-1.98 3.67-4.79 3.63-8.44 0-1.94-.36-3.55-1.09-4.84a9.651 9.651 0 0 0-2.97-3.26v.01ZM10.489 24.03h16.85V19.1h-16.85V5.88h18.64V.84h-24v41.88h5.36V24.03ZM96.9 25.64h7l10.28 17.08h6.57L110.72 26.9c-.42-.67-.82-1.19-1.18-1.56-.36-.37-.77-.61-1.21-.75-.14-.04-.31-.06-.48-.09 1.77-.5 3.24-1.26 4.39-2.3 1.42-1.29 2.44-2.8 3.05-4.55.63-1.77.95-3.58.95-5.44 0-2.54-.54-4.64-1.61-6.31-1.08-1.69-2.58-2.96-4.52-3.8-1.94-.85-4.23-1.27-6.86-1.27H91.52v41.89h5.36V25.64h.02Zm0-19.71h6.51c1.5 0 2.78.24 3.86.72 1.09.46 1.94 1.19 2.53 2.19.6 1 .89 2.3.89 3.92 0 1.48-.24 2.82-.72 4.03a6.007 6.007 0 0 1-2.36 2.88c-1.08.71-2.52 1.07-4.32 1.07h-6.4V5.93h.01Zm61.969 31.69h-20.4v-14.2h18.5v-4.98h-18.5V5.88h20V.84h-25.36v41.88h25.76v-5.1Zm.83 67.05c1.73-3.15 2.59-7.05 2.59-11.7 0-4.65-.84-8.7-2.51-11.75-1.67-3.05-3.98-5.3-6.91-6.74-2.92-1.46-6.28-2.19-10.08-2.19h-11.98v41.89h12.01c3.67 0 6.97-.8 9.91-2.39 2.94-1.59 5.26-3.97 6.97-7.12Zm-9.73 2.48c-2.09 1.19-4.53 1.79-7.32 1.79h-6.4v-31.6h6.37c2.78 0 5.23.55 7.35 1.64 2.11 1.09 3.75 2.79 4.93 5.1 1.19 2.3 1.79 5.29 1.79 8.96 0 3.48-.6 6.4-1.79 8.76-1.17 2.36-2.81 4.15-4.93 5.36v-.01Zm274.73 36.76c-1.17-.67-2.51-1.01-4-1.01-1.49 0-2.84.34-4.03 1.01a7.426 7.426 0 0 0-2.82 2.77c-.69 1.15-1.04 2.49-1.04 4 0 1.51.35 2.78 1.04 3.98.71 1.17 1.66 2.1 2.85 2.79 1.19.69 2.52 1.04 3.98 1.04s2.87-.34 4.06-1.01a7.211 7.211 0 0 0 2.79-2.77c.69-1.17 1.04-2.52 1.04-4.03 0-1.51-.35-2.83-1.04-4a7.572 7.572 0 0 0-2.82-2.77h-.01Zm-1.19 9.77c-.77.79-1.72 1.18-2.85 1.18-1.13 0-2.04-.4-2.82-1.21-.77-.81-1.15-1.8-1.15-2.97 0-1.23.37-2.23 1.12-3 .77-.79 1.72-1.18 2.85-1.18 1.13 0 2.05.39 2.82 1.18.79.79 1.18 1.79 1.18 3s-.38 2.21-1.15 3Zm-34.549 10.2c1.92-.27 3.49-.89 4.7-1.87 1.23-.98 2.13-2.14 2.71-3.49.58-1.36.86-2.73.86-4.09 0-3.55-1.08-6.37-3.23-8.44-2.15-2.07-5.32-3.11-9.51-3.11-4.19 0-7.34 1.03-9.51 3.08-2.15 2.05-3.23 4.88-3.23 8.47 0 1.36.29 2.72.86 4.06.58 1.34 1.48 2.51 2.71 3.49 1.23.98 2.81 1.59 4.75 1.84-3.26.33-5.73 1.38-7.4 3.17s-2.51 4.27-2.51 7.46c0 2.61.62 4.82 1.87 6.63 1.27 1.79 2.99 3.14 5.16 4.06 2.17.9 4.6 1.35 7.29 1.35 2.69 0 5.11-.45 7.26-1.35 2.17-.92 3.89-2.28 5.16-4.06 1.27-1.81 1.9-4.01 1.9-6.63 0-3.15-.85-5.62-2.54-7.4-1.67-1.81-4.11-2.86-7.32-3.17h.02Zm-11.09-5.97a7.984 7.984 0 0 1-.78-3.51c0-2.15.65-3.8 1.96-4.95 1.31-1.17 3.12-1.76 5.45-1.76s4.14.59 5.44 1.76c1.31 1.15 1.96 2.8 1.96 4.95 0 1.27-.3 2.44-.89 3.51-.6 1.08-1.45 1.95-2.56 2.62-1.09.65-2.41.98-3.95.98-1.69 0-3.08-.33-4.18-.98-1.09-.67-1.91-1.55-2.45-2.62Zm13.02 21.78c-1.69 1.25-3.82 1.87-6.4 1.87-2.58 0-4.75-.62-6.42-1.87s-2.51-3.04-2.51-5.39c0-2.73.84-4.73 2.51-6.02 1.67-1.29 3.81-1.93 6.42-1.93s4.78.65 6.45 1.96 2.51 3.3 2.51 5.99c0 2.34-.85 4.14-2.56 5.39Zm59.211-33.88c-.77.48-1.63.85-2.59 1.09-.75.21-1.57.35-2.48.4-.88.06-1.82.09-2.82.09v5.39c1.59 0 2.8-.05 3.63-.14.83-.12 1.61-.36 2.36-.72.85-.4 1.48-.94 1.9-1.61.33-.52.61-1.11.86-1.74l-.03 37.06h5.53v-41.89h-4.21c-.65.88-1.37 1.57-2.16 2.07h.01Zm-318.179 18.01c1.98-.31 3.56-.96 4.75-1.96 1.19-1.02 2.05-2.21 2.59-3.57.56-1.38.84-2.78.84-4.18 0-3.34-1.07-6.05-3.2-8.12-2.13-2.07-5.22-3.11-9.28-3.11-2.67 0-4.96.46-6.89 1.38-1.9.92-3.35 2.33-4.35 4.24-1 1.9-1.48 4.32-1.44 7.26h5.42c-.15-2.78.45-4.82 1.81-6.11 1.38-1.31 3.19-1.96 5.42-1.96s3.96.58 5.24 1.73c1.31 1.15 1.96 2.79 1.96 4.9 0 1.29-.3 2.49-.89 3.6a6.789 6.789 0 0 1-2.51 2.65c-1.09.65-2.41.98-3.95.98h-4.41v4.78h4.35c2.65 0 4.8.62 6.45 1.87 1.65 1.25 2.48 3.3 2.48 6.17 0 1.54-.38 2.84-1.15 3.92-.75 1.06-1.78 1.86-3.08 2.42-1.31.56-2.8.84-4.49.86-2.98.02-5.2-.73-6.65-2.25-1.44-1.52-2.13-3.65-2.07-6.4h-5.42c-.12 2.36.18 4.4.89 6.11s1.72 3.12 3.02 4.23c1.32 1.09 2.86 1.9 4.61 2.42 1.77.54 3.64.81 5.62.81 2.69 0 5.09-.46 7.2-1.38 2.13-.94 3.81-2.31 5.04-4.12 1.23-1.82 1.84-4.04 1.84-6.65 0-3.15-.83-5.62-2.48-7.4-1.65-1.81-4.08-2.84-7.29-3.11l.02-.01Zm500.129 2.51h18.5v-4.99h-18.5v-12.56h19.99v-5.04h-25.35v41.89h25.75v-5.1h-20.39v-14.2Zm-140.21-21.64c-2.09-1.21-4.44-1.81-7.03-1.81-1.81 0-3.54.31-5.21.92-1.65.6-3.13 1.5-4.44 2.71-1.29 1.19-2.31 2.67-3.08 4.44-.75 1.77-1.12 3.81-1.12 6.14 0 2.75.54 5.19 1.61 7.32 1.08 2.11 2.55 3.76 4.44 4.96 1.9 1.19 4.06 1.79 6.48 1.79 1.42 0 2.69-.2 3.8-.61a8.715 8.715 0 0 0 2.91-1.81c.85-.79 1.56-1.74 2.13-2.85.29-.55.54-1.14.76-1.76-.19 1.42-.53 2.79-1.02 4.12a26.25 26.25 0 0 1-2.77 5.53 39.07 39.07 0 0 1-3.63 4.81 57.015 57.015 0 0 1-3.92 3.98c-1.29 1.19-2.44 2.22-3.46 3.08h8.07c1.08-.98 2.3-2.27 3.69-3.86 1.4-1.59 2.76-3.47 4.06-5.62 1.33-2.17 2.42-4.6 3.28-7.29.86-2.71 1.3-5.66 1.3-8.84 0-3.96-.61-7.19-1.84-9.71-1.23-2.54-2.9-4.41-5.01-5.62v-.02Zm1.27 15.87c-.02.52-.08.85-.17 1.01-.5.83-1.13 1.59-1.9 2.3-.75.71-1.66 1.29-2.74 1.73-1.08.42-2.33.63-3.77.63-2.65 0-4.67-.85-6.05-2.56-1.36-1.73-2.05-3.96-2.05-6.68 0-1.94.37-3.59 1.09-4.95.73-1.38 1.72-2.43 2.97-3.14 1.27-.73 2.67-1.09 4.21-1.09 1.86 0 3.42.48 4.67 1.44 1.25.94 2.19 2.25 2.82 3.92.63 1.65.95 3.56.95 5.73 0 .58 0 1.13-.03 1.67v-.01Zm92.568 3.26c1.98-.31 3.56-.96 4.75-1.96 1.19-1.02 2.06-2.21 2.59-3.57.56-1.38.84-2.78.84-4.18 0-3.34-1.07-6.05-3.2-8.12-2.13-2.07-5.22-3.11-9.27-3.11-2.67 0-4.97.46-6.89 1.38-1.9.92-3.35 2.33-4.35 4.24-1 1.9-1.47 4.32-1.44 7.26h5.42c-.15-2.78.45-4.82 1.82-6.11 1.38-1.31 3.19-1.96 5.42-1.96s3.96.58 5.24 1.73c1.31 1.15 1.96 2.79 1.96 4.9 0 1.29-.3 2.49-.89 3.6a6.789 6.789 0 0 1-2.51 2.65c-1.09.65-2.41.98-3.95.98h-4.41v4.78h4.35c2.65 0 4.8.62 6.45 1.87 1.65 1.25 2.48 3.3 2.48 6.17 0 1.54-.38 2.84-1.15 3.92-.75 1.06-1.78 1.86-3.08 2.42-1.31.56-2.81.84-4.5.86-2.98.02-5.2-.73-6.66-2.25-1.44-1.52-2.13-3.65-2.07-6.4h-5.42c-.12 2.36.18 4.4.89 6.11s1.71 3.12 3.02 4.23c1.33 1.09 2.86 1.9 4.61 2.42 1.77.54 3.64.81 5.62.81 2.69 0 5.09-.46 7.2-1.38 2.13-.94 3.81-2.31 5.04-4.12 1.23-1.82 1.84-4.04 1.84-6.65 0-3.15-.82-5.62-2.48-7.4-1.65-1.81-4.08-2.84-7.29-3.11l.02-.01Zm-40.218 0c1.98-.31 3.56-.96 4.75-1.96 1.19-1.02 2.06-2.21 2.59-3.57.56-1.38.84-2.78.84-4.18 0-3.34-1.07-6.05-3.2-8.12-2.13-2.07-5.23-3.11-9.28-3.11-2.67 0-4.96.46-6.88 1.38-1.9.92-3.35 2.33-4.35 4.24-1 1.9-1.48 4.32-1.44 7.26h5.42c-.15-2.78.45-4.82 1.82-6.11 1.38-1.31 3.18-1.96 5.42-1.96 2.24 0 3.96.58 5.24 1.73 1.31 1.15 1.96 2.79 1.96 4.9 0 1.29-.3 2.49-.89 3.6a6.789 6.789 0 0 1-2.51 2.65c-1.1.65-2.41.98-3.95.98h-4.41v4.78h4.35c2.65 0 4.8.62 6.46 1.87 1.65 1.25 2.48 3.3 2.48 6.17 0 1.54-.38 2.84-1.15 3.92-.75 1.06-1.78 1.86-3.08 2.42-1.31.56-2.8.84-4.49.86-2.98.02-5.2-.73-6.66-2.25-1.44-1.52-2.13-3.65-2.07-6.4h-5.42c-.11 2.36.18 4.4.89 6.11s1.72 3.12 3.03 4.23c1.33 1.09 2.86 1.9 4.61 2.42 1.77.54 3.64.81 5.62.81 2.69 0 5.09-.46 7.2-1.38 2.13-.94 3.81-2.31 5.04-4.12 1.23-1.82 1.84-4.04 1.84-6.65 0-3.15-.83-5.62-2.48-7.4-1.65-1.81-4.08-2.84-7.29-3.11l-.01-.01ZM208.81 88.19l14.29 25.99h6.51V72.29h-5.39v25.98l.89 10.26h-.23l-4.69-10.08-14.41-26.16h-6.51v41.89h5.39V88.62l-.72-10.43h.26l4.61 10Zm124.142 81.53.9 10.26h-.23l-4.7-10.08-14.4-26.16h-6.51v41.89h5.38v-25.56l-.72-10.42h.26l4.61 9.99 14.29 25.99h6.51v-41.89h-5.39v25.98Zm-110.871 11.07c-.84.12-1.56.48-2.13 1.09.56-.69 1.34-1.64 2.33-2.85a3967.52 3967.52 0 0 0 6.97-8.5c1.44-1.79 2.77-3.49 3.98-5.1a23.72 23.72 0 0 0 2.91-5.1c.73-1.79 1.09-3.8 1.09-6.05.02-2.36-.47-4.4-1.47-6.11-.98-1.71-2.39-3.02-4.23-3.92-1.82-.92-4.01-1.38-6.57-1.38-2.84 0-5.32.5-7.43 1.5-2.11 1-3.7 2.57-4.75 4.72-1.06 2.13-1.43 4.93-1.12 8.38h5.16c-.17-2.5.07-4.46.72-5.88.67-1.42 1.63-2.43 2.88-3.02 1.27-.6 2.7-.89 4.29-.89 2.29-.02 4.05.59 5.3 1.81 1.25 1.21 1.87 2.93 1.87 5.16 0 1.77-.39 3.45-1.18 5.04-.77 1.58-1.79 3.15-3.05 4.73a550.37 550.37 0 0 1-4.15 5.07c-1 1.23-2.05 2.53-3.17 3.89-1.11 1.34-2.25 2.72-3.4 4.12-1.13 1.4-2.27 2.79-3.4 4.18-1.11 1.36-2.19 2.68-3.23 3.95h27.08v-5.04h-11.87c-1.44 0-2.58.07-3.43.2Zm-39.503-108.5h-5.5v41.89h5.5V72.29Zm-3.788 89.43a11.06 11.06 0 0 0-4.15-2.22c-1.54-.44-3.1-.66-4.7-.66s-2.88.17-4.09.52-2.2.82-2.97 1.41c-.54.38-1.01.83-1.41 1.32-.4.5-.77 1.14-1.09 1.93l2.65-15.18h17.72v-5.1h-22.38l-2.68 21.55 4.26 1.61c1.08-1.02 2.37-1.81 3.89-2.39 1.52-.6 3.22-.89 5.1-.89 2.75 0 4.83.72 6.25 2.16 1.42 1.42 2.13 3.69 2.13 6.8 0 2.15-.38 3.88-1.15 5.19-.75 1.31-1.77 2.26-3.05 2.85-1.27.58-2.67.86-4.21.86-2.13 0-3.84-.39-5.13-1.18-1.27-.81-2.17-1.82-2.71-3.05a8.62 8.62 0 0 1-.75-3.77h-5.36c-.19 2.27.21 4.39 1.21 6.37 1.02 1.98 2.58 3.58 4.7 4.81 2.13 1.23 4.75 1.84 7.86 1.84 2.9 0 5.41-.6 7.52-1.81 2.11-1.23 3.75-2.9 4.9-5.01 1.15-2.11 1.73-4.48 1.73-7.12 0-2.64-.37-4.89-1.12-6.65-.73-1.77-1.72-3.16-2.97-4.18v-.01Zm23.491-124.73c1.31-2.04 2.05-4.45 2.22-7.23h-5.45a9.39 9.39 0 0 1-1.3 4.23c-.77 1.31-1.88 2.36-3.34 3.17-1.44.79-3.27 1.18-5.47 1.18-2.42 0-4.63-.56-6.63-1.67-2-1.13-3.59-2.92-4.78-5.36-1.19-2.46-1.79-5.68-1.79-9.65 0-3.5.57-6.48 1.7-8.96 1.13-2.48 2.68-4.37 4.64-5.68 1.98-1.33 4.21-1.99 6.68-1.99 1.8 0 3.46.35 4.96 1.04 1.5.67 2.72 1.69 3.66 3.05.96 1.34 1.5 3.04 1.61 5.1h5.5c-.1-3.09-.86-5.68-2.3-7.78a13.39 13.39 0 0 0-5.62-4.78c-2.3-1.08-4.83-1.61-7.58-1.61-3.73 0-7 .89-9.82 2.68-2.82 1.77-5.02 4.27-6.6 7.52-1.57 3.23-2.36 7.04-2.36 11.44 0 4.65.81 8.58 2.42 11.81 1.61 3.21 3.82 5.65 6.63 7.32 2.82 1.67 6.02 2.51 9.59 2.51 3.13 0 5.83-.55 8.1-1.64 2.27-1.09 4.04-2.66 5.33-4.7Zm76.098 35.3-14 41.89h5.73l3.33-10.4h17.19l3.31 10.4h5.73l-13.97-41.89h-7.32Zm-3.44 26.79 4.59-14.35 2.39-8.44h.14l2.48 8.44 4.59 14.35h-14.19ZM235.742.84h-7.32l-14 41.89h5.73l3.33-10.4h17.19l3.31 10.4h5.73L235.742.84Zm-10.75 26.79 4.59-14.35 2.39-8.44h.14l2.48 8.44 4.59 14.35h-14.19Zm42 136.19c1.98-.31 3.56-.96 4.75-1.96 1.19-1.02 2.05-2.21 2.59-3.57.56-1.38.84-2.78.84-4.18 0-3.34-1.07-6.05-3.2-8.12-2.13-2.07-5.22-3.11-9.28-3.11-2.67 0-4.96.46-6.89 1.38-1.9.92-3.35 2.33-4.35 4.24-1 1.9-1.48 4.32-1.44 7.26h5.42c-.15-2.78.45-4.82 1.81-6.11 1.38-1.31 3.19-1.96 5.42-1.96s3.96.58 5.24 1.73c1.31 1.15 1.96 2.79 1.96 4.9 0 1.29-.3 2.49-.89 3.6a6.789 6.789 0 0 1-2.51 2.65c-1.09.65-2.41.98-3.95.98h-4.41v4.78h4.35c2.65 0 4.8.62 6.45 1.87 1.65 1.25 2.48 3.3 2.48 6.17 0 1.54-.38 2.84-1.15 3.92-.75 1.06-1.78 1.86-3.08 2.42-1.31.56-2.8.84-4.49.86-2.98.02-5.2-.73-6.65-2.25-1.44-1.52-2.13-3.65-2.07-6.4h-5.42c-.12 2.36.18 4.4.89 6.11s1.72 3.12 3.02 4.23c1.32 1.09 2.86 1.9 4.61 2.42 1.77.54 3.64.81 5.62.81 2.69 0 5.09-.46 7.2-1.38 2.13-.94 3.81-2.31 5.04-4.12 1.23-1.82 1.84-4.04 1.84-6.65 0-3.15-.83-5.62-2.48-7.4-1.65-1.81-4.08-2.84-7.29-3.11l.02-.01ZM251.77 72.29h-5.5v41.89h5.5V72.29Zm632.49-58.87c-9.13 0-16.54 35.48-16.56 79.29C867.67 41.59 856.56.17 842.86.17c-9.1 0-17.05 18.27-21.38 45.51-6.03-19.57-15.72-32.27-26.64-32.27-11.55 0-21.72 14.2-27.65 35.72-1.71-1.68-3.55-2.6-5.47-2.6-9.15 0-16.56 20.76-16.56 46.36 0 25.6 7.41 46.36 16.56 46.36 1.92 0 3.76-.92 5.47-2.6 5.93 21.52 16.09 35.72 27.65 35.72 10.92 0 20.61-12.69 26.64-32.27 4.33 27.24 12.28 45.51 21.38 45.51 13.7 0 24.81-41.41 24.84-92.54.02 43.81 7.43 79.29 16.56 79.29 9.13 0 16.56-35.58 16.56-79.48 0-43.9-7.41-79.48-16.56-79.48v.02ZM756.551 167.33h1.81v4.99h1.23v-4.99h1.81v-1.04h-4.85v1.04Zm8.888 3.01h-.07l-1.63-4.05h-1.54v6.03h1.21v-3.94h.05l1.53 3.9h.82l1.53-3.89h.05v3.93h1.21v-6.03h-1.54l-1.62 4.05ZM922.35 53.16c-4.57 0-8.28 17.79-8.28 39.74 0 21.95 3.71 39.74 8.28 39.74 4.57 0 8.28-17.79 8.28-39.74 0-21.95-3.71-39.74-8.28-39.74ZM356.479 72.22h-5.51v41.95h5.51V72.22Zm24.95 5.95c-.26.44-.39 1-.39 1.67v34.34h5.45v-36.9h11.31v-5.05h-28.1v5.05h12.78c-.44.15-.79.45-1.05.89Zm36.861-5.95-14.02 41.95h5.74l3.33-10.42h17.22l3.31 10.42h5.74l-13.99-41.95h-7.33Zm1.15 12.47 2.39-8.45h.14l2.48 8.45 4.6 14.37h-14.22l4.6-14.37h.01Zm56.698 24.32h-18.38V72.22h-5.43v41.95h23.81v-5.16Zm31.074-36.79-5.65 11.49-5.17 10.3h-.46l-5.13-10.33-5.6-11.46h-6.35l14.6 27.52v14.43h5.45V99.79l14.63-27.57h-6.32Z"/></g><defs><clipPath id="a"><path fill="#fff" d="M0 0h930.63v186.49H0z"/></clipPath></defs></svg>