<svg xmlns="http://www.w3.org/2000/svg" width="1261" height="211" fill="none"><g fill="#221742" clip-path="url(#a)"><path d="m1260.42 53.644-25.45 24h-152.23l-25.98 24.5h79.49l-24.92 23.5h-79.49l-26.51 25h151.7l-25.46 24h-225.7l25.46-24 77.41-73 25.45-24h226.23Zm-720.05 0-25.45 24h-65.18l-77.41 73-25.46 24h-86l25.46-24 77.41-73h-69.81l25.45-24h220.99Zm110.82 0-25.45 24-77.41 73-25.46 24h-86l25.46-24 77.41-73 25.45-24h86Zm354 0-25.45 24-77.41 73-25.46 24h-79l25.46-24 55.72-52.54-111.96 48.04h-33.5l-10.17-52.17-60.09 56.67-25.46 24h-86l25.46-24 77.41-73 25.45-24h90.47l4.76 24 4.67 23.5 118.75-47.5h106.35Zm-742.2-32.9-34.95 32.9H73.74l-19.17 18h47.45l-68.72 64.8L.51 37.014c-2.01-6.08 2.14-12.46 8.52-13.08l107.54-10.5 52.62-5.13 71.39-6.97L253.6.064c11.39-1.12 17.73 12.83 9.39 20.68Z"/><path d="m208.91 71.644-68.84 64.8-40.58 38.2-37.47 35.27c-1.6 1.51-4.22.84-4.9-1.24l-8.64-26.2-2.58-7.831-12.6-38.2h64l68.72-64.8h42.89Z"/></g><defs><clipPath id="a"><path fill="#fff" d="M0 0h1260.42v210.734H0z"/></clipPath></defs></svg>