<svg xmlns="http://www.w3.org/2000/svg" width="1035" height="332" fill="none"><mask id="a" width="1033" height="332" x="0" y="0" maskUnits="userSpaceOnUse" style="mask-type:luminance"><path fill="#fff" d="M1032.48 0H0v332h1032.48V0Z"/></mask><g fill="#221742" mask="url(#a)"><path d="M214.626 255.996c3.352-5.683 2.545-9.358 2.545-9.358-2.888-62.011-36.744-89.141-36.744-89.141 5.744-10.318 1.361-13.542 2.887-14.487 1.526-.945.912-5.384.912-5.384s-4.473-.21-5.266 1.395c-.792 1.604-4.398-2.474-14.138 4.184 0 0-29.996-31.358-91.873-28.659 0 0-3.725-.48-9.066 3.375-5.341 3.854 67.083 8.292 75.745 47.374 0 0-37.969 53.599-29.278 53.389.57 8.698 49.581-34.808 49.581-34.808 39.6 5.114 51.36 77.789 54.711 72.105l-.016.015Z"/><path d="M146.974 0 0 123.738l56.133 173.184H237.8l56.132-173.184L146.974 0Zm77.511 278.567H69.448L21.244 129.843l125.73-105.848 125.714 105.848-48.203 148.724Zm138.419 6.599c-14.468 0-27.065-4.619-37.537-13.752v11.996h-19.613V125.239h19.613v57.513c10.398-9.088 22.995-13.677 37.537-13.677 16.217 0 30.026 5.608 41.036 16.661 11.192 11.218 16.861 25.15 16.861 41.392 0 16.241-5.595 30.098-16.606 41.136-11.191 11.217-25.09 16.902-41.291 16.902Zm0-96.685c-10.653 0-19.794 3.749-27.169 11.143-7.54 7.558-11.371 16.81-11.371 27.488s3.831 19.677 11.371 27.235c7.66 7.664 16.546 11.398 27.169 11.398 10.622 0 19.687-3.645 27.168-11.143 7.54-7.558 11.37-16.812 11.37-27.49 0-10.678-3.83-19.675-11.37-27.234-7.54-7.558-16.681-11.397-27.168-11.397Zm64.269 94.928V170.573h19.613v112.836h-19.613Zm9.934-121.985c-2.858 0-5.745-1.079-8.558-3.193l-.135-.106-.254-.224c-2.424-2.43-3.726-5.474-3.965-9.133 0-4.2 1.556-11.278 12.089-13.198l.209-.045.419-.03c3.92 0 10.502 1.545 13.001 11.863l.135.555v.555c0 8.113-4.833 12.956-12.927 12.956h-.014Zm22.307 121.986V170.573h19.613v5.339l.658-.615c4.384-3.959 9.306-5.969 14.647-5.969 5.655 0 10.457.674 14.288 2.01 3.755 1.319 7.929 3.629 12.431 6.884l3.622 2.609-10.652 16.496-4.026-3.029a30.638 30.638 0 0 0-7.375-4.139c-2.453-.945-5.071-1.425-7.795-1.425-1.884 0-3.574.57-5.31 1.785-2.05 1.439-3.845 3.239-5.372 5.384a28.982 28.982 0 0 0-3.755 7.437c-.912 2.67-1.375 5.1-1.375 7.244v72.826h-19.615.016Zm122.617 1.756c-16.218 0-30.027-5.609-41.038-16.663-11.19-11.201-16.86-25.134-16.86-41.391 0-16.256 5.595-30.098 16.621-41.135 11.19-11.218 25.089-16.902 41.291-16.902 14.048 0 26.571 4.589 37.297 13.663v-57.499h19.614V283.41h-19.614v-11.696c-10.442 8.922-22.964 13.436-37.297 13.436l-.014.016Zm0-96.685c-10.652 0-19.794 3.749-27.169 11.143-7.54 7.558-11.371 16.81-11.371 27.488s3.831 19.677 11.371 27.235c7.644 7.664 16.547 11.398 27.169 11.398s19.688-3.645 27.168-11.143c7.54-7.558 11.37-16.812 11.37-27.49 0-10.678-3.83-19.675-11.37-27.234-7.541-7.558-16.681-11.397-27.168-11.397Zm109.436 96.925c-17.758 0-31.238-8.143-40.08-24.22l-2.184-3.96 16.801-10.107 2.349 4.289c2.468 4.529 5.446 8.039 8.842 10.453 3.411 2.594 8.198 3.899 14.287 3.899 13.181 0 18.806-4.589 18.806-15.342 0-4.349-1.975-7.963-6.224-11.398-1.451-.839-3.546-1.829-6.224-2.909a419.147 419.147 0 0 0-11.235-4.333c-8.887-3.21-15.216-6.405-19.33-9.779-6.448-5.249-9.709-12.792-9.709-22.42 0-8.339 3.187-15.552 9.47-21.461 5.954-5.983 13.869-9.027 23.444-9.027 12.732 0 23.683 4.513 32.539 13.392l3.561 3.569-14.602 12.687-3.081-3.089c-4.803-4.814-10.817-7.139-18.417-7.139-9.456 0-13.301 3.21-13.301 11.083 0 3.27 1.198 5.774 3.785 7.888 2.454 1.92 6.883 3.99 12.762 5.939 5.85 2.07 10.726 4.034 14.527 5.849 3.889 1.86 6.912 3.569 8.977 5.069 8.437 6.493 12.687 15.251 12.687 26.094 0 10.843-3.831 18.956-11.401 25.375-7.495 6.388-16.591 9.628-27.019 9.628l-.03-.03Zm56.538-1.996v-93.174h-13.989v-19.661h13.989v-45.336h19.613v45.336h23.996v19.661h-23.996v93.174h-19.613Zm95.389 1.755c-16.217 0-30.026-5.609-41.037-16.662-11.191-11.217-16.861-25.134-16.861-41.391 0-16.256 5.67-29.918 16.861-41.136 10.981-11.367 24.805-17.157 41.037-17.157 16.233 0 29.846 5.685 41.052 16.902 11.191 11.218 16.861 25.15 16.861 41.391 0 16.242-5.595 30.099-16.622 41.136-11.19 11.219-25.088 16.902-41.291 16.902v.015Zm0-96.925c-10.308 0-19.344 3.915-26.884 11.623-7.735 7.754-11.654 16.917-11.654 27.264 0 10.348 3.829 19.676 11.369 27.234 7.66 7.664 16.547 11.398 27.169 11.398s19.793-3.749 27.169-11.143c7.54-7.558 11.37-16.811 11.37-27.489 0-10.677-3.74-20.08-11.116-27.489-7.405-7.573-16.622-11.398-27.423-11.398Zm73.77 143.761V170.574h19.613v12.268c10.338-9.148 23.025-13.767 37.791-13.767 16.218 0 30.022 5.609 41.032 16.661 11.2 11.218 16.87 25.15 16.87 41.391 0 16.243-5.6 30.099-16.63 41.137-11.19 11.218-25.084 16.901-41.287 16.901-14.512 0-27.198-4.708-37.79-13.992v60.828h-19.615.016Zm57.404-143.52c-10.652 0-19.793 3.749-27.169 11.142-7.54 7.559-11.37 16.812-11.37 27.49 0 10.678 3.83 19.676 11.37 27.234 7.66 7.663 16.547 11.397 27.169 11.397s19.688-3.643 27.172-11.141c7.54-7.56 11.37-16.812 11.37-27.49 0-10.678-3.83-19.676-11.37-27.234-7.544-7.559-16.7-11.398-27.172-11.398Z"/></g></svg>