<svg xmlns="http://www.w3.org/2000/svg" width="363" height="100" fill="none"><path fill="#221742" d="m118.121 76-4.564-11.578h-23.75L85.279 76h-9.277l21.375-53.215h8.238L127.621 76h-9.5Zm-16.514-41.822L92.85 56.592h17.664l-8.907-22.414Zm32.916-5.567v-8.72h8.721v8.72h-8.721ZM134.672 76V34.957h8.424V76h-8.424Zm40.115-41.266h3.637v7.979h-4.453c-3.464 0-6.074.965-7.83 2.894-1.757 1.93-2.635 4.763-2.635 8.498V76h-8.424V34.957h5.715l1.41 5.603c2.919-3.884 7.113-5.826 12.58-5.826Zm48.759-11.949.037 8.164H207.96V76h-8.721V30.95h-15.586v-8.165h39.893Zm34.883 49.207c-3.39 3.34-7.905 5.01-13.545 5.01-5.641 0-10.168-1.67-13.582-5.01-3.39-3.34-5.084-7.78-5.084-13.322V34.957h8.424v22.525c0 3.563.915 6.37 2.746 8.424 1.83 2.029 4.329 3.043 7.496 3.043 3.166 0 5.653-1.026 7.459-3.08 1.83-2.053 2.746-4.849 2.746-8.387V34.957h8.424V58.67c0 5.542-1.695 9.982-5.084 13.322ZM274.868 76V20.262h8.424V76h-8.424Zm20.262-47.389v-8.72h8.721v8.72h-8.721ZM295.278 76V34.957h8.424V76h-8.424Zm42.491-42.045c4.032 0 7.669.928 10.91 2.783 3.241 1.856 5.764 4.429 7.57 7.719 1.831 3.29 2.746 6.964 2.746 11.021 0 6.16-2.016 11.294-6.049 15.4-4.008 4.108-9.067 6.161-15.177 6.161-5.27 0-9.822-1.657-13.657-4.973v18.63h-8.424v-55.74h5.678l1.596 5.047a19.47 19.47 0 0 1 6.605-4.453c2.549-1.064 5.282-1.596 8.202-1.596ZM327.452 65.09c2.573 2.573 5.789 3.86 9.649 3.86 3.859 0 7.05-1.275 9.574-3.823 2.523-2.573 3.785-5.79 3.785-9.648 0-3.86-1.262-7.064-3.785-9.612-2.524-2.573-5.715-3.86-9.574-3.86-3.86 0-7.076 1.287-9.649 3.86-2.548 2.573-3.822 5.777-3.822 9.611 0 3.835 1.274 7.039 3.822 9.612Z"/><path fill="#221742" fill-rule="evenodd" stroke="#221742" d="M22.148 15.237c1.712-2.983 5.992-2.983 7.704 0l20.545 35.79c1.712 2.982-.428 6.71-3.852 6.71H5.455c-3.424 0-5.565-3.728-3.852-6.71l20.545-35.79ZM26 20.457 8.023 51.771h35.954L26 20.456Z" clip-rule="evenodd"/><path fill="#221742" fill-rule="evenodd" stroke="#221742" stroke-linecap="round" d="M2.315 32.737c0-1.453 1.326-2.632 2.961-2.632h41.447c1.635 0 2.96 1.179 2.96 2.632s-1.325 2.632-2.96 2.632H5.276c-1.635 0-2.96-1.178-2.96-2.632ZM26 55.106c1.454 0 2.632 1.296 2.632 2.895V81.16c0 1.599-1.178 2.895-2.632 2.895-1.453 0-2.631-1.296-2.631-2.895V58.001c0-1.599 1.178-2.895 2.631-2.895Z" clip-rule="evenodd"/></svg>