<svg xmlns="http://www.w3.org/2000/svg" width="700" height="219" fill="none"><g fill="#221742" clip-path="url(#a)"><path d="M264.828 90.233v-61.25h40.6v9.1h-29.662v16.713h26.512v9.012h-26.512v17.325h29.662v9.1h-40.6Zm56.035 0v-61.25h10.85v51.975h29.488v9.275h-40.338Zm53.961 0v-61.25h40.6v9.1h-29.662v16.713h26.512v9.012h-26.512v17.325h29.662v9.1h-40.6Zm78.46 1.049c-16.975 0-27.3-10.763-27.3-31.675 0-19.163 10.15-31.675 27.3-31.675 12.163 0 21.525 6.562 24.675 19.075l-11.112 2.187c-1.488-7.612-5.775-12.425-13.475-12.425-5.163 0-9.1 1.4-11.725 4.988-2.888 3.85-4.025 9.8-4.025 17.85 0 8.137 1.137 13.737 3.85 17.5 2.537 3.587 6.387 5.337 11.812 5.337 7.525 0 11.725-4.725 13.738-11.462l11.287 2.975c-4.287 10.762-12.687 17.325-25.025 17.325Zm50.75-1.049V38.258h-18.725v-9.275h48.475v9.275h-18.813v51.975h-10.937Zm40.982 0v-61.25h21.262c11.9 0 24.063 2.188 24.063 18.288 0 7.525-3.938 12.775-9.625 15.137 5.862 2.188 8.137 6.563 8.137 13.125 0 6.563.613 10.588 3.413 14.438l-.088.262h-11.812c-1.838-3.15-2.363-5.95-2.363-14 0-7.35-3.325-10.15-11.637-10.15h-10.413v24.15h-10.937Zm10.937-32.9h9.625c7.088 0 14-.875 14-9.625 0-9.45-6.912-9.887-13.912-9.887h-9.713v19.512Zm48.879 32.9v-8.925h7.088v-43.4h-7.088v-8.925h25.025v8.925h-7v43.4h7v8.925h-25.025Zm65.816 1.049c-16.975 0-27.3-10.763-27.3-31.675 0-19.163 10.15-31.675 27.3-31.675 12.162 0 21.525 6.562 24.675 19.075l-11.113 2.187c-1.487-7.612-5.775-12.425-13.475-12.425-5.162 0-9.1 1.4-11.725 4.988-2.887 3.85-4.025 9.8-4.025 17.85 0 8.137 1.138 13.737 3.85 17.5 2.538 3.587 6.388 5.337 11.813 5.337 7.525 0 11.725-4.725 13.737-11.462l11.288 2.975c-4.288 10.762-12.688 17.325-25.025 17.325ZM264.211 188.67v-61.25h20.475c10.762 0 24.325 1.837 24.325 18.987 0 16.975-13.475 18.813-24.325 18.813h-9.625v23.45h-10.85Zm10.85-32.2h9.45c6.562 0 13.65-.438 13.65-10.063 0-9.975-7.088-10.15-13.563-10.15h-9.537v20.213Zm47.423 32.2v-61.25h10.85v51.975h29.488v9.275h-40.338Zm48.688 0 21-61.25h11.987l20.913 61.25h-11.288l-4.987-16.1h-21.263l-4.987 16.1h-11.375Zm19.162-25.288h15.575l-4.637-14.787c-.963-2.8-2.275-7.525-3.15-10.85h-.175c-.963 3.762-1.925 7-3.063 10.85l-4.55 14.787Zm44.58 25.288v-61.25h12.163l16.712 31.5c1.925 3.762 5.163 10.762 7.438 16.012h.262c-.437-5.512-.787-13.562-.787-16.712v-30.8h10.325v61.25h-12.338l-17.062-32.55c-1.575-2.975-4.9-10.063-7-14.963h-.175c.437 6.388.7 14.35.7 16.363v31.15h-10.238Zm75.784 0v-51.975h-18.725v-9.275h48.475v9.275h-18.813v51.975h-10.937Zm100.883 1.049c-16.975 0-27.3-10.762-27.3-31.675 0-19.162 10.15-31.675 27.3-31.675 12.163 0 21.525 6.563 24.675 19.075l-11.112 2.188c-1.488-7.613-5.775-12.425-13.475-12.425-5.163 0-9.1 1.4-11.725 4.987-2.888 3.85-4.025 9.8-4.025 17.85 0 8.138 1.137 13.738 3.85 17.5 2.537 3.588 6.387 5.338 11.812 5.338 7.525 0 11.725-4.725 13.738-11.463l11.287 2.975c-4.287 10.763-12.687 17.325-25.025 17.325Zm60.364 0c-17.325 0-27.125-11.2-27.125-31.675 0-18.637 9.713-31.675 27.125-31.675 17.413 0 27.038 13.125 27.038 31.675 0 18.813-9.713 31.675-27.038 31.675Zm-15.4-31.675c0 7.875 1.138 14.088 3.763 17.675 2.537 3.5 6.737 5.163 11.637 5.163 5.075 0 9.013-1.663 11.463-5.075 2.887-3.938 3.937-10.238 3.937-17.763 0-7.525-1.137-13.825-3.85-17.675-2.45-3.5-6.3-5.162-11.2-5.162-5.425 0-9.45 1.925-11.9 5.162-2.712 3.763-3.85 10.238-3.85 17.675Z"/><path fill-rule="evenodd" d="M103.814 218.423c33.339 0 111.511-45.447 111.511-105.763S171.641 0 103.814 0C43.499 0-15.743 19.543 3.8 109.211c19.543 89.669 63.228 112.661 100.014 109.212Zm2.395-14.569c50.799 0 83.61-19.521 91.98-94.815 8.37-75.295-41.181-94.816-91.98-94.816-50.8 0-91.98 42.45-91.98 94.816 0 65.534 41.18 94.815 91.98 94.815Z" clip-rule="evenodd"/><path d="m102.891 102.898 5.136-29.946h2.701l5.126 29.946 29.948 5.128v2.701l-29.948 5.134-5.126 29.94h-2.701l-5.136-29.94-29.938-5.134v-2.701l29.938-5.128Z"/></g><defs><clipPath id="a"><path fill="#fff" d="M0 0h700v218.75H0z"/></clipPath></defs></svg>