<svg xmlns="http://www.w3.org/2000/svg" width="1063" height="283" fill="none"><g fill="#221742" clip-path="url(#a)"><path d="M412.652 4.31v26.627h-66.104v22.75h60.112V78.73h-60.112v24.512h65.927v26.616h-95.701V4.32h95.878v-.01Zm37.195 125.548h-27.502V4.32h27.502v125.56-.021Zm103.476-42.843v5.461h-67.334c.886 6.347 3.179 11.11 6.878 14.288 3.533 3.346 8.285 4.94 13.934 4.94 8.806 0 14.976-3.356 18.321-10.223h26.085c-2.47 9.525-7.753 16.924-15.684 22.385-8.108 5.471-17.623 8.118-28.733 8.118-14.1 0-25.553-4.241-34.193-13.058-8.816-8.639-13.037-20.093-13.037-34.558 0-14.454 4.231-25.918 12.86-34.558 8.462-8.65 19.739-13.047 34.027-13.047 14.09 0 25.376 4.575 34.182 13.579 8.463 9.17 12.694 21.51 12.694 36.673Zm-47.241-29.972c-11.276 0-17.967 5.992-19.916 17.977h40.186c-1.042-5.638-3.168-10.046-6.691-13.225-3.522-3.168-8.108-4.752-13.579-4.752Zm100.464 74.941c-14.278 0-25.544-4.241-34.016-13.058-8.452-8.639-12.694-20.093-12.694-34.558 0-14.454 4.242-26.095 12.704-34.735 8.452-8.473 19.739-12.87 34.016-12.87 12.329 0 22.563 3.345 30.494 9.869 7.93 6.524 12.506 15.34 13.923 26.45h-27.325c-1.585-9.171-7.223-13.934-17.102-13.934-12.683 0-18.853 8.473-18.853 25.22 0 16.758 6.17 25.033 18.853 25.033 10.578 0 16.393-5.107 17.633-15.33h27.325c-.885 11.641-5.461 20.801-13.579 27.679-8.285 6.879-18.675 10.224-31.369 10.224l-.01.01Zm103.621-93.106v20.093h-17.456v42.51c0 3.168.699 5.283 2.293 6.346 1.407 1.042 4.231 1.574 8.108 1.574h7.055v20.457c-3.355.532-7.586.709-12.693.709-11.464 0-19.739-1.938-24.678-5.992-5.117-4.065-7.577-10.755-7.577-20.103V58.971H651.64V38.878h13.579V11.886h27.492v26.982h17.456v.01Zm61.727-1.417c.355 0 2.47.177 5.993.354V62.87h-7.045c-16.216 0-24.147 8.285-24.147 24.678v42.322h-27.492V38.88h26.783v16.913c4.231-12.162 12.871-18.331 25.908-18.331Zm41.509-8.994h-26.262V5.196h26.262v23.271Zm.532 101.402h-27.503V38.868h27.503v91.001Zm56.412 2.115c-14.278 0-25.554-4.241-34.016-13.058-8.462-8.639-12.694-20.093-12.694-34.558 0-14.454 4.232-26.095 12.694-34.735 8.462-8.473 19.738-12.87 34.016-12.87 12.339 0 22.563 3.345 30.493 9.869 7.931 6.524 12.517 15.34 13.924 26.45h-27.315c-1.595-9.171-7.233-13.934-17.102-13.934-12.694 0-18.853 8.473-18.853 25.22 0 16.758 6.159 25.033 18.853 25.033 10.578 0 16.393-5.107 17.623-15.33h27.325c-.875 11.641-5.461 20.801-13.569 27.679-8.285 6.879-18.686 10.234-31.379 10.234ZM375.812 282.191c-19.207 0-34.724-5.993-46.532-17.988-11.985-11.995-17.8-27.857-17.8-47.616 0-19.572 5.815-35.434 17.8-47.606 11.808-11.995 27.325-17.988 46.532-17.988 19.04 0 34.548 5.993 46.533 17.988 11.807 12.172 17.8 28.034 17.8 47.616 0 19.749-5.993 35.611-17.8 47.606-11.985 11.995-27.493 17.988-46.533 17.988Zm-24.147-36.507c5.993 7.055 13.924 10.578 24.147 10.578 9.869 0 17.977-3.523 24.324-10.568 5.993-6.888 9.171-16.581 9.171-29.107 0-12.339-3.178-22.031-9.171-29.097-6.347-7.045-14.455-10.568-24.324-10.568-10.223 0-18.154 3.523-24.147 10.568-6.159 7.066-9.171 16.758-9.171 29.097 0 12.526 3.002 22.219 9.171 29.097Zm157.283-6.514v-50.794h27.492v90.99h-26.784v-12.86c-7.055 10.046-16.57 14.986-28.555 14.986-9.702 0-17.456-2.824-23.094-8.639-5.638-5.815-8.462-14.111-8.462-24.866v-59.601h27.502v54.13c0 10.411 4.763 15.517 14.632 15.517 4.93 0 8.984-1.573 12.329-4.929 3.178-3.179 4.94-7.941 4.94-13.934Zm93.242-50.794v20.103h-17.457v42.499c0 3.178.709 5.284 2.304 6.347 1.406 1.052 4.22 1.584 8.108 1.584h7.045v20.457c-3.346.532-7.587.699-12.694.699-11.453 0-19.738-1.928-24.668-5.982-5.117-4.065-7.587-10.756-7.587-20.104v-45.5h-13.569v-20.093h13.569v-26.992h27.492v26.971l17.457.011Zm69.887 10.942v-45.5h27.492v125.559h-26.794v-11.818c-6.159 9.348-15.33 13.933-27.315 13.933-12.339 0-21.854-4.241-28.91-12.881-7.222-8.462-10.755-20.093-10.755-34.735 0-14.465 3.533-26.106 10.755-34.735 7.056-8.473 16.571-12.881 28.91-12.881 11.453 0 20.27 4.408 26.617 13.058Zm-19.041 60.133c13.048 0 19.572-8.483 19.572-25.575 0-16.924-6.524-25.574-19.572-25.574-6.159 0-10.921 2.292-14.277 6.878-3.523 4.585-5.107 10.932-5.107 19.394 0 16.581 6.347 24.866 19.384 24.866v.011Zm103.747 22.041c-14.455 0-26.085-4.241-34.725-13.058-8.806-8.639-13.047-20.093-13.047-34.558s4.241-25.929 13.047-34.735c8.463-8.473 20.093-12.881 34.725-12.881 14.455 0 26.085 4.408 34.725 12.881 8.462 8.629 12.86 20.27 12.86 34.735 0 14.455-4.398 26.096-12.86 34.558-8.817 8.817-20.27 13.048-34.725 13.048v.01Zm0-22.041c6.347 0 11.099-2.126 14.632-6.535 3.345-4.231 5.107-10.578 5.107-19.04 0-8.285-1.762-14.642-5.107-19.051-3.533-4.231-8.285-6.523-14.632-6.523-6.524 0-11.453 2.292-14.809 6.534-3.522 4.408-5.107 10.755-5.107 19.04 0 8.462 1.585 14.809 5.107 19.04 3.356 4.419 8.285 6.535 14.809 6.535Zm101.141 22.041c-14.454 0-26.085-4.241-34.714-13.058-8.817-8.639-13.048-20.093-13.048-34.558s4.231-25.929 13.048-34.735c8.452-8.473 20.093-12.881 34.714-12.881 14.455 0 26.096 4.408 34.725 12.881 8.462 8.629 12.871 20.27 12.871 34.735 0 14.455-4.409 26.096-12.871 34.558-8.806 8.817-20.27 13.048-34.725 13.048v.01Zm0-22.041c6.358 0 11.11-2.126 14.632-6.535 3.356-4.231 5.117-10.578 5.117-19.04 0-8.285-1.761-14.642-5.117-19.051-3.522-4.231-8.274-6.523-14.632-6.523-6.513 0-11.442 2.292-14.798 6.534-3.533 4.408-5.107 10.755-5.107 19.04 0 8.462 1.574 14.809 5.107 19.04 3.356 4.419 8.285 6.535 14.798 6.535Zm109.792-72.482c.354 0 2.47.177 5.992.354v25.033h-7.045c-16.226 0-24.157 8.295-24.157 24.699v42.311h-27.492v-90.99h26.794v16.935c4.231-12.173 12.87-18.353 25.908-18.353v.011Zm51.934 95.044c-14.46 0-25.036-2.47-32.081-7.409-7.056-4.93-10.932-13.048-11.631-24.158h26.782c.36 4.94 1.94 8.296 4.59 10.224 2.64 2.126 6.86 3.001 12.86 3.001 10.23 0 15.34-2.813 15.34-8.816 0-2.814-1.23-4.93-3.35-6.347-2.3-1.407-6.34-2.637-12.34-3.71l-11.8-1.928c-20.451-3.179-30.675-12.35-30.675-27.867 0-9.171 3.523-16.227 10.568-21.156 7.055-4.94 17.097-7.587 30.317-7.587 27.15 0 41.25 10.411 42.31 31.213h-25.56c-.18-8.463-5.82-12.871-16.75-12.871-9.34 0-13.92 2.991-13.92 8.639a6.723 6.723 0 0 0 3.17 5.993c2.11 1.417 5.47 2.47 10.04 3.178l13.58 1.939c10.93 1.761 18.86 4.762 24.15 9.348 5.11 4.585 7.75 10.932 7.75 18.863 0 9.525-3.88 16.758-11.45 21.864-7.58 5.117-18.16 7.587-31.9 7.587ZM146.183 43.465c.605-.437.907-.656 1.167-.635.219.01.428.114.563.281.156.209.156.584.156 1.334v50.086c0 .417 0 .625.084.792a.8.8 0 0 0 .323.323c.156.084.375.084.792.084h50.367c1.147 0 1.72 0 1.939.208a.742.742 0 0 1 .219.688c-.063.292-.532.636-1.47 1.292l-51.743 36.403a1.49 1.49 0 0 0-.354.281.708.708 0 0 0-.125.25c-.031.104-.032.219-.032.448v12.829c0 .428 0 .636.084.792a.767.767 0 0 0 .323.334c.156.073.375.073.792.073h50.367c1.147 0 1.72 0 1.939.208a.77.77 0 0 1 .219.698c-.063.292-.532.626-1.47 1.282l-51.743 36.413c-.125.073-.25.167-.354.282a.708.708 0 0 0-.125.25c-.031.104-.032.219-.032.448v48.814c0 .417 0 .626-.083.782a.738.738 0 0 1-.333.334c-.157.073-.365.073-.782.073h-18.436c-.417 0-.625 0-.792-.073a.773.773 0 0 1-.323-.334c-.083-.156-.083-.365-.083-.782v-87.186c0-.417 0-.636-.084-.792a.767.767 0 0 0-.323-.334c-.166-.083-.375-.083-.792-.083H75.671c-1.157 0-1.73 0-1.939-.198a.734.734 0 0 1-.218-.699c.052-.291.52-.625 1.469-1.281l51.743-36.403a1.77 1.77 0 0 0 .344-.281.74.74 0 0 0 .136-.25c.031-.105.031-.23.031-.449V96.928c0-.417 0-.625-.084-.792a.8.8 0 0 0-.323-.323c-.166-.083-.375-.083-.792-.083H75.671c-1.157 0-1.73 0-1.939-.209a.74.74 0 0 1-.218-.688c.052-.302.52-.625 1.469-1.281l71.19-50.097.01.01Z"/><path d="M17.883 140.093c0-67.052 54.328-121.39 121.339-121.39 67.01 0 121.338 54.348 121.338 121.39s-54.328 121.391-121.338 121.391c-67.021 0-121.339-54.349-121.339-121.391Zm121.339 139.274c76.89 0 139.221-62.352 139.221-139.284C278.443 63.172 216.102.809 139.222.809 62.332.809 0 63.172 0 140.093c0 76.922 62.331 139.274 139.222 139.274Z"/></g><defs><clipPath id="a"><path fill="#fff" d="M0 .809h1063V282.19H0z"/></clipPath></defs></svg>