<svg xmlns="http://www.w3.org/2000/svg" width="1348" height="969" fill="none"><g clip-path="url(#a)"><path fill="#221742" fill-rule="evenodd" d="M468.056 0h411.888v843H468.056V0Zm468.055 0H1348v843H936.111V0ZM411.889 131.133H0V843h411.889V131.133ZM0 0h411.889v93.667H0V0Z" clip-rule="evenodd"/></g><g clip-path="url(#b)"><path fill="#221742" fill-rule="evenodd" d="M989.795 952.698c.145-1.287.321-2.845.321-4.673.081-1.824.114-4.036.081-6.555h-21.322a13.463 13.463 0 0 1-.973 5.813 6.1 6.1 0 0 1-3.353 2.922c-.765.348-1.563.619-2.382.807a20.84 20.84 0 0 1-3.451.372c-1.523.161-3.516.161-6.011.161h-9.9c-4.154.043-8.307-.124-12.444-.5a12.996 12.996 0 0 1-6.821-2.309 8.61 8.61 0 0 1-2.884-5.49 69.016 69.016 0 0 1-.6-10.189c0-1.582.035-3.018.066-4.307v-.004c.025-1.05.048-2.003.048-2.858a33.15 33.15 0 0 1 .486-4.747c.189-1.045.516-2.06.972-3.02a7.269 7.269 0 0 1 1.62-2.002 8.308 8.308 0 0 1 2.334-1.405 16.482 16.482 0 0 1 3.888-.856c1.701-.209 3.954-.355 6.773-.435 2.808-.065 6.448-.097 10.92-.097 4.78 0 8.507.064 11.261.209 2.134.032 4.25.397 6.27 1.082a4.358 4.358 0 0 1 2.755 2.584 18.7 18.7 0 0 1 .81 4.634h21.063v-2.438a33.201 33.201 0 0 0-2.057-12.821 13.136 13.136 0 0 0-6.481-7.024 29.271 29.271 0 0 0-4.861-1.776 44.725 44.725 0 0 0-6.822-1.13 103.515 103.515 0 0 0-10.709-.533c-4.332-.075-9.852-.113-16.559-.113-5.137 0-9.414.065-12.962.21-3.554.151-6.589.404-9.106.759a37.722 37.722 0 0 0-6.481 1.453 26.98 26.98 0 0 0-5.136 2.325 17.608 17.608 0 0 0-4.699 3.827 16.134 16.134 0 0 0-3.03 5.716 37.563 37.563 0 0 0-1.62 8.461c-.292 3.305-.438 7.331-.438 12.078 0 5.328.146 9.849.438 13.595a52.007 52.007 0 0 0 1.458 9.43 18.324 18.324 0 0 0 2.819 6.249 16.322 16.322 0 0 0 4.488 4.166 23.285 23.285 0 0 0 4.764 2.309c2.053.69 4.17 1.177 6.319 1.453 3.014.411 6.048.664 9.09.759 3.58.21 7.955.21 13.155.21 7.205.022 13.028-.011 17.467-.097 4.44-.086 7.777-.231 10.013-.436a34.856 34.856 0 0 0 13.092-2.858 14.327 14.327 0 0 0 6.821-6.959c.374-.837.683-1.7.924-2.584.28-1.097.475-2.215.583-3.342l.003-.026ZM21.971 896.523v71.935H0v-71.935h21.97Zm50.823 0 43.746 54.674-.567-54.674h20.772v71.935h-35.273l-43.147-54.141.55 54.141H37.813v-71.935h34.982Zm156.729 16.293v-16.293h-76.605v71.935h21.857v-25.012h51.945v-16.292h-51.945v-14.338h54.748Zm34.722-16.293v71.935h-21.954v-71.935h21.954Zm94.58 54.674-43.746-54.674h-34.917v71.935h21.063l-.534-54.141 43.066 54.141h35.273v-71.935h-20.772l.567 54.674Zm58.29-54.674v71.935H395.16v-71.935h21.955Zm11.475 0v17.794h32.129v54.141h21.971v-54.173h32.146v-17.762H428.59Zm177.801 16.293h-58.329v12.4h54.975v14.226h-54.975v12.74h59.091v16.276h-80.721v-71.935h79.959v16.293Zm105.274 31.486-26.297-47.779h-34.932v71.935h21.209l-.648-55.529 31.497 55.529h17.531l32.033-55.529-1.086 55.529h21.42v-71.935h-34.625l-26.102 47.779Zm141.59-47.779 39.502 71.935h-24.028l-7.13-12.918h-46.533l-6.935 12.918h-24.887l40.506-71.935h29.505Zm-14.922 15.421-15.377 28.693h30.915l-15.538-28.693Zm188.007-15.421v26.643h50v-26.643h21.97v71.935h-21.97v-27.45h-50v27.45h-21.97v-71.935h21.97Zm109.99 71.935v-71.935h-21.97v71.935h21.97Zm50.83-71.935 43.75 54.674-.57-54.674h20.77v71.935h-35.27l-43.07-54.141.54 54.141h-21.07v-71.935h34.92Zm101.76 16.293h58.33v-16.293h-79.97v71.935h80.77v-16.276h-59.13v-12.74h54.98v-14.226h-54.98v-12.4Z" clip-rule="evenodd"/></g><defs><clipPath id="a"><path fill="#fff" d="M0 0h1348v843H0z"/></clipPath><clipPath id="b"><path fill="#fff" d="M0 896h1348v73H0z"/></clipPath></defs></svg>