<svg xmlns="http://www.w3.org/2000/svg" width="444" height="501" fill="none"><g fill="#221742" clip-path="url(#a)"><path d="M419.275 393.739c-22.57 30.592-52.75 51.616-88.173 65.29-36.067 13.924-73.962 23.558-108.213 41.929-3.595.48-8.199-3.265-11.356-4.794-34.944-16.922-72.783-25.649-108.14-40.799C39.785 428.11-9.246 371.776 1.478 298.711c3.795-25.856 13.653-45.857 23.447-69.346 9.022-21.638 14.785-46.062 14.04-69.689-.107-3.399-1.183-8.028-1.064-11.112.03-.791.454-1.415 1.065-1.891l364.176-.213c1.187-.04 2.375.375 2.77 1.573.574 1.743-.556 6.719-.631 8.89-.798 23.056 2.916 44.915 11.173 66.243 3.637 9.392 8.44 18.322 12.233 27.651 20.211 49.707 23.588 98.193-9.412 142.922Zm-212.101-31.071c5.753-5.746 9.063-14.508 9.619-22.564 1.554-22.538-1.168-46.774.02-69.49-1.431-44.671-73.288-43.906-75.119-.003 1.199 22.991-1.53 47.488.003 70.302 1.096 16.325 11.712 28.923 27.983 31.655 12.944 2.174 27.978-.395 37.494-9.9Zm-76.526 9.218-19.67-57.453c14.597-7.883 16.153-26.558 15.342-41.453-1.056-19.396-9.371-32.019-29.839-33.355l-42.103.016v132.245H78.09v-53.293h11.065l16.598 53.293h24.896Zm184.943 0-33.382-131.86-23.282-.409-33.831 132.269h24.303l5.783-25.608h30.323l5.783 25.608h24.303Zm9.089 0c11.805-.435 24.019.576 35.78.016 21.295-1.013 36.361-11.859 37.74-34.146 1.298-20.976-1.019-43.265 0-64.379-.949-15.834-9.096-28.311-24.827-32.439-1.205-.316-4.861-1.297-5.816-1.297H324.68v132.245ZM376.314 6.867c9.704 8.229 19.184 18.543 28.581 27.307 8.847 8.251 18.604 16.792 27.526 25.202 1.206 1.137 6.649 5.917 7.117 6.697 1.405 2.342.328 3.572-1.105 5.54-10.649 14.608-18.922 26.412-25.14 43.969-1.682 4.747-2.568 10.53-4.372 14.995-.477 1.18-.961 1.708-2.261 2.062-123.185.69-246.638.692-369.854.007-.802-.122-1.372-.755-1.688-1.472-1.649-3.741-2.456-10.098-3.867-14.295-2.804-8.343-7.577-18.324-11.967-25.943-4.615-8.012-10.391-14.82-15.502-22.444-.434-2.906 5.148-6.067 6.986-7.817C26.719 45.487 42.395 30.723 58.524 15.81c3.103-2.87 7.246-7.735 10.46-10.079 3.521-2.569 5.706-.564 9.406.504 49.126 14.171 90.96 14.924 138.877-4.36 1.65-.664 2.604-1.772 4.883-1.867 2.709-.112 3.971 1.096 6.114 1.782 11.782 3.774 22.942 7.745 35.148 10.287 36.266 7.554 73.923 4.637 108.59-7.639.944-.085 3.489 1.733 4.312 2.43Zm-240.23 35.89c-6.569.891-13.367 6.542-15.783 12.657-2.652 6.711-2.695 29.233-.435 36.105 5.913 17.982 32.697 18.963 39.966 1.411 2.41-5.818 2.147-23.91 1.633-30.729-1.002-13.322-12.397-21.203-25.381-19.443Zm46.726 38.19H200c7.728 0 14.874-9.683 15.562-16.825.875-9.075-6.039-21.072-15.957-21.072h-25.884v61.978h9.089v-24.08Zm81.012-37.897h-38.728v61.978h38.728v-9.08h-29.243V78.184h24.896V69.5h-24.896V52.13h29.243v-9.08Zm18.376 0h-8.299l-.593.593v61.385h9.484V61.604l27.07 43.424h8.892V43.05h-9.485v43.424L282.198 43.05Z"/><path d="M78.09 297.276v-36.318h15.214c.657 0 4.02 1.515 4.685 2.031 6.002 4.642 5.38 23.056 2.183 29.305-1.032 2.017-4.624 4.982-6.868 4.982H78.09Zm270.301 52.898v-89.216h13.633c10.087 0 12.086 12.754 12.465 20.314.754 15.068.799 34.724 0 49.772-.314 5.897-1.565 14.054-6.996 17.487-.452.286-3.641 1.643-3.888 1.643h-15.214Zm-169.268-91.039c11.01-.094 13.476 9.871 13.981 18.976 1.087 19.598-.452 40.657-.523 60.309-1.227 9.466-8.486 15.736-18.179 12.455-6.848-2.318-8.62-9.829-8.999-16.276-1.187-20.191.526-42.019.523-62.283 1.269-7.588 4.814-13.109 13.197-13.181Zm102.088 65.379h-21.34l10.472-51.717 10.868 51.717ZM138.466 52.243c7.788-.923 12.895 4.503 13.517 11.933.405 4.842.583 19.177-.659 23.41-3.276 11.166-19.411 11.145-22.46.08-1.478-5.36-1.577-23.042.292-28.145 1.406-3.837 5.272-6.8 9.31-7.278Zm59.561-.113c8.233 1.026 10.639 10.761 5.669 16.716-.913 1.095-3.952 3.022-5.274 3.022h-15.61V52.13c4.788.43 10.551-.582 15.215 0Z"/></g><defs><clipPath id="a"><path fill="#fff" d="M0 0h444v501H0z"/></clipPath></defs></svg>