<svg xmlns="http://www.w3.org/2000/svg" width="870" height="600" fill="none"><path fill="#221742" d="M659 178c116.532 0 211 94.468 211 211s-94.468 211-211 211-211-94.468-211-211 94.468-211 211-211Zm0 79c-70.14 0-127 59.098-127 132s56.86 132 127 132 127-59.098 127-132-56.86-132-127-132ZM85 219.735C120.162 193.519 163.768 178 211 178c116.532 0 211 94.468 211 211s-94.468 211-211 211c-47.232 0-90.838-15.519-126-41.736V591H0V0h85v219.735ZM211 257c-70.14 0-127 59.098-127 132s56.86 132 127 132 127-59.098 127-132-56.86-132-127-132Z"/></svg>