<svg xmlns="http://www.w3.org/2000/svg" width="538" height="388" fill="none"><g clip-path="url(#a)"><path fill="#221742" d="M77.117 295.715H0v17.019h28.463v72.572h20.193v-72.572h28.463l-.002-17.019Zm75.408 59.177a24.696 24.696 0 0 1-7.34 10.028 24.753 24.753 0 0 1-11.303 5.191 27.155 27.155 0 0 1-4.685.415c-1.59 0-3.157-.15-4.671-.415a24.703 24.703 0 0 1-11.3-5.189 24.654 24.654 0 0 1-7.334-10.03 39.284 39.284 0 0 1-2.718-14.381c0-5.074.967-9.935 2.718-14.388a24.668 24.668 0 0 1 7.336-10.027 24.735 24.735 0 0 1 11.298-5.191 25.842 25.842 0 0 1 9.354 0 24.734 24.734 0 0 1 11.302 5.188 24.679 24.679 0 0 1 7.341 10.026 39.525 39.525 0 0 1 .002 28.773Zm-23.332-61.869c-26.259 0-47.569 21.26-47.569 47.488 0 26.212 21.31 47.476 47.571 47.476 26.277 0 47.57-21.264 47.57-47.473 0-26.231-21.295-47.491-47.572-47.491Zm47.891 2.692h23.784l22.211 38.519 22.211-38.519h23.776l-35.893 56.446v33.145h-20.188v-33.145l-35.901-56.446Zm139.929 74.819c1.586 0 3.161-.16 4.67-.423a24.7 24.7 0 0 0 11.303-5.184 24.645 24.645 0 0 0 7.334-10.029 39.236 39.236 0 0 0 0-28.767 24.66 24.66 0 0 0-7.334-10.032 24.721 24.721 0 0 0-11.303-5.19 26.646 26.646 0 0 0-9.366 0 24.698 24.698 0 0 0-11.297 5.189 24.649 24.649 0 0 0-7.329 10.029 39.242 39.242 0 0 0-2.727 14.38c0 5.079.968 9.927 2.727 14.389a24.628 24.628 0 0 0 7.328 10.029 24.673 24.673 0 0 0 11.298 5.184c1.55.28 3.121.422 4.696.425Zm-47.579-30.027c0-26.226 21.288-47.495 47.577-47.495 26.258 0 47.568 21.261 47.568 47.495-.002 26.209-21.31 47.491-47.568 47.491-26.289 0-47.577-21.282-47.577-47.491Zm232.869 9.338-13.215-35.397-13.232 35.397h26.447Zm5.859 15.675h-38.2l-7.348 19.728h-22.466l36.357-89.599h25.124l36.37 89.599h-22.438l-7.399-19.728Zm-62.081-69.807h-77.114v17.021h28.476l-.009 72.569h20.201l-.008-72.569h28.454v-17.021ZM357.396 12.57C332.728 4.615 302.148 0 268.999 0c-33.148 0-63.728 4.617-88.396 12.57C115.077 33.604 70.107 77.214 70.107 127.491c0 70.803 88.912 128.52 198.892 128.52 109.726 0 198.893-57.461 198.893-128.52 0-50.276-44.97-93.887-110.496-114.92Zm-88.397 188.288c-16.444 0-29.807-32.066-30.577-72.595 9.764 1.025 20.042 1.282 30.577 1.282s20.816-.513 30.58-1.282c-.77 40.529-14.133 72.595-30.58 72.595ZM240.476 96.71c4.367-28.474 15.418-48.482 28.523-48.482 12.849 0 23.898 20.008 28.523 48.482-8.994.77-18.758 1.282-28.523 1.282-9.764 0-19.272-.513-28.523-1.282Zm74.521-2.308c-6.681-44.38-24.668-76.445-45.998-76.445-21.327 0-39.315 31.81-45.997 76.443-40.342-6.412-68.61-20.52-68.61-37.196 0-22.574 51.395-40.785 114.607-40.785 63.215 0 114.608 18.21 114.608 40.785 0 16.675-28.266 31.042-68.61 37.198Zm-215.851 28.47c0-21.803 8.478-42.07 23.127-59.768-.257 1.282-.257 2.564-.257 3.59 0 27.448 41.113 50.535 98.416 59.257v6.156c0 50.792 14.135 93.887 33.664 108.767-86.856-5.13-154.952-55.92-154.952-118l.002-.002Zm184.759 118.259c19.527-14.878 33.662-57.976 33.662-108.768v-6.154c57.303-8.467 98.416-31.811 98.416-59.26 0-1.281 0-2.563-.257-3.589 14.649 17.442 23.129 37.965 23.129 59.77 0 61.822-68.097 112.614-154.952 118.001h.002Z"/></g><defs><clipPath id="a"><path fill="#fff" d="M0 0h538v388H0z"/></clipPath></defs></svg>