<svg xmlns="http://www.w3.org/2000/svg" width="783" height="130" fill="none"><path fill="#221742" d="M660.5 5h-35c-6.627 0-12 5.373-12 12h35c6.627 0 12-5.373 12-12ZM471 63v40h-58c-19.882 0-36-16.118-36-36v-2c0-19.882 16.118-36 36-36h58v12h-58c-13.255 0-24 10.745-24 24v2c0 13.255 10.745 24 24 24h46V63h12Zm40 13V29h12v47c0 8.284 6.716 15 15 15h54.5v12H538c-14.912 0-27-12.088-27-27Zm132-47v74h-12V29h12Zm128 36c0-13.255-10.745-24-24-24h-46v50h46c13.255 0 24-10.745 24-24v-2Zm12 2c0 19.882-16.118 36-36 36h-58V29h58c19.882 0 36 16.118 36 36v2ZM49.76 54a30 30 0 0 1 19.965 7.608l49.191 43.863a8.004 8.004 0 0 0 5.324 2.029h54.897a7.998 7.998 0 0 0 5.899-2.597L211.509 76H145V54h138v22h-33.295a19 19 0 0 0-14.012 6.167l-34.432 37.596a30.005 30.005 0 0 1-22.124 9.737H124.24a30.001 30.001 0 0 1-19.965-7.608L55.084 78.029A8.002 8.002 0 0 0 49.76 76H0V54h49.76Z"/><path fill="#221742" d="M190 22h-65.927a8.001 8.001 0 0 0-5.503 2.193L80.38 60.391l-5.331-4.753a38 38 0 0 0-13.46-7.748l41.848-39.663A29.997 29.997 0 0 1 124.073 0H190v22Z"/></svg>