<svg xmlns="http://www.w3.org/2000/svg" width="1109" height="85" fill="none"><path fill="#221742" d="M1041.72 84.713c-3.14 0-6.03-.783-8.7-2.35a17.556 17.556 0 0 1-6.34-6.344c-1.57-2.663-2.35-5.562-2.35-8.695v-7.872h18.21v6.932h47.94V51.58h-48.76c-3.14 0-6.03-.783-8.7-2.35-2.66-1.566-4.78-3.642-6.34-6.227-1.57-2.663-2.35-5.6-2.35-8.812V17.506c0-3.211.78-6.11 2.35-8.694a17.556 17.556 0 0 1 6.34-6.345c2.67-1.567 5.56-2.35 8.7-2.35h49.82c3.13 0 5.99.783 8.57 2.35a17.584 17.584 0 0 1 6.35 6.345c1.64 2.585 2.46 5.483 2.46 8.694v7.873h-18.44v-6.933h-47.94v14.805h49c3.13 0 5.99.783 8.57 2.35a17.584 17.584 0 0 1 6.35 6.344c1.64 2.585 2.46 5.483 2.46 8.695v16.684c0 3.133-.82 6.032-2.46 8.695a17.584 17.584 0 0 1-6.35 6.345c-2.58 1.566-5.44 2.35-8.57 2.35h-49.82Zm-133.208.001V0h18.211v66.385h66.385v18.329h-84.596Zm-122.844-.001V17.507c0-3.211.783-6.11 2.35-8.694a17.586 17.586 0 0 1 6.345-6.345c2.663-1.567 5.561-2.35 8.694-2.35h49.701c3.211 0 6.109.783 8.694 2.35a17.601 17.601 0 0 1 6.345 6.345c1.645 2.585 2.467 5.483 2.467 8.694v67.207h-18.446V57.456H803.88v27.258h-18.212Zm18.212-45.587h47.938v-20.68H803.88v20.68ZM700.512 84.713V18.447h-33.133V.117h84.596v18.33h-33.133v66.267h-18.33Zm-143.301 0V.117h78.134v18.33h-59.687V33.25h48.055v18.33h-48.055v14.804h59.687v18.33h-78.134Zm-133.914 0V.117h18.799l28.669 34.191L499.316.118h18.917v84.596h-18.329v-56.75l-29.139 34.778-29.256-34.661v56.632h-18.212Zm-183.738 0v-6.227l30.196-36.07-30.196-36.072V.117h18.916l23.499 27.846L305.238.117h18.917v6.227l-30.314 36.071 30.314 35.954v6.344h-18.917l-23.499-27.728-23.264 27.728h-18.916Zm-99.971 0c-3.133 0-6.031-.783-8.694-2.35a17.601 17.601 0 0 1-6.345-6.344c-1.566-2.663-2.35-5.562-2.35-8.695V17.506c0-3.211.784-6.11 2.35-8.694a17.601 17.601 0 0 1 6.345-6.345c2.663-1.567 5.561-2.35 8.694-2.35h49.818c3.134 0 5.993.783 8.577 2.35a17.586 17.586 0 0 1 6.345 6.345c1.645 2.585 2.468 5.483 2.468 8.694v49.818c0 3.133-.823 6.032-2.468 8.695a17.586 17.586 0 0 1-6.345 6.345c-2.584 1.566-5.443 2.35-8.577 2.35h-49.818Zm.823-18.329h47.938V18.446h-47.938v47.938ZM0 84.713V.117h18.8l47.35 56.398V.117h18.446v84.596H65.797L18.212 28.081v56.632H0Z"/></svg>