<svg xmlns="http://www.w3.org/2000/svg" width="601" height="143" fill="none"><path fill="#221742" fill-rule="evenodd" d="M41.473 138.2c-25.768 0-45.295-23.257-40.836-48.636l7.557-43.022c4.24-24.137 25.207-41.741 49.714-41.741h86.512l-6.492 36.955H67.802a14.17 14.17 0 0 0-13.955 11.717h71.206l-6.017 34.251H47.83c-1.24 7.055 4.189 13.521 11.352 13.521h68.295l-6.492 36.955H41.473Zm93.933 0L158.841 4.8h35.551a18.026 18.026 0 0 1 16.745 11.353l22.377 56.138 11.856-67.49h47.772L269.707 138.2h-37.366a18.026 18.026 0 0 1-16.739-11.337l-21.767-54.462-11.559 65.799h-46.87Zm184.776 0L303.958 4.8h38.632c9.277 0 17.038 7.04 17.942 16.272l6.52 66.652 33.9-72.53a18.027 18.027 0 0 1 16.331-10.393h47.518L387.783 138.2h-67.601ZM529.294.294c-35.152 0-83.825 26.139-83.825 80.22 0 22.533 11.717 62.192 69.403 62.192 42.364 0 85.628-26.139 85.628-79.318C600.5 24.63 573.46.294 529.294.294Zm-2.704 40.56c12.619 0 25.238 9.014 25.238 24.337 0 19.83-15.323 36.955-31.547 36.955-12.619 0-26.139-9.915-26.139-25.238 0-24.336 19.829-36.053 32.448-36.053Z" clip-rule="evenodd"/></svg>