<svg width="1055" height="452" viewBox="0 0 1055 452" fill="none" xmlns="http://www.w3.org/2000/svg"><path d="M938.803 153.434L903.491 188.746L922.602 142.608L913.2 138.714L894.089 184.851V134.912H883.911V184.851L864.8 138.714L855.398 142.608L874.509 188.746L839.197 153.434L832 160.63L889 217.63L946 160.63L938.803 153.434Z" fill="url(#paint0_radial_1_9)"/><path d="M552.902 183.952C593.521 183.952 622.684 211.813 622.685 251.392C622.685 291.229 593.262 319.352 552.902 319.352C512.282 319.352 483.119 290.969 483.119 251.392C483.119 211.813 512.543 183.952 552.902 183.952ZM399.5 184C439.955 184 469 211.779 469 251.241C469 290.961 439.696 319 399.5 319C359.045 319 330 290.702 330 251.241C330 211.779 359.304 184 399.5 184ZM189.156 135C221.183 135 242.795 153.487 242.795 181.088C242.795 197.492 232.119 212.333 218.059 218.322C238.108 224.051 252.95 242.017 252.95 262.848C252.95 295.656 227.172 317.269 189.677 317.269H110V135H189.156ZM310.229 317.269H271.693V135H310.229V317.269ZM800.785 183.952C828.907 183.952 848.957 202.44 848.957 233.164V317.269H810.68V241.497C810.68 226.395 802.867 217.541 790.37 217.541C773.965 217.541 765.113 232.644 765.113 251.913V317.269H726.575V241.497C726.575 226.395 719.286 217.541 706.527 217.541C690.122 217.541 681.009 232.643 681.009 251.913V317.269H642.473V186.035H681.009V201.918C688.56 191.503 703.663 183.952 721.107 183.952C738.294 183.952 753.395 192.025 758.343 203.221C768.238 192.024 784.902 183.952 800.785 183.952ZM552.902 216.5C534.416 216.5 521.916 230.3 521.916 251.392C521.916 272.483 534.415 286.804 552.902 286.804C571.39 286.804 584.146 272.481 584.146 251.392C584.146 230.56 571.388 216.5 552.902 216.5ZM399.5 216.452C381.088 216.452 368.64 230.212 368.64 251.241C368.64 272.27 381.088 286.549 399.5 286.549C417.912 286.549 430.619 272.269 430.619 251.241C430.619 230.471 417.912 216.452 399.5 216.452ZM151.401 282.377H185.511C200.873 282.377 211.549 273.003 211.549 259.724C211.549 246.704 200.873 237.852 185.511 237.852H151.401V282.377ZM151.401 205.304H182.647C194.625 205.304 203.217 198.273 203.217 187.597C203.217 177.182 194.624 169.892 182.647 169.892H151.401V205.304Z" fill="#1D122A"/><defs><radialGradient id="paint0_radial_1_9" cx="0" cy="0" r="1" gradientTransform="matrix(-5.90479e-07 -125.16 119.478 -38.4672 890.174 244.11)" gradientUnits="userSpaceOnUse"><stop offset="0.46" stop-color="#EE2737"/><stop offset="0.635" stop-color="#FC4C02"/><stop offset="0.967843" stop-color="#FF9800"/></radialGradient></defs></svg>
