<svg width="1055" height="452" viewBox="0 0 1055 452" fill="none" xmlns="http://www.w3.org/2000/svg"><path d="M969.803 153.434L934.491 188.746L953.602 142.608L944.2 138.714L925.089 184.851V134.912H914.911V184.851L895.8 138.714L886.398 142.608L905.509 188.746L870.197 153.434L863 160.63L920 217.63L977 160.63L969.803 153.434Z" fill="url(#paint0_radial_1_16)"/><path d="M430.798 183.952C471.418 183.952 500.581 211.813 500.581 251.392C500.581 291.229 471.157 319.352 430.798 319.352C390.178 319.352 361.016 290.969 361.016 251.392C361.016 211.813 390.439 183.952 430.798 183.952ZM583.902 183.952C624.521 183.952 653.684 211.813 653.685 251.392C653.685 291.229 624.262 319.352 583.902 319.352C543.282 319.352 514.119 290.969 514.119 251.392C514.119 211.813 543.543 183.952 583.902 183.952ZM220.156 135C252.183 135 273.795 153.487 273.795 181.088C273.795 197.492 263.119 212.333 249.059 218.322C269.108 224.051 283.95 242.017 283.95 262.848C283.95 295.656 258.172 317.269 220.677 317.269H141V135H220.156ZM341.229 317.269H302.693V135H341.229V317.269ZM831.785 183.952C859.907 183.952 879.957 202.44 879.957 233.164V317.269H841.68V241.497C841.68 226.395 833.867 217.541 821.37 217.541C804.965 217.541 796.113 232.644 796.113 251.913V317.269H757.575V241.497C757.575 226.395 750.286 217.541 737.527 217.541C721.122 217.541 712.009 232.643 712.009 251.913V317.269H673.473V186.035H712.009V201.918C719.56 191.503 734.663 183.952 752.107 183.952C769.294 183.952 784.395 192.025 789.343 203.221C799.238 192.024 815.902 183.952 831.785 183.952ZM430.798 216.5C412.311 216.5 399.813 230.3 399.812 251.392C399.812 272.483 412.311 286.804 430.798 286.804C449.285 286.804 462.044 272.481 462.044 251.392C462.044 230.56 449.285 216.5 430.798 216.5ZM583.902 216.5C565.416 216.5 552.916 230.3 552.916 251.392C552.916 272.483 565.415 286.804 583.902 286.804C602.39 286.804 615.146 272.481 615.146 251.392C615.146 230.56 602.388 216.5 583.902 216.5ZM182.401 282.377H216.511C231.873 282.377 242.549 273.003 242.549 259.724C242.549 246.704 231.873 237.852 216.511 237.852H182.401V282.377ZM182.401 205.304H213.647C225.625 205.304 234.217 198.273 234.217 187.597C234.217 177.182 225.624 169.892 213.647 169.892H182.401V205.304Z" fill="white"/><defs><radialGradient id="paint0_radial_1_16" cx="0" cy="0" r="1" gradientTransform="matrix(-5.90479e-07 -125.16 119.478 -38.4672 921.174 244.11)" gradientUnits="userSpaceOnUse"><stop offset="0.46" stop-color="#EE2737"/><stop offset="0.635" stop-color="#FC4C02"/><stop offset="0.967843" stop-color="#FF9800"/></radialGradient></defs></svg>
