<svg xmlns="http://www.w3.org/2000/svg" width="100" height="32" fill="none"><g fill="#fff" clip-path="url(#a)"><path d="M20.737 24.674c.324-.547.246-.902.246-.902-.28-5.977-3.55-8.592-3.55-8.592.555-.994.131-1.305.278-1.396.148-.091.089-.519.089-.519s-.433-.02-.51.135c-.076.154-.424-.239-1.365.403 0 0-2.898-3.023-8.877-2.763 0 0-.36-.046-.876.326-.516.371 6.482.8 7.319 4.566 0 0-3.669 5.166-2.83 5.146.056.838 4.791-3.355 4.791-3.355 3.826.493 4.963 7.498 5.286 6.95l-.001.001Z"/><path d="M14.2 0 0 11.927l5.423 16.692h17.553l5.423-16.692L14.2 0Zm7.49 26.85H6.71L2.053 12.515 14.2 2.313l12.147 10.202-4.658 14.335Zm13.373.636c-1.398 0-2.615-.445-3.627-1.326v1.157h-1.895V12.07h1.895v5.544c1.005-.876 2.222-1.319 3.627-1.319 1.567 0 2.901.541 3.965 1.606 1.081 1.082 1.63 2.424 1.63 3.99 0 1.565-.541 2.9-1.605 3.965-1.081 1.081-2.424 1.629-3.99 1.629Zm0-9.32c-1.029 0-1.912.362-2.625 1.075a3.627 3.627 0 0 0-1.098 2.65c0 1.029.37 1.896 1.098 2.624.74.74 1.599 1.099 2.625 1.099s1.902-.351 2.625-1.074a3.627 3.627 0 0 0 1.099-2.65c0-1.029-.37-1.896-1.099-2.625-.728-.728-1.611-1.098-2.625-1.098Zm6.21 9.151V16.44h1.895v10.876h-1.895Zm.96-11.758c-.276 0-.555-.104-.827-.308l-.013-.01-.025-.022a1.32 1.32 0 0 1-.383-.88c0-.405.15-1.087 1.168-1.272l.02-.004.041-.003c.379 0 1.015.149 1.256 1.143l.013.054v.053c0 .782-.467 1.249-1.249 1.249h-.001Zm2.155 11.758V16.44h1.895v.514l.063-.059c.424-.381.9-.575 1.415-.575.547 0 1.01.065 1.38.194.364.127.767.35 1.202.663l.35.252-1.03 1.59-.388-.293a2.966 2.966 0 0 0-.713-.398 2.089 2.089 0 0 0-.753-.138.865.865 0 0 0-.513.172 2.156 2.156 0 0 0-.519.52c-.15.212-.273.452-.363.716a2.188 2.188 0 0 0-.133.698v7.02h-1.895.002Zm11.847.169c-1.567 0-2.901-.54-3.965-1.606-1.081-1.08-1.629-2.423-1.629-3.99 0-1.567.54-2.9 1.606-3.965 1.081-1.08 2.424-1.629 3.99-1.629 1.357 0 2.567.443 3.603 1.317v-5.542h1.895v15.246H59.84v-1.128c-1.009.86-2.219 1.295-3.603 1.295l-.002.002Zm0-9.32c-1.03 0-1.912.362-2.625 1.075a3.627 3.627 0 0 0-1.098 2.65c0 1.029.37 1.896 1.098 2.624.739.74 1.599 1.099 2.625 1.099s1.902-.351 2.625-1.074a3.627 3.627 0 0 0 1.099-2.65c0-1.029-.37-1.896-1.099-2.625-.728-.728-1.612-1.098-2.625-1.098Zm10.574 9.343c-1.716 0-3.019-.785-3.873-2.335l-.21-.381 1.622-.974.227.413c.239.437.526.775.855 1.008.33.25.792.375 1.38.375 1.273 0 1.817-.442 1.817-1.478 0-.42-.19-.768-.601-1.099a4.962 4.962 0 0 0-.602-.28 39.45 39.45 0 0 0-1.085-.418c-.859-.31-1.47-.617-1.868-.942-.623-.506-.938-1.233-.938-2.162 0-.803.308-1.498.915-2.068.575-.577 1.34-.87 2.265-.87 1.23 0 2.288.435 3.144 1.29l.344.345-1.41 1.223-.298-.298c-.464-.464-1.045-.688-1.78-.688-.913 0-1.285.31-1.285 1.068 0 .315.116.556.366.76.237.185.665.385 1.233.573.565.2 1.036.388 1.403.563.376.18.668.344.868.489.815.626 1.225 1.47 1.225 2.515 0 1.045-.37 1.827-1.101 2.446-.724.616-1.603.928-2.61.928l-.003-.003Zm5.462-.192v-8.981h-1.352v-1.895h1.352v-4.37h1.895v4.37h2.319v1.895h-2.319v8.98h-1.895Zm9.217.169c-1.567 0-2.901-.54-3.965-1.606-1.082-1.081-1.63-2.423-1.63-3.99 0-1.567.548-2.883 1.63-3.965 1.06-1.095 2.396-1.653 3.965-1.653 1.568 0 2.883.548 3.966 1.629 1.081 1.081 1.629 2.424 1.629 3.99 0 1.565-.54 2.9-1.606 3.964-1.081 1.081-2.424 1.63-3.99 1.63Zm0-9.342c-.996 0-1.87.377-2.598 1.12-.747.747-1.126 1.63-1.126 2.628 0 .997.37 1.896 1.099 2.625.74.738 1.598 1.098 2.625 1.098 1.026 0 1.912-.361 2.625-1.074a3.627 3.627 0 0 0 1.098-2.65c0-1.028-.361-1.935-1.074-2.649-.715-.73-1.606-1.098-2.65-1.098ZM88.615 32V16.44h1.895v1.183c1-.881 2.225-1.327 3.651-1.327 1.567 0 2.902.541 3.965 1.606 1.082 1.081 1.63 2.424 1.63 3.99 0 1.565-.541 2.9-1.606 3.965-1.082 1.081-2.425 1.629-3.99 1.629-1.402 0-2.628-.454-3.651-1.349V32h-1.895.001Zm5.547-13.833c-1.03 0-1.913.361-2.626 1.074a3.627 3.627 0 0 0-1.098 2.65c0 1.029.37 1.896 1.099 2.624.74.739 1.598 1.099 2.624 1.099 1.027 0 1.903-.351 2.626-1.074a3.628 3.628 0 0 0 1.098-2.65c0-1.029-.37-1.896-1.099-2.625-.728-.728-1.613-1.098-2.624-1.098Z"/></g><defs><clipPath id="a"><path fill="#fff" d="M0 0h99.757v32H0z"/></clipPath></defs></svg>