<svg xmlns="http://www.w3.org/2000/svg" width="101" height="32" fill="none"><g clip-path="url(#a)"><path fill="#fff" fill-rule="evenodd" d="M53.424 12.7v12.7H58.2V0h-4.776v12.7ZM9.544 5.836c-4.652.555-7.832 2.808-9.008 6.382a16.861 16.861 0 0 0-.212 5.928c.893 5.16 4.053 7.411 10.633 7.577a23.5 23.5 0 0 0 8.618-1.151l1.157-.388.033-1.733c.03-1.621.019-1.728-.175-1.65-6.49 2.59-12.629 1.977-14.638-1.463a6.323 6.323 0 0 1-.865-3.506 5.663 5.663 0 0 1 .88-3.9C8.039 8.731 14.53 8.22 20.412 10.8c.113.049.146-.321.146-1.645V7.446l-.629-.278A25.183 25.183 0 0 0 9.544 5.836Zm24.591.008c-2.63.282-5.227.806-7.761 1.564-.223.138-.114 3.344.11 3.248a33.87 33.87 0 0 1 9.22-1.8c5.519.007 8.161 1.182 8.206 3.65l.015.836-4.895.068a51.359 51.359 0 0 0-6.177.268c-5.816.9-8.827 3.473-8.238 7.03.369 2.224 1.979 3.7 4.859 4.447 3.881 1.009 13.959.711 18.652-.552l.461-.124-.06-6.734c-.068-7.52-.041-7.268-.915-8.619-1.686-2.605-6.823-3.858-13.477-3.282Zm52.156-.013c-6.925.848-10.439 4.845-9.8 11.146.422 4.169 2.047 6.6 5.227 7.83 3.814 1.471 11.918 1.218 16.636-.519l.467-.172-.036-1.606-.035-1.61-1.131.395a22.659 22.659 0 0 1-7.719 1.311c-4.83 0-7.4-1.106-8.394-3.609a4.849 4.849 0 0 1-.4-1.66l-.07-.554h19.124v-1.056c0-5.362-2.968-8.727-8.574-9.727a25.443 25.443 0 0 0-5.295-.169Zm-22.644 4.862c-2.858 2.484-5.187 4.552-5.175 4.6.012.048 2.617 2.337 5.788 5.1l5.766 5.02h3.319c1.07.035 2.142.002 3.208-.1a63.668 63.668 0 0 0-1.276-.961c-1.156-.857-4.5-3.449-8.864-6.867l-1.853-1.446a3.875 3.875 0 0 1-.854-.781c.018-.051 1.265-1.068 2.772-2.261L72.1 8.543c1.586-1.255 2.885-2.3 2.885-2.324 0-.024-1.382-.042-3.071-.042h-3.07l-5.197 4.516ZM90.37 8.977c3.03.472 5.13 2.361 5.13 4.613v.4h-7.173c-7.983 0-7.377.072-7.168-.859.697-3.116 4.597-4.873 9.211-4.154Zm-46.413 9.981c.026 2.242 0 2.728-.139 2.869-.5.5-7.22 1.042-9.566.778-2.545-.287-4.564-1.213-4.823-2.213-.487-1.879.583-3.086 3.308-3.731 1.56-.369 2.626-.432 6.993-.417l4.2.014.027 2.7Z" clip-rule="evenodd"/></g><defs><clipPath id="a"><path fill="#fff" d="M0 0h100.32v31.584H0z"/></clipPath></defs></svg>