<svg xmlns="http://www.w3.org/2000/svg" width="152" height="40" fill="none"><path fill="#F4F3F3" d="M59.035.318v3.803h-9.443v3.248h8.587v3.576h-8.587v3.5h9.418v3.802H45.337V.319h13.698zm5.315 17.929h-3.93V.319h3.929v17.93zm14.783-6.119v.781h-9.62c.127.906.454 1.586.983 2.04.504.478 1.183.705 1.99.705 1.258 0 2.14-.479 2.618-1.46h3.727c-.353 1.36-1.108 2.417-2.241 3.197-1.159.781-2.518 1.159-4.105 1.159-2.014 0-3.651-.605-4.885-1.864-1.26-1.234-1.863-2.87-1.863-4.935 0-2.065.604-3.702 1.838-4.936 1.209-1.234 2.82-1.863 4.86-1.863 2.014 0 3.626.654 4.885 1.939 1.209 1.31 1.813 3.072 1.813 5.237zm-6.749-4.28c-1.611 0-2.568.856-2.845 2.568h5.741c-.15-.806-.453-1.435-.957-1.889-.503-.453-1.158-.68-1.939-.68zM86.737 18.55c-2.04 0-3.65-.605-4.86-1.864-1.208-1.234-1.813-2.87-1.813-4.935 0-2.065.605-3.727 1.814-4.961 1.208-1.209 2.82-1.838 4.86-1.838 1.762 0 3.223.478 4.356 1.41 1.133.932 1.788 2.19 1.99 3.777H89.18c-.227-1.31-1.032-1.99-2.443-1.99-1.813 0-2.694 1.21-2.694 3.602s.881 3.575 2.694 3.575c1.511 0 2.342-.73 2.519-2.19h3.903c-.126 1.662-.78 2.971-1.94 3.953-1.183.982-2.668 1.46-4.481 1.46zM101.54 5.254v2.87h-2.493v6.07c0 .452.1.755.327.906.202.15.605.226 1.159.226h1.007v2.921c-.478.076-1.083.101-1.813.101-1.637 0-2.82-.277-3.526-.856-.73-.58-1.082-1.536-1.082-2.87V8.124h-1.94v-2.87h1.94V1.4h3.928v3.853h2.493zm8.82-.202c.05 0 .353.026.856.05V8.68h-1.007c-2.317 0-3.45 1.183-3.45 3.525v6.043h-3.928V5.254h3.827V7.67c.605-1.737 1.839-2.619 3.702-2.619zm5.93-1.284h-3.752V.444h3.752v3.324zm.075 14.48h-3.928V5.253h3.928v12.993zm8.06.302c-2.039 0-3.651-.605-4.86-1.864-1.208-1.234-1.813-2.87-1.813-4.935 0-2.065.605-3.727 1.813-4.961 1.209-1.209 2.821-1.838 4.86-1.838 1.763 0 3.223.478 4.357 1.41 1.133.932 1.788 2.19 1.989 3.777h-3.903c-.227-1.31-1.033-1.99-2.443-1.99-1.813 0-2.694 1.21-2.694 3.602s.881 3.575 2.694 3.575c1.511 0 2.342-.73 2.518-2.19h3.904c-.126 1.662-.781 2.971-1.939 3.953-1.184.982-2.67 1.46-4.483 1.46zM53.772 40c-2.744 0-4.96-.856-6.648-2.569-1.712-1.712-2.543-3.978-2.543-6.799 0-2.795.831-5.061 2.543-6.799 1.688-1.712 3.904-2.568 6.648-2.568 2.72 0 4.936.856 6.648 2.568 1.687 1.738 2.544 4.004 2.544 6.8 0 2.82-.857 5.086-2.544 6.799C58.708 39.144 56.492 40 53.772 40zm-3.45-5.213c.857 1.008 1.99 1.511 3.45 1.511 1.41 0 2.569-.503 3.475-1.51.856-.983 1.31-2.368 1.31-4.156 0-1.762-.454-3.147-1.31-4.155-.906-1.007-2.065-1.51-3.475-1.51-1.46 0-2.593.503-3.45 1.51-.88 1.008-1.309 2.393-1.309 4.155 0 1.788.428 3.173 1.31 4.155zm22.471-.931v-7.253h3.928v12.994h-3.827V37.76c-1.008 1.435-2.367 2.14-4.08 2.14-1.385 0-2.493-.403-3.298-1.234-.806-.83-1.21-2.014-1.21-3.55v-8.512h3.93v7.731c0 1.486.68 2.216 2.09 2.216.704 0 1.284-.226 1.762-.705.453-.453.705-1.133.705-1.99zm13.321-7.253v2.871h-2.493v6.069c0 .453.101.755.328.906.201.151.604.227 1.158.227h1.007v2.921c-.478.076-1.083.1-1.813.1-1.637 0-2.82-.276-3.525-.855-.73-.58-1.083-1.536-1.083-2.871v-6.497h-1.939v-2.87h1.939V22.75h3.928v3.852h2.493zm9.985 1.562v-6.497h3.928v17.93h-3.828V37.91c-.881 1.335-2.19 1.99-3.903 1.99-1.763 0-3.122-.605-4.13-1.839-1.032-1.209-1.536-2.87-1.536-4.96 0-2.066.504-3.728 1.536-4.961 1.008-1.21 2.367-1.839 4.13-1.839 1.637 0 2.896.63 3.803 1.864zm-2.72 8.587c1.863 0 2.795-1.21 2.795-3.652 0-2.417-.932-3.651-2.795-3.651-.881 0-1.561.327-2.04.982-.503.655-.73 1.561-.73 2.77 0 2.367.907 3.55 2.77 3.55zM108.2 39.9c-2.064 0-3.726-.605-4.96-1.864-1.259-1.234-1.864-2.87-1.864-4.936 0-2.065.605-3.702 1.864-4.96 1.208-1.21 2.87-1.839 4.96-1.839 2.065 0 3.727.63 4.961 1.839 1.209 1.233 1.838 2.895 1.838 4.96s-.629 3.727-1.838 4.936c-1.259 1.259-2.896 1.863-4.961 1.863zm0-3.148c.907 0 1.587-.303 2.091-.932.478-.605.73-1.511.73-2.72 0-1.183-.252-2.09-.73-2.72-.504-.604-1.184-.931-2.091-.931-.931 0-1.636.327-2.115.932-.503.63-.73 1.536-.73 2.72 0 1.208.227 2.114.73 2.719.479.63 1.184.932 2.115.932zm14.451 3.148c-2.065 0-3.727-.605-4.96-1.864-1.26-1.234-1.864-2.87-1.864-4.936 0-2.065.604-3.702 1.864-4.96 1.208-1.21 2.87-1.839 4.96-1.839 2.065 0 3.727.63 4.961 1.839 1.209 1.233 1.838 2.895 1.838 4.96s-.629 3.727-1.838 4.936c-1.259 1.259-2.896 1.863-4.961 1.863zm0-3.148c.907 0 1.587-.303 2.09-.932.479-.605.731-1.511.731-2.72 0-1.183-.252-2.09-.731-2.72-.503-.604-1.183-.931-2.09-.931-.931 0-1.636.327-2.115.932-.504.63-.73 1.536-.73 2.72 0 1.208.226 2.114.73 2.719.479.63 1.184.932 2.115.932zm15.685-10.35c.05 0 .353.025.856.05v3.576h-1.007c-2.317 0-3.45 1.184-3.45 3.526v6.043h-3.928V26.603h3.827v2.418c.605-1.738 1.839-2.62 3.702-2.62zm7.419 13.573c-2.065 0-3.576-.353-4.583-1.058-1.008-.705-1.562-1.863-1.662-3.45h3.827c.051.705.277 1.184.655 1.46.378.303.982.429 1.838.429 1.461 0 2.191-.403 2.191-1.26 0-.402-.176-.704-.478-.906-.328-.201-.907-.377-1.763-.529l-1.687-.276c-2.921-.454-4.382-1.763-4.382-3.98 0-1.309.504-2.316 1.511-3.021 1.007-.705 2.443-1.083 4.331-1.083 3.878 0 5.893 1.486 6.044 4.457h-3.652c-.025-1.208-.831-1.838-2.392-1.838-1.334 0-1.989.428-1.989 1.234a.96.96 0 0 0 .453.856c.302.202.781.353 1.435.453l1.939.277c1.562.252 2.695.68 3.45 1.335.731.655 1.108 1.561 1.108 2.694 0 1.36-.554 2.393-1.637 3.123-1.082.73-2.593 1.083-4.557 1.083z"/><path fill="#C6FA58" d="M21.017 6.03c.087-.062.13-.093.167-.091a.107.107 0 0 1 .08.041c.023.03.023.083.023.19v7.152c0 .06 0 .09.012.113.01.02.026.037.046.047.023.012.053.012.113.012h7.196c.164 0 .246 0 .277.03a.107.107 0 0 1 .031.098c-.008.042-.075.09-.21.184l-7.392 5.198a.239.239 0 0 0-.05.04.108.108 0 0 0-.019.037c-.004.015-.004.03-.004.063v1.833c0 .06 0 .09.012.113a.11.11 0 0 0 .046.047c.023.011.053.011.113.011h7.196c.164 0 .246 0 .277.03a.107.107 0 0 1 .031.099c-.008.042-.075.089-.21.183l-7.392 5.2a.222.222 0 0 0-.05.04.107.107 0 0 0-.019.036c-.004.015-.004.031-.004.064v6.97c0 .06 0 .09-.012.113a.108.108 0 0 1-.047.047c-.023.011-.053.011-.113.011h-2.633c-.06 0-.09 0-.113-.011a.107.107 0 0 1-.047-.047c-.012-.023-.012-.053-.012-.113V21.32c0-.06 0-.09-.011-.113a.108.108 0 0 0-.047-.047c-.023-.012-.053-.012-.113-.012h-7.196c-.164 0-.246 0-.277-.029a.107.107 0 0 1-.031-.1c.008-.041.075-.088.21-.183l7.392-5.198a.232.232 0 0 0 .05-.04.107.107 0 0 0 .019-.036c.004-.015.004-.032.004-.064v-1.833c0-.06 0-.09-.011-.113a.107.107 0 0 0-.047-.047c-.023-.011-.053-.011-.113-.011h-7.196c-.164 0-.246 0-.277-.03a.107.107 0 0 1-.031-.099c.008-.042.075-.089.21-.183l10.171-7.153z"/><path fill="#C6FA58" fill-rule="evenodd" d="M19.89 37.225c9.574 0 17.335-7.761 17.335-17.335 0-9.574-7.761-17.335-17.335-17.335-9.574 0-17.335 7.76-17.335 17.335 0 9.574 7.76 17.335 17.335 17.335zm0 2.554c10.985 0 19.89-8.904 19.89-19.89C39.78 8.906 30.874 0 19.89 0 8.905 0 0 8.905 0 19.89c0 10.985 8.905 19.89 19.89 19.89z" clip-rule="evenodd"/></svg>