<svg xmlns="http://www.w3.org/2000/svg" aria-hidden="true" data-bbox="65.9 45 948.45 171.08" data-type="color" viewBox="65.9 45 948.45 171.08"><g fill="#fff"><path d="M279.94 132.3v-3.71c0-30.93 10.31-40.89 43.33-40.89 33.13 0 42.63 5.45 42.17 30.24l-25.72.46h-.12c.23-5.67-1.04-7.76-15.52-7.76s-17.38 3.24-17.38 19.58v.46c0 17.26 2.9 20.62 16.57 20.62 15.52 0 17.49-1.04 17.49-6.02v-.81h-25.14v-18.19h50.16c-.12 3.94-.12 9.96-.12 12.4 0 29.08-9.27 34.52-42.4 34.52-33.01 0-43.32-10.08-43.32-40.9m96.16-28.49c0-5.79 0-10.31-.12-14.48h49.81c23.17 0 33.83 6.95 33.83 29.31v.35c0 14.02-3.59 22.24-12.86 26.65 1.74 3.01 3.48 6.14 5.21 9.5 2.9 5.68 6.02 11.35 8.92 16.45h-27.57c-1.39-3.01-3.24-6.83-5.33-10.77l-5.33-9.96h-20.62v3.24c0 7.3 0 12.51.12 17.49h-26.18c.12-4.87.12-10.08.12-17.38zm25.95 7.06v18.65h17.49c10.31 0 13.67-2.32 13.67-9.5v-.23c0-6.6-3.36-8.92-13.21-8.92zm63.96 21.43v-3.71c0-30.93 10.31-40.89 43.56-40.89 33.36 0 43.56 9.96 43.56 40.89v3.71c0 30.82-10.19 40.89-43.56 40.89-33.25.01-43.56-10.07-43.56-40.89m60.35-1.62v-.46c0-16.33-2.78-19.58-16.8-19.58-13.9 0-16.8 3.24-16.8 19.58v.46c0 16.33 2.9 19.69 16.8 19.69 14.02 0 16.8-3.36 16.8-19.69m118.41-27.11v8.46c0 5.56.12 14.13.12 23.28 0 29.54-8.69 37.88-41.13 37.88-32.32 0-41.13-8.23-41.13-37.88 0-9.27.12-17.84.12-23.4v-8.46c0-5.68 0-10.31-.12-14.13h26.18c-.12 3.59-.12 8.57-.12 14.13v30.47c0 14.25 3.48 16.45 15.06 16.45s15.06-2.2 15.06-16.45v-30.7c0-5.56 0-10.43-.12-13.9h26.18c-.1 3.83-.1 8.58-.1 14.25m12.28 51.09v-51.2c0-5.68 0-9.96-.12-14.13h39.04l7.76 21.66c4.87 13.67 10.08 28.73 13.21 38.11-.12-13.79-.35-29.77-.35-34.87 0-8.11 0-15.75-.12-24.91h23.63c-.1 4.17-.1 8.58-.1 14.25v50.51c0 7.3 0 12.51.12 17.49h-39.04l-9.5-26.3c-4.87-13.67-8.22-24.1-11.47-33.83.12 13.09.35 30.47.35 35.22 0 8.11 0 15.64.12 24.91h-23.63c.1-4.86.1-9.84.1-16.91m96.17-51.09c0-5.67 0-10.08-.12-14.25h42.98c32.21 0 42.4 9.96 42.4 39.27v3.71c0 29.31-10.19 39.27-42.4 39.27H753.1c.12-4.98.12-10.19.12-17.49zm25.94 8.23v37.3h16.91c12.74 0 15.64-3.36 15.64-18.42v-.46c0-14.94-2.9-18.42-15.64-18.42zm69.87-7.99c0-5.79 0-10.31-.12-14.48h68.7v21.32c-8.11-.12-28.38-.12-41.13-.12h-1.51v9.38h37.3v20.04c-5.79-.12-24.21-.12-33.48-.12h-3.82v10.54h2.66c12.74 0 32.09 0 41.36-.12v21.32H848.9c.12-4.87.12-10.08.12-17.38v-50.38zm80.06-.24c0-5.67 0-10.08-.12-14.25h42.98c32.21 0 42.4 9.96 42.4 39.27v3.71c0 29.31-10.19 39.27-42.4 39.27h-42.98c.12-4.98.12-10.19.12-17.49zm25.95 8.23v37.3h16.91c12.74 0 15.64-3.36 15.64-18.42v-.46c0-14.94-2.9-18.42-15.64-18.42zm-722.95 18.81h-32.5c-2.82 0-5.1 2.28-5.1 5.1v32.5c0 .02.01.03.01.05l-.01-.01-.01.01a5.06 5.06 0 0 1-5.06 5.06h-75.44a5.06 5.06 0 0 1-5.06-5.06V92.8a5.06 5.06 0 0 1 5.06-5.06h75.45a5.06 5.06 0 0 0 5.06-5.06V50.06a5.06 5.06 0 0 0-5.06-5.06h-75.45a5.06 5.06 0 0 0-5.06 5.06v32.62l-.01.01a5.06 5.06 0 0 1-5.06 5.06H71.23a5.06 5.06 0 0 0-5.06 5.06v75.45a5.06 5.06 0 0 0 5.06 5.06h32.62l-.01.01h.01a5.06 5.06 0 0 1 5.06 5.06v32.62a5.06 5.06 0 0 0 5.06 5.06h75.45a5.06 5.06 0 0 0 5.06-5.06v-32.62a5.06 5.06 0 0 1 5.06-5.06h.01l-.01-.01c.02 0 .03.01.05.01h32.5c2.82 0 5.1-2.28 5.1-5.1v-32.5a5.1 5.1 0 0 0-5.1-5.12" data-color="1"/><path d="M279.66 132.3v-3.71c0-30.93 10.31-40.89 43.33-40.89 33.13 0 42.63 5.45 42.17 30.24l-25.72.46h-.12c.23-5.67-1.04-7.76-15.52-7.76s-17.38 3.24-17.38 19.58v.46c0 17.26 2.9 20.62 16.57 20.62 15.52 0 17.49-1.04 17.49-6.02v-.81h-25.14v-18.19h50.16c-.12 3.94-.12 9.96-.12 12.4 0 29.08-9.27 34.52-42.4 34.52-33.01 0-43.32-10.08-43.32-40.9m96.16-28.49c0-5.79 0-10.31-.12-14.48h49.81c23.17 0 33.83 6.95 33.83 29.31v.35c0 14.02-3.59 22.24-12.86 26.65 1.74 3.01 3.48 6.14 5.21 9.5 2.9 5.68 6.02 11.35 8.92 16.45h-27.57c-1.39-3.01-3.24-6.83-5.33-10.77l-5.33-9.96h-20.62v3.24c0 7.3 0 12.51.12 17.49H375.7c.12-4.87.12-10.08.12-17.38zm25.95 7.06v18.65h17.49c10.31 0 13.67-2.32 13.67-9.5v-.23c0-6.6-3.36-8.92-13.21-8.92zm63.96 21.43v-3.71c0-30.93 10.31-40.89 43.56-40.89 33.36 0 43.56 9.96 43.56 40.89v3.71c0 30.82-10.19 40.89-43.56 40.89-33.25.01-43.56-10.07-43.56-40.89m60.36-1.62v-.46c0-16.33-2.78-19.58-16.8-19.58-13.9 0-16.8 3.24-16.8 19.58v.46c0 16.33 2.9 19.69 16.8 19.69 14.02 0 16.8-3.36 16.8-19.69m118.4-27.11v8.46c0 5.56.12 14.13.12 23.28 0 29.54-8.69 37.88-41.13 37.88-32.32 0-41.13-8.23-41.13-37.88 0-9.27.12-17.84.12-23.4v-8.46c0-5.68 0-10.31-.12-14.13h26.18c-.12 3.59-.12 8.57-.12 14.13v30.47c0 14.25 3.48 16.45 15.06 16.45s15.06-2.2 15.06-16.45v-30.7c0-5.56 0-10.43-.12-13.9h26.18c-.1 3.83-.1 8.58-.1 14.25m12.29 51.09v-51.2c0-5.68 0-9.96-.12-14.13h39.04l7.76 21.66c4.87 13.67 10.08 28.73 13.21 38.11-.12-13.79-.35-29.77-.35-34.87 0-8.11 0-15.75-.12-24.91h23.63c-.12 4.17-.12 8.57-.12 14.25v50.51c0 7.3 0 12.51.12 17.49H700.8l-9.5-26.3c-4.87-13.67-8.22-24.1-11.47-33.83.12 13.09.35 30.47.35 35.22 0 8.11 0 15.64.12 24.91h-23.63c.11-4.86.11-9.84.11-16.91m96.16-51.09c0-5.67 0-10.08-.12-14.25h42.98c32.21 0 42.4 9.96 42.4 39.27v3.71c0 29.31-10.19 39.27-42.4 39.27h-42.98c.12-4.98.12-10.19.12-17.49zm25.95 8.23v37.3h16.91c12.74 0 15.64-3.36 15.64-18.42v-.46c0-14.94-2.9-18.42-15.64-18.42zm69.86-7.99c0-5.79 0-10.31-.12-14.48h68.7v21.32c-8.11-.12-28.38-.12-41.13-.12h-1.51v9.38h37.3v20.04c-5.79-.12-24.21-.12-33.48-.12h-3.82v10.54h2.66c12.74 0 32.09 0 41.36-.12v21.32h-70.09c.12-4.87.12-10.08.12-17.38v-50.38zm80.06-.24c0-5.67 0-10.08-.12-14.25h42.98c32.21 0 42.4 9.96 42.4 39.27v3.71c0 29.31-10.19 39.27-42.4 39.27H928.7c.12-4.98.12-10.19.12-17.49v-50.51zm25.95 8.23v37.3h16.91c12.74 0 15.64-3.36 15.64-18.42v-.46c0-14.94-2.9-18.42-15.64-18.42zm-722.94 18.81h-32.5c-2.82 0-5.1 2.28-5.1 5.1v32.5c0 .02.01.03.01.05l-.01-.01-.01.01a5.06 5.06 0 0 1-5.06 5.06h-75.44a5.06 5.06 0 0 1-5.06-5.06V92.8a5.06 5.06 0 0 1 5.06-5.06h75.45a5.06 5.06 0 0 0 5.06-5.06V50.07a5.06 5.06 0 0 0-5.06-5.06h-75.45a5.06 5.06 0 0 0-5.06 5.06v32.62l-.01.01a5.06 5.06 0 0 1-5.06 5.06H70.96a5.06 5.06 0 0 0-5.06 5.06v75.45a5.06 5.06 0 0 0 5.06 5.06h32.62l-.01.01h.01a5.06 5.06 0 0 1 5.06 5.06v32.62a5.06 5.06 0 0 0 5.06 5.06h75.45a5.06 5.06 0 0 0 5.06-5.06V178.4a5.06 5.06 0 0 1 5.06-5.06h.01l-.01-.01c.02 0 .03.01.05.01h32.5c2.82 0 5.1-2.28 5.1-5.1v-32.5c0-2.85-2.29-5.13-5.1-5.13" data-color="1"/></g></svg>