<svg xmlns="http://www.w3.org/2000/svg" id="Layer_1" viewBox="0 0 1655.857 170.026"><defs><style>.cls-1{fill:#fff}</style></defs><path d="M0 155.034V22.482h54.365l50.894 92.359L155.9 22.36h54.881v132.725h-39.834V66.07l-47.173 89.384H86.468l-46.25-87.608v87.188H0zM478.474 20.101c-20.709 0-81.52 5.246-81.52 68.777s60.811 68.777 81.52 68.777 81.52-5.246 81.52-68.777-60.811-68.777-81.52-68.777Zm0 101.547c-9.867 0-38.841-2.5-38.841-32.77s28.974-32.77 38.84-32.77 38.842 2.5 38.842 32.77-28.974 32.77-38.841 32.77ZM304.603 20.101c-20.709 0-81.52 5.246-81.52 68.777s60.811 68.777 81.52 68.777 81.52-5.246 81.52-68.777-60.811-68.777-81.52-68.777Zm0 101.547c-9.867 0-38.841-2.5-38.841-32.77s28.974-32.77 38.841-32.77 38.841 2.5 38.841 32.77-28.974 32.77-38.841 32.77Zm266.931 33.438V22.384h53.715l63.755 49.82V22.347h39.776v132.739h-39.804v-36.292l-76.902-58.213v94.505h-40.54zm300.689-68.46c11.377-4.496 16.9-13.679 16.9-30.26 0-26.124-13.71-33.884-42.42-33.884h-98.934v132.604h101.269c30.196 0 44.615-8.132 44.615-35.51 0-19.064-6.99-28.796-21.43-32.95Zm-84.04-30.717h45.785c8.492 0 14.615 3.01 14.615 9.778s-6.123 9.777-14.615 9.777h-45.784V55.91Zm49.044 65.714h-49.043v-20.947h49.043c9.096 0 15.655 3.225 15.655 10.474s-6.56 10.473-15.655 10.473Zm72.744-98.885h39.727V155.08h-39.727zm57.399.066h40.032v49.082h21.631a8 8 0 0 0 5.786-2.475l44.832-46.955h49.167l-60.857 64.701 63.63 67.929h-50.38l-46.139-47.002a8 8 0 0 0-5.709-2.395h-21.468v49.397H967.37V22.804Z" class="cls-1"/><path d="M1140.667 22.482v52.443h-31.678v26.933h32.067v53.228h136.1v-32.579h-95.278v-20.97h90.164V74.629h-90.093V55.08h95.208V22.483h-136.49zM1419.902 59.7l9.967-27.602s-25.046-12.267-66.449-12.267-72.071 13.034-72.071 42.425c0 59.803 99.417 35.524 99.417 54.436 0 10.223-21.723 10.99-32.457 10.99-31.435 0-57.248-12.012-57.248-12.012l-9.968 27.602s25.046 14.383 66.45 14.383c49.2 0 75.08-16.12 75.08-44.54 0-62.83-100.887-30.293-100.887-54.437 0-10.223 20.183-10.315 30.917-10.315 31.436 0 57.249 11.337 57.249 11.337Zm202.235 15.35C1594.51 25.005 1580.362-.016 1563.99 0c-16.372-.015-30.52 25.006-58.147 75.05-26.645 48.264-39.789 72.664-31.014 85.772 5.792 8.651 16.456 9.589 89.16 9.1 72.706.489 83.37-.449 89.162-9.1 8.774-13.108-4.37-37.508-31.014-85.773Zm-38.831.049c-1.735-1.305-4.266-.719-5.209 1.207l-10.7 21.849c-.805 1.643-2.774 2.408-4.522 1.756l-19.324-7.207a5.989 5.989 0 0 0-5.656.797l-28.812 21.478c26.175-50.902 45.37-84.837 54.907-84.837 8.116 0 23.23 24.585 43.691 63.291l-24.375-18.335Z" class="cls-1"/></svg>