<svg xmlns="http://www.w3.org/2000/svg" width="99" height="20" fill="none"><path fill="#000" d="M72.318.043c-.364.107-.759.447-.91.785-.46 1.027.148 2.17 1.194 2.24.81.056 1.516-.654 1.516-1.53 0-.5-.27-1.033-.661-1.302-.31-.213-.795-.293-1.14-.193ZM1.635.43c-.011.008-.02.831-.02 1.823v1.804H0v2.459h1.615v2.931c0 2.915.014 3.48.102 4.023.06.387.116.576.238.84.315.672.862 1.045 1.754 1.198.428.073 1.332.07 1.916-.003.218-.028.47-.06.56-.07l.162-.018v-1.286c0-.707-.008-1.283-.017-1.283-.011 0-.142.034-.292.076-.246.07-.314.08-.753.08-.431 0-.493-.006-.595-.06-.142-.07-.227-.235-.267-.506-.014-.116-.028-1.38-.028-3.061l-.003-2.861h1.955v-2.46H4.392V.41H3.023c-.753 0-1.38.009-1.388.02ZM22.13.456c-.023.06-.023 13.259.003 14.172l.017.729h2.815v-3.871l.485-.483c.296-.294.493-.47.507-.453.023.025.488.78 1.443 2.34.16.258.565.918.901 1.469l.613.998h1.717c.947 0 1.72-.009 1.72-.017 0-.014-1.28-2-3.588-5.556l-.807-1.248 2.119-2.09 2.119-2.09-1.811-.003h-1.81l-1.797 1.874L24.979 8.1l-.009-3.846L24.965.41h-1.41c-1.257 0-1.41.006-1.425.046Zm36.223 7.395v7.441h2.715v-.333c0-.18.009-.359.017-.393.017-.062.026-.059.166.068.537.48 1.369.816 2.232.904.434.042 1.46.025 1.743-.031.88-.172 1.517-.514 2.171-1.16.426-.419.635-.71.915-1.266.446-.884.666-1.872.686-3.041.011-.72-.012-1.06-.115-1.624-.237-1.288-.714-2.262-1.483-3.024-.831-.82-1.786-1.232-3.046-1.31-1.14-.074-2.143.236-2.949.914l-.194.161V.41h-2.857v7.441Zm5.901-1.299c.24.065.572.243.797.427.57.463.958 1.268 1.075 2.228.031.254.04 1.042.011 1.228-.103.717-.183 1.017-.383 1.412-.291.57-.8 1.036-1.328 1.206-.192.062-.297.076-.663.087-.526.014-.763-.028-1.112-.206-1.049-.53-1.586-1.722-1.514-3.36.045-1.124.337-1.937.891-2.488a1.46 1.46 0 0 1 .5-.359 2.61 2.61 0 0 1 .783-.228c.175-.026.775.008.943.053ZM77.6 7.884v7.473h2.776v-3.871l.486-.488.482-.485 1.458 2.422 1.459 2.422h1.694c1.368 0 1.688-.006 1.677-.037-.014-.037-.583-.933-3.054-4.813L83.32 8.536l2.081-2.09 2.084-2.09h-3.561l-1.767 1.871L80.39 8.1l-.008-3.843L80.376.41H77.6v7.474ZM13.528 4.111c-1.528.09-2.905.802-3.789 1.953-.539.7-.92 1.644-1.072 2.66a10.057 10.057 0 0 0-.046 1.79c.138 1.474.63 2.625 1.508 3.522.993 1.016 2.307 1.526 3.936 1.526 2.544 0 4.474-1.405 5.145-3.74.201-.701.241-1.053.241-2.057 0-.845-.026-1.09-.186-1.717-.301-1.187-.9-2.153-1.764-2.834-1.059-.833-2.378-1.201-3.973-1.103Zm1.17 2.474c.652.18 1.24.706 1.555 1.387.284.62.425 1.545.347 2.316-.126 1.278-.645 2.187-1.497 2.628-.31.16-.625.226-1.064.226-.703 0-1.139-.17-1.623-.63-.574-.547-.884-1.332-.967-2.466-.037-.467.075-1.25.247-1.759.32-.942 1.006-1.587 1.864-1.747.295-.054.863-.034 1.139.045Zm35.487-2.474c-1.688.107-3.128.912-4.002 2.238-.481.729-.808 1.702-.914 2.727-.043.428-.017 1.47.046 1.874.146.935.456 1.754.922 2.449.273.402.863.996 1.255 1.255.9.6 1.788.87 2.968.904 1.332.04 2.357-.226 3.305-.85 1.298-.853 2.068-2.184 2.292-3.955.057-.461.057-1.396 0-1.857-.22-1.75-1.003-3.096-2.3-3.949-.971-.639-2.186-.923-3.572-.836Zm.948 2.435c.484.084.796.25 1.186.633.183.18.315.34.403.492.66 1.118.714 2.902.127 4.07-.215.43-.421.693-.728.932-.438.343-.83.473-1.444.473-.555 0-.905-.096-1.3-.36-.733-.49-1.166-1.371-1.275-2.596-.069-.81.106-1.75.447-2.38.536-.991 1.478-1.453 2.584-1.264Zm42.016-2.434a4.821 4.821 0 0 0-2.88 1.258c-.951.869-1.588 2.143-1.78 3.58-.055.406-.052 1.438.002 1.886.219 1.752.969 3.074 2.215 3.904.832.557 1.784.822 2.94.822 1.831 0 3.314-.749 4.225-2.133.265-.402.503-.962.614-1.434l.04-.175H95.78l-.09.16c-.16.282-.367.56-.529.712-.165.155-.457.307-.735.383-.23.062-.972.087-1.259.04-1.01-.161-1.718-.991-1.874-2.204l-.025-.188h7.369l.026-.191c.011-.104.023-.512.023-.906-.003-.782-.023-.96-.188-1.575-.272-1.022-.764-1.882-1.462-2.566-1.054-1.027-2.35-1.485-3.888-1.373Zm1 2.456c.641.177 1.195.695 1.465 1.37.065.163.19.594.19.653 0 .011-1.017.022-2.258.022-1.602 0-2.258-.008-2.258-.03 0-.018.026-.13.057-.251.25-.97.963-1.66 1.86-1.8.225-.034.756-.012.943.036ZM33.578 4.325c0 .014.273.767.61 1.671.333.904 1.221 3.301 1.968 5.325l1.36 3.68-.178.556c-.311.978-.47 1.214-.903 1.325-.251.066-.604.051-1.162-.042a12.011 12.011 0 0 0-.556-.086c-.057 0-.057.026-.057 1.28 0 .702.003 1.279.009 1.279.003 0 .185.026.404.06.502.074 1.712.108 2.068.054 1.088-.157 1.9-.793 2.475-1.934.253-.5.775-1.904 2.731-7.349 1.114-3.096 2.04-5.657 2.053-5.694.069-.157.151-.148-1.45-.148h-1.48l-.145.446c-.524 1.604-2.202 6.681-2.213 6.701-.009.014-.564-1.586-1.233-3.554l-1.214-3.579-1.543-.008c-.849-.003-1.544.005-1.544.017Zm37.674 5.504v5.528h2.866V4.3h-2.866v5.528Z"/></svg>