<svg xmlns="http://www.w3.org/2000/svg" width="1890" height="379" style="shape-rendering:geometricPrecision;text-rendering:geometricPrecision;image-rendering:optimizeQuality;fill-rule:evenodd;clip-rule:evenodd"><path fill="#fefffe" d="M336.5-.5h44c-.167 34.335 0 68.668.5 103 16.446-20.637 37.946-30.637 64.5-30 50.414.91 77.914 26.576 82.5 77 .5 43.999.667 87.999.5 132h-44c.167-40.001 0-80.001-.5-120-4.796-41.659-27.63-57.492-68.5-47.5-16.467 7.405-26.967 19.905-31.5 37.5a112.73 112.73 0 0 0-3 19c-.5 36.998-.667 73.998-.5 111h-44V-.5Z" style="opacity:.987"/><path fill="#fefffe" d="M996.5-.5h45v282h-45V-.5Z" style="opacity:.971"/><path fill="#fefffe" d="M637.5 72.5c25.872-2.659 50.205 2.174 73 14.5 28.974 20.444 43.307 48.611 43 84.5a321.6 321.6 0 0 1-1 16h-155c-.873 25.781 10.127 44.281 33 55.5 18.447 6.722 36.447 5.722 54-3 10.393-6.735 17.393-16.068 21-28 14.663-.5 29.33-.667 44-.5-5.232 30.739-22.232 52.239-51 64.5-18.718 7.07-38.051 9.403-58 7-49.956-6.871-79.456-35.038-88.5-84.5-5.059-32.715 1.608-62.715 20-90 17.152-20.493 38.985-32.493 65.5-36Zm6 36c23.869-3.303 42.702 4.697 56.5 24a71.67 71.67 0 0 1 7.5 23c-36.339.333-72.673 0-109-1 4.965-25.297 19.965-40.631 45-46Zm217-36c31.083-3.398 59.083 4.102 84 22.5 21.483 20.818 32.149 46.318 32 76.5a578.764 578.764 0 0 1-1 16h-155c-.865 26.798 10.801 45.631 35 56.5 23.325 7.478 44.158 3.312 62.5-12.5 4.674-5.846 8.174-12.346 10.5-19.5 14.663-.5 29.33-.667 44-.5-8.472 38.638-32.138 62.138-71 70.5-28.882 5.065-56.215.732-82-13-25.538-16.542-40.371-40.042-44.5-70.5-5.552-35.282 2.448-66.948 24-95 16.975-17.404 37.475-27.738 61.5-31Zm6 36c16.892-2.059 32.225 1.775 46 11.5 10.075 9.314 16.075 20.814 18 34.5a1485.996 1485.996 0 0 1-109 0c4.965-25.297 19.965-40.631 45-46Z" style="opacity:.981"/><path fill="#fefffe" d="M1441.5 72.5c21.1-2.656 40.43 1.844 58 13.5 7.74 6.07 13.58 13.57 17.5 22.5 13.23-20.541 32.06-32.375 56.5-35.5 52.06-5.748 82.23 17.085 90.5 68.5 1.45 46.644 1.95 93.311 1.5 140h-45c.47-45.367-.03-90.7-1.5-136-8.02-29.85-27.02-40.517-57-32-14.12 5.455-23.45 15.455-28 30-1.32 4.6-2.32 9.266-3 14-.5 41.332-.67 82.665-.5 124h-45c.17-41.668 0-83.335-.5-125-3.38-36.714-23.04-51.047-59-43-14.7 6.381-24.04 17.381-28 33a94.266 94.266 0 0 0-3 17c-.5 39.332-.67 78.665-.5 118h-44v-207h39a255.052 255.052 0 0 0 4.5 26c12.14-15.65 27.97-24.984 47.5-28Z" style="opacity:.978"/><path fill="#fefffe" d="M1889.5 156.5v30c-51.93.995-103.93 1.329-156 1 2.44 40.946 24.11 60.78 65 59.5 22.41-2.252 36.74-14.086 43-35.5h45c-9.49 41.655-35.49 65.488-78 71.5-30.13 3.845-57.79-2.489-83-19-20-16.157-32.17-36.99-36.5-62.5-6-34.696 1-66.363 21-95 25.52-27.4 57.02-38.567 94.5-33.5 37.61 4.291 63.78 23.791 78.5 58.5a231.059 231.059 0 0 1 6.5 25Zm-110-48c23.44-3.142 42.28 4.525 56.5 23 4.42 7.416 6.92 15.416 7.5 24h-108c4.35-25.351 19.02-41.017 44-47Z" style="opacity:.982"/><path fill="#fefffe" d="M-.5 74.5a547.164 547.164 0 0 1 46.5 1l46 154a5928.481 5928.481 0 0 0 46.5-155 436.59 436.59 0 0 1 41.5 1l44 154a10323.572 10323.572 0 0 0 48-154 524.038 524.038 0 0 1 45.5-1 37232.385 37232.385 0 0 1-68 206c-16 1.333-32 1.333-48 0l-42.5-136a4689.91 4689.91 0 0 0-44.5 137h-49a9018.037 9018.037 0 0 0-66-203v-4Z" style="opacity:.976"/><path fill="#fefffe" d="M1210.5 378.5h-31c-49.1-9.265-80.1-38.098-93-86.5 72-.5 144-.667 216-.5-12.56 48.224-43.22 77.224-92 87Z" style="opacity:.986"/></svg>