<svg xmlns="http://www.w3.org/2000/svg" viewBox="0 0 174.37 119.228" overflow="visible" ><g><path d="M 30.187 118.962 L 30.187 48.121 M 49.225 118.962 L 49.225 26.173 C 49.225 24.987 47.965 24.229 46.924 24.789 L 31.838 32.901 C 30.821 33.448 30.187 34.512 30.187 35.67 L 30.187 41.569" fill="none" stroke-width="1.5" stroke="var(--token-7d27c033-cb66-44c8-bf4e-e66d9f19511b, rgb(34, 23, 66)) /* {&quot;name&quot;:&quot;Background&quot;} */" stroke-miterlimit="10" stroke-dasharray=""/><path d="M 49.224 29.464 L 35.653 36.762 C 35.484 36.853 35.378 37.03 35.378 37.224 L 35.378 58.089 C 35.378 58.378 35.145 58.613 34.857 58.613 L 30.187 58.613 M 30.62 108.569 L 49.225 108.569" fill="none" stroke-width="1.5" stroke="var(--token-7d27c033-cb66-44c8-bf4e-e66d9f19511b, rgb(34, 23, 66)) /* {&quot;name&quot;:&quot;Background&quot;} */" stroke-miterlimit="10" stroke-dasharray=""/><path d="M 35.281 41.478 L 31.001 41.478 C 30.688 41.478 30.383 41.573 30.124 41.749 L 20.163 48.537 C 20.044 48.618 19.964 48.745 19.941 48.887 C 19.918 49.03 19.955 49.175 20.043 49.289 L 22.858 52.953 C 23.03 53.176 23.347 53.223 23.576 53.057 L 30.112 48.326 C 30.378 48.134 30.698 48.03 31.026 48.03 L 35.281 48.03" fill="none" stroke-width="1.5" stroke="var(--token-7d27c033-cb66-44c8-bf4e-e66d9f19511b, rgb(34, 23, 66)) /* {&quot;name&quot;:&quot;Background&quot;} */" stroke-miterlimit="10" stroke-dasharray=""/><g transform="translate(0 16.305)"><path d="M 0 29.858 L 135.28 0 L 150.806 63.008 L 15.527 92.866 Z" fill="none"/><path d="M 17.776 35.822 C 17.937 35.608 18.105 35.398 18.273 35.189 C 18.396 35.035 18.634 35.033 18.749 35.184 C 19.377 36.005 20.019 36.815 20.674 37.615 C 20.753 37.709 20.757 37.846 20.683 37.945 C 20.531 38.144 20.374 38.339 20.228 38.541 C 20.12 38.689 19.887 38.694 19.764 38.551 C 19.425 38.159 19.09 37.763 18.758 37.365 C 18.427 36.967 18.099 36.567 17.774 36.164 C 17.695 36.063 17.695 35.921 17.775 35.822 Z M 16.411 37.664 C 16.567 37.446 16.719 37.226 16.879 37.012 C 16.996 36.853 17.234 36.841 17.355 36.986 C 18.02 37.782 18.698 38.566 19.39 39.338 C 19.474 39.428 19.483 39.564 19.413 39.665 L 19.198 39.971 L 18.988 40.28 C 18.885 40.431 18.653 40.446 18.523 40.308 C 17.811 39.553 17.111 38.785 16.424 38.006 C 16.34 37.909 16.335 37.767 16.411 37.664 Z M 15.133 39.563 L 15.569 38.89 C 15.679 38.727 15.916 38.706 16.044 38.846 C 16.746 39.613 17.461 40.368 18.188 41.11 C 18.277 41.2 18.292 41.333 18.225 41.435 C 18.091 41.644 17.963 41.857 17.831 42.067 C 17.735 42.222 17.503 42.246 17.368 42.115 C 16.62 41.39 15.885 40.653 15.162 39.904 C 15.073 39.812 15.061 39.669 15.133 39.563 Z M 13.945 41.518 L 14.351 40.827 C 14.398 40.747 14.478 40.693 14.57 40.68 C 14.662 40.667 14.754 40.696 14.821 40.76 C 15.559 41.496 16.31 42.219 17.072 42.93 C 17.164 43.016 17.186 43.148 17.127 43.253 L 16.763 43.9 C 16.676 44.06 16.448 44.095 16.305 43.97 C 15.522 43.28 14.751 42.576 13.993 41.859 C 13.9 41.77 13.88 41.629 13.945 41.518 Z M 12.856 43.525 L 13.038 43.168 L 13.226 42.815 C 13.27 42.733 13.348 42.676 13.439 42.659 C 13.53 42.642 13.623 42.668 13.693 42.728 C 14.466 43.431 15.251 44.12 16.049 44.794 C 16.145 44.871 16.175 45.004 16.121 45.115 C 16.009 45.335 15.896 45.554 15.79 45.778 C 15.712 45.94 15.485 45.985 15.336 45.866 C 14.518 45.213 13.712 44.545 12.919 43.863 C 12.822 43.778 12.796 43.638 12.856 43.525 Z M 11.868 45.582 L 12.201 44.855 C 12.241 44.771 12.317 44.71 12.407 44.689 C 12.498 44.668 12.592 44.689 12.665 44.747 C 13.473 45.414 14.293 46.066 15.125 46.702 C 15.226 46.779 15.261 46.908 15.211 47.018 C 15.11 47.242 15.016 47.469 14.918 47.694 C 14.846 47.859 14.622 47.915 14.467 47.803 C 13.616 47.19 12.776 46.561 11.948 45.917 C 11.846 45.838 11.812 45.698 11.868 45.582 Z M 10.989 47.687 C 11.081 47.437 11.187 47.192 11.285 46.944 C 11.32 46.858 11.392 46.793 11.481 46.767 C 11.569 46.742 11.665 46.758 11.74 46.812 C 12.582 47.439 13.435 48.051 14.3 48.647 C 14.406 48.719 14.45 48.847 14.407 48.959 C 14.322 49.188 14.23 49.416 14.15 49.647 C 14.09 49.816 13.869 49.882 13.708 49.779 C 12.824 49.209 11.95 48.622 11.089 48.018 C 10.983 47.944 10.942 47.807 10.989 47.687 Z M 10.228 49.836 C 10.312 49.583 10.39 49.328 10.48 49.077 C 10.512 48.99 10.581 48.921 10.668 48.892 C 10.756 48.862 10.853 48.874 10.93 48.924 C 11.369 49.218 11.809 49.506 12.251 49.79 C 12.695 50.074 13.142 50.354 13.59 50.628 C 13.699 50.695 13.749 50.82 13.712 50.933 C 13.632 51.165 13.568 51.4 13.495 51.633 C 13.444 51.804 13.225 51.881 13.059 51.786 C 12.143 51.262 11.237 50.72 10.343 50.161 C 10.233 50.093 10.186 49.958 10.228 49.836 Z M 9.587 52.025 C 9.651 51.766 9.727 51.511 9.798 51.254 C 9.823 51.165 9.887 51.092 9.973 51.057 C 10.058 51.022 10.155 51.029 10.235 51.076 C 11.143 51.615 12.061 52.136 12.989 52.639 C 13.102 52.7 13.161 52.822 13.132 52.938 C 13.074 53.173 13.009 53.408 12.957 53.645 C 12.918 53.819 12.706 53.907 12.534 53.821 C 11.587 53.35 10.65 52.857 9.725 52.345 C 9.612 52.282 9.555 52.15 9.588 52.025 Z M 9.081 54.249 C 9.135 53.989 9.184 53.726 9.243 53.466 C 9.264 53.376 9.325 53.3 9.408 53.261 C 9.492 53.221 9.589 53.223 9.672 53.265 C 10.61 53.755 11.559 54.225 12.517 54.675 C 12.63 54.723 12.695 54.843 12.674 54.964 C 12.628 55.201 12.589 55.44 12.546 55.679 C 12.514 55.852 12.311 55.953 12.133 55.878 C 11.158 55.46 10.192 55.022 9.236 54.562 C 9.118 54.506 9.054 54.377 9.081 54.249 Z M 8.718 56.504 C 8.748 56.238 8.788 55.974 8.829 55.711 C 8.843 55.619 8.899 55.539 8.98 55.495 C 9.061 55.45 9.158 55.446 9.242 55.484 C 10.216 55.922 11.187 56.336 12.173 56.727 C 12.294 56.775 12.367 56.889 12.352 57.006 L 12.306 57.365 L 12.27 57.725 C 12.253 57.901 12.054 58.012 11.871 57.948 C 10.87 57.591 9.877 57.211 8.893 56.807 C 8.773 56.757 8.701 56.633 8.718 56.504 Z M 8.502 58.781 L 8.559 57.981 C 8.567 57.888 8.618 57.805 8.696 57.755 C 8.775 57.706 8.872 57.696 8.958 57.729 C 9.953 58.107 10.956 58.462 11.968 58.792 C 12.085 58.827 12.165 58.935 12.164 59.058 C 12.154 59.298 12.138 59.538 12.132 59.778 C 12.129 59.953 11.939 60.078 11.752 60.025 C 10.727 59.734 9.709 59.416 8.7 59.074 C 8.576 59.032 8.495 58.912 8.502 58.781 Z M 8.451 61.075 C 8.451 60.806 8.444 60.538 8.449 60.27 C 8.451 60.177 8.496 60.09 8.571 60.036 C 8.646 59.982 8.742 59.966 8.83 59.993 C 9.849 60.308 10.875 60.596 11.909 60.859 C 12.034 60.891 12.121 60.994 12.122 61.111 C 12.127 61.351 12.138 61.589 12.145 61.828 C 12.15 62.003 11.975 62.139 11.784 62.099 C 10.738 61.88 9.708 61.63 8.668 61.355 C 8.54 61.322 8.451 61.207 8.451 61.075 Z M 8.574 63.374 C 8.549 63.105 8.524 62.837 8.51 62.568 C 8.504 62.475 8.542 62.385 8.612 62.326 C 8.683 62.266 8.778 62.243 8.867 62.265 C 9.913 62.511 10.952 62.729 12.005 62.918 C 12.133 62.94 12.228 63.036 12.239 63.153 C 12.257 63.391 12.291 63.627 12.318 63.864 C 12.337 64.037 12.169 64.185 11.976 64.16 C 10.916 64.014 9.861 63.841 8.81 63.638 C 8.682 63.613 8.585 63.505 8.574 63.374 Z M 8.883 65.664 C 8.861 65.531 8.834 65.398 8.813 65.264 L 8.754 64.863 C 8.739 64.772 8.769 64.679 8.834 64.613 C 8.9 64.548 8.993 64.518 9.084 64.534 C 10.149 64.705 11.203 64.846 12.265 64.955 C 12.395 64.969 12.499 65.057 12.519 65.171 C 12.541 65.288 12.559 65.406 12.583 65.522 L 12.657 65.871 C 12.693 66.041 12.535 66.201 12.342 66.191 C 11.273 66.129 10.206 66.036 9.143 65.911 C 9.012 65.895 8.906 65.795 8.883 65.664 Z M 9.389 67.933 C 9.313 67.671 9.254 67.406 9.189 67.142 C 9.165 67.052 9.187 66.957 9.247 66.886 C 9.307 66.816 9.397 66.779 9.489 66.788 C 10.564 66.877 11.632 66.935 12.696 66.96 C 12.827 66.963 12.938 67.042 12.969 67.154 L 13.063 67.497 L 13.168 67.837 C 13.219 68.002 13.077 68.175 12.883 68.18 C 12.08 68.2 11.277 68.201 10.474 68.184 C 10.206 68.178 9.939 68.17 9.671 68.16 C 9.538 68.154 9.424 68.062 9.389 67.933 Z M 10.102 70.161 C 10.001 69.906 9.919 69.645 9.828 69.386 C 9.796 69.299 9.809 69.202 9.862 69.126 C 9.916 69.05 10.003 69.006 10.095 69.008 C 11.166 69.01 12.236 68.979 13.305 68.914 C 13.435 68.906 13.553 68.975 13.595 69.083 L 13.721 69.415 C 13.763 69.525 13.812 69.634 13.857 69.743 C 13.923 69.903 13.799 70.086 13.606 70.108 C 12.552 70.227 11.475 70.316 10.405 70.364 C 10.271 70.368 10.15 70.287 10.102 70.161 Z M 11.032 72.326 L 10.94 72.14 L 10.854 71.952 L 10.681 71.576 C 10.64 71.493 10.643 71.394 10.689 71.314 C 10.735 71.233 10.818 71.181 10.91 71.175 C 11.976 71.086 13.039 70.961 14.097 70.8 C 14.225 70.781 14.35 70.838 14.402 70.941 L 14.56 71.26 C 14.613 71.365 14.672 71.468 14.728 71.573 C 14.81 71.725 14.704 71.919 14.515 71.959 C 13.479 72.173 12.415 72.359 11.354 72.502 C 11.221 72.517 11.092 72.447 11.032 72.326 Z M 12.181 74.402 C 12.028 74.169 11.895 73.925 11.753 73.686 C 11.703 73.608 11.696 73.51 11.734 73.425 C 11.771 73.341 11.849 73.281 11.94 73.265 C 12.991 73.08 14.036 72.858 15.072 72.599 C 15.198 72.567 15.329 72.613 15.391 72.712 C 15.518 72.912 15.642 73.115 15.781 73.311 C 15.88 73.455 15.795 73.658 15.61 73.715 C 14.589 74.027 13.559 74.305 12.519 74.547 C 12.387 74.575 12.252 74.517 12.181 74.402 Z M 13.525 76.355 L 13.034 75.686 C 12.977 75.613 12.961 75.516 12.991 75.429 C 13.02 75.341 13.091 75.274 13.18 75.25 C 13.438 75.18 13.694 75.108 13.95 75.033 C 14.717 74.808 15.478 74.567 16.234 74.308 C 16.35 74.266 16.481 74.301 16.56 74.396 C 16.711 74.586 16.857 74.778 17.009 74.966 C 17.123 75.103 17.059 75.312 16.879 75.383 C 15.889 75.774 14.888 76.135 13.876 76.467 C 13.747 76.506 13.608 76.462 13.525 76.355 Z M 15.034 78.176 L 14.76 77.866 C 14.667 77.764 14.577 77.659 14.49 77.552 C 14.359 77.396 14.413 77.175 14.597 77.108 C 15.099 76.925 15.596 76.735 16.088 76.54 C 16.582 76.343 17.073 76.139 17.558 75.929 C 17.671 75.877 17.805 75.903 17.892 75.994 C 18.051 76.177 18.225 76.351 18.391 76.531 C 18.512 76.662 18.465 76.875 18.292 76.96 C 17.336 77.42 16.368 77.855 15.389 78.264 C 15.264 78.313 15.122 78.278 15.034 78.176 Z M 16.679 79.876 C 16.476 79.688 16.284 79.488 16.088 79.293 C 15.944 79.15 15.98 78.926 16.157 78.846 C 17.122 78.408 18.074 77.944 19.014 77.456 C 19.125 77.395 19.261 77.411 19.356 77.494 C 19.535 77.663 19.709 77.835 19.896 77.997 C 20.031 78.117 20 78.334 19.834 78.429 C 18.917 78.957 17.986 79.458 17.042 79.935 C 16.92 79.992 16.776 79.969 16.679 79.876 Z M 18.45 81.452 C 18.238 81.273 18.024 81.097 17.815 80.915 C 17.663 80.78 17.682 80.553 17.852 80.461 C 18.78 79.958 19.694 79.429 20.594 78.875 C 20.699 78.808 20.836 78.815 20.934 78.893 C 21.124 79.051 21.32 79.201 21.513 79.356 C 21.653 79.469 21.642 79.685 21.483 79.793 C 20.609 80.381 19.719 80.947 18.815 81.488 C 18.699 81.555 18.553 81.541 18.451 81.452 Z M 20.342 82.902 C 20.111 82.745 19.891 82.574 19.666 82.409 C 19.502 82.286 19.502 82.061 19.665 81.956 C 20.551 81.389 21.421 80.798 22.275 80.184 C 22.376 80.109 22.513 80.105 22.618 80.174 C 22.822 80.314 23.02 80.463 23.229 80.595 C 23.381 80.694 23.384 80.912 23.235 81.03 C 22.411 81.681 21.569 82.308 20.71 82.911 C 20.597 82.984 20.451 82.981 20.342 82.902 Z M 22.347 84.216 C 22.107 84.067 21.865 83.925 21.63 83.772 C 21.458 83.66 21.44 83.433 21.595 83.318 C 22.014 83.004 22.429 82.684 22.84 82.357 C 23.249 82.031 23.653 81.699 24.053 81.361 C 24.148 81.28 24.283 81.267 24.391 81.33 C 24.602 81.46 24.821 81.577 25.035 81.701 C 25.192 81.79 25.213 82.008 25.075 82.138 C 24.308 82.848 23.52 83.536 22.713 84.2 C 22.607 84.282 22.46 84.288 22.347 84.216 Z M 24.465 85.378 C 24.337 85.317 24.21 85.253 24.085 85.185 L 23.71 84.988 C 23.526 84.891 23.488 84.668 23.633 84.541 C 24.415 83.852 25.176 83.139 25.915 82.403 C 26.003 82.314 26.137 82.289 26.252 82.34 C 26.474 82.446 26.693 82.561 26.92 82.659 C 27.085 82.732 27.125 82.946 27 83.086 C 26.652 83.472 26.297 83.852 25.937 84.226 C 25.576 84.598 25.208 84.966 24.832 85.33 C 24.74 85.419 24.59 85.438 24.465 85.378 Z M 26.694 86.367 L 26.295 86.208 C 26.162 86.156 26.03 86.101 25.9 86.042 C 25.708 85.958 25.65 85.736 25.783 85.599 C 26.142 85.224 26.495 84.843 26.842 84.457 C 27.187 84.07 27.526 83.678 27.858 83.279 C 27.936 83.183 28.067 83.148 28.182 83.192 L 28.354 83.261 L 28.528 83.323 L 28.875 83.447 C 28.956 83.477 29.017 83.545 29.041 83.628 C 29.064 83.711 29.047 83.801 28.994 83.869 C 28.376 84.7 27.73 85.509 27.055 86.294 C 26.972 86.39 26.824 86.419 26.694 86.367 Z M 29.026 87.161 C 28.886 87.125 28.749 87.08 28.611 87.037 L 28.198 86.907 C 27.994 86.844 27.914 86.629 28.033 86.48 C 28.673 85.671 29.283 84.837 29.862 83.982 C 29.931 83.879 30.056 83.831 30.175 83.86 C 30.412 83.922 30.646 83.993 30.884 84.047 C 31.059 84.087 31.141 84.288 31.048 84.45 C 30.53 85.34 29.974 86.207 29.382 87.049 C 29.309 87.153 29.164 87.199 29.026 87.161 Z M 31.454 87.721 L 31.023 87.642 L 30.807 87.602 L 30.594 87.554 C 30.385 87.506 30.28 87.3 30.382 87.14 C 30.659 86.704 30.925 86.264 31.181 85.822 C 31.437 85.376 31.683 84.924 31.917 84.472 C 31.974 84.362 32.094 84.3 32.212 84.322 L 32.391 84.355 L 32.571 84.38 L 32.932 84.43 C 33.107 84.454 33.213 84.648 33.14 84.818 C 32.733 85.758 32.284 86.679 31.795 87.579 C 31.735 87.69 31.596 87.747 31.454 87.721 Z M 33.953 88.018 C 33.805 88.014 33.659 88 33.512 87.986 L 33.071 87.946 C 32.855 87.926 32.724 87.734 32.806 87.564 C 33.247 86.643 33.645 85.702 33.999 84.743 C 34.04 84.629 34.149 84.553 34.27 84.555 L 34.631 84.571 C 34.751 84.577 34.871 84.584 34.991 84.581 C 35.167 84.58 35.296 84.756 35.248 84.934 C 35.111 85.424 34.962 85.911 34.801 86.394 C 34.637 86.878 34.463 87.357 34.277 87.832 C 34.231 87.949 34.098 88.025 33.953 88.018 Z M 36.491 88.011 L 36.046 88.036 L 35.823 88.047 C 35.749 88.051 35.675 88.049 35.6 88.051 C 35.382 88.052 35.225 87.875 35.284 87.698 C 35.444 87.21 35.591 86.723 35.724 86.236 C 35.858 85.743 35.977 85.248 36.083 84.755 C 36.106 84.637 36.205 84.549 36.325 84.541 L 36.504 84.531 L 36.682 84.511 L 37.038 84.473 C 37.212 84.455 37.365 84.617 37.342 84.798 C 37.209 85.805 37.024 86.805 36.787 87.793 C 36.759 87.914 36.637 88.003 36.491 88.011 Z M 39.02 87.68 C 38.873 87.709 38.726 87.741 38.579 87.766 L 38.136 87.835 C 37.919 87.869 37.738 87.716 37.771 87.532 C 37.861 87.026 37.937 86.521 37.997 86.018 C 38.059 85.516 38.107 85.018 38.137 84.512 C 38.141 84.393 38.225 84.292 38.34 84.266 C 38.574 84.225 38.799 84.161 39.027 84.107 C 39.11 84.09 39.197 84.111 39.263 84.164 C 39.33 84.218 39.37 84.297 39.372 84.383 C 39.404 85.397 39.375 86.412 39.284 87.422 C 39.272 87.546 39.164 87.651 39.02 87.68 Z M 41.5 86.991 C 41.214 87.088 40.931 87.195 40.641 87.275 C 40.427 87.339 40.222 87.214 40.227 87.026 C 40.238 86.513 40.233 86.005 40.214 85.501 C 40.193 84.996 40.155 84.493 40.101 83.99 C 40.084 83.874 40.151 83.762 40.26 83.722 L 40.582 83.594 C 40.689 83.55 40.798 83.512 40.902 83.462 C 41.054 83.392 41.249 83.501 41.288 83.68 C 41.391 84.171 41.481 84.673 41.553 85.175 C 41.623 85.675 41.679 86.181 41.718 86.692 C 41.728 86.817 41.64 86.944 41.5 86.991 Z M 43.839 85.921 L 43.644 86.031 L 43.444 86.134 L 43.042 86.339 C 42.843 86.435 42.615 86.338 42.589 86.155 C 42.551 85.902 42.509 85.651 42.463 85.402 C 42.324 84.655 42.149 83.914 41.939 83.183 C 41.905 83.064 41.948 82.944 42.046 82.888 C 42.146 82.83 42.248 82.777 42.346 82.716 L 42.639 82.531 C 42.783 82.445 42.991 82.515 43.06 82.688 C 43.249 83.164 43.416 83.634 43.575 84.121 C 43.732 84.605 43.879 85.101 44.003 85.594 C 44.034 85.715 43.967 85.848 43.839 85.921 Z M 45.953 84.523 L 45.601 84.787 L 45.425 84.918 L 45.242 85.044 C 45.062 85.168 44.826 85.11 44.767 84.931 C 44.604 84.447 44.428 83.967 44.238 83.492 C 44.048 83.019 43.844 82.552 43.628 82.091 C 43.574 81.987 43.601 81.859 43.691 81.786 L 43.963 81.565 L 44.099 81.455 L 44.231 81.339 C 44.36 81.225 44.583 81.272 44.676 81.433 C 45.184 82.322 45.645 83.238 46.057 84.177 C 46.108 84.291 46.068 84.435 45.953 84.523 Z M 47.799 82.884 C 47.601 83.087 47.391 83.283 47.182 83.479 C 47.03 83.625 46.782 83.593 46.699 83.427 C 46.228 82.514 45.716 81.623 45.164 80.758 C 45.096 80.66 45.106 80.527 45.188 80.441 C 45.358 80.276 45.517 80.096 45.682 79.923 C 45.802 79.796 46.027 79.811 46.138 79.964 C 46.744 80.798 47.317 81.655 47.855 82.535 C 47.921 82.642 47.898 82.785 47.798 82.884 Z M 49.406 81.101 C 49.226 81.313 49.053 81.528 48.867 81.738 C 48.73 81.892 48.49 81.888 48.385 81.731 C 48.095 81.303 47.798 80.881 47.494 80.464 C 47.189 80.048 46.878 79.636 46.56 79.23 C 46.483 79.137 46.482 79.003 46.557 78.909 C 46.707 78.717 46.863 78.532 47.009 78.335 C 47.117 78.192 47.349 78.192 47.47 78.335 C 48.143 79.122 48.793 79.928 49.419 80.752 C 49.497 80.857 49.491 81.002 49.406 81.101 Z M 50.818 79.237 C 50.665 79.459 50.501 79.677 50.342 79.896 C 50.225 80.058 49.982 80.069 49.864 79.922 C 49.209 79.119 48.535 78.331 47.842 77.56 C 47.758 77.471 47.748 77.335 47.817 77.234 C 47.961 77.033 48.101 76.828 48.24 76.622 C 48.342 76.472 48.574 76.457 48.705 76.593 C 49.419 77.347 50.119 78.113 50.806 78.893 C 50.89 78.99 50.895 79.134 50.818 79.237 Z M 52.093 77.336 C 51.951 77.559 51.806 77.782 51.658 78.005 C 51.55 78.168 51.314 78.191 51.186 78.051 C 50.481 77.286 49.765 76.532 49.038 75.789 C 48.95 75.702 48.935 75.565 49.001 75.461 C 49.137 75.251 49.27 75.036 49.404 74.823 C 49.454 74.747 49.535 74.699 49.625 74.689 C 49.715 74.68 49.804 74.711 49.869 74.775 C 50.608 75.508 51.339 76.248 52.063 76.997 C 52.151 77.089 52.164 77.23 52.093 77.336 Z M 53.28 75.423 L 52.871 76.093 C 52.822 76.171 52.741 76.223 52.65 76.234 C 52.559 76.245 52.468 76.215 52.402 76.151 C 51.668 75.412 50.929 74.679 50.184 73.951 C 50.094 73.866 50.075 73.728 50.14 73.621 L 50.534 72.966 C 50.583 72.889 50.663 72.838 50.753 72.826 C 50.843 72.815 50.933 72.845 50.999 72.907 C 51.749 73.631 52.495 74.358 53.238 75.088 C 53.329 75.176 53.347 75.316 53.28 75.423 Z M 54.419 73.518 L 54.023 74.184 C 53.975 74.261 53.895 74.313 53.804 74.325 C 53.714 74.337 53.623 74.308 53.556 74.245 L 51.31 72.072 C 51.219 71.986 51.2 71.847 51.264 71.74 L 51.659 71.074 C 51.707 70.996 51.787 70.944 51.878 70.932 C 51.968 70.92 52.059 70.95 52.126 71.012 L 54.373 73.185 C 54.465 73.273 54.484 73.408 54.419 73.518 Z M 55.542 71.634 L 55.149 72.291 C 55.1 72.368 55.02 72.419 54.929 72.431 C 54.839 72.442 54.749 72.412 54.683 72.35 C 53.933 71.626 53.186 70.9 52.442 70.171 C 52.351 70.084 52.333 69.944 52.399 69.836 L 52.805 69.167 C 52.854 69.089 52.935 69.037 53.026 69.026 C 53.117 69.015 53.209 69.045 53.275 69.109 C 54.011 69.845 54.752 70.576 55.498 71.303 C 55.589 71.392 55.607 71.526 55.542 71.634 Z M 56.677 69.782 L 56.276 70.427 C 56.179 70.585 55.946 70.61 55.811 70.477 C 55.071 69.746 54.336 69.009 53.607 68.265 C 53.518 68.174 53.503 68.034 53.572 67.927 L 53.997 67.26 C 54.048 67.183 54.13 67.132 54.222 67.123 C 54.313 67.113 54.405 67.146 54.47 67.211 C 55.184 67.967 55.907 68.714 56.639 69.453 C 56.727 69.54 56.743 69.677 56.677 69.782 Z M 57.852 67.977 C 57.713 68.186 57.572 68.393 57.435 68.604 C 57.334 68.758 57.102 68.777 56.97 68.64 C 56.248 67.893 55.535 67.137 54.832 66.371 C 54.746 66.277 54.737 66.135 54.81 66.03 L 55.263 65.371 C 55.376 65.21 55.614 65.193 55.738 65.336 C 56.421 66.118 57.116 66.889 57.823 67.648 C 57.909 67.741 57.92 67.874 57.852 67.977 Z M 59.085 66.231 C 58.938 66.432 58.788 66.63 58.645 66.835 C 58.539 66.984 58.307 66.994 58.18 66.854 C 57.487 66.083 56.806 65.3 56.14 64.505 C 56.058 64.406 56.056 64.264 56.134 64.162 C 56.293 63.946 56.459 63.732 56.622 63.518 C 56.742 63.359 56.983 63.354 57.099 63.503 C 57.74 64.316 58.397 65.116 59.069 65.903 C 59.15 65.995 59.157 66.131 59.085 66.231 Z M 60.394 64.558 C 60.236 64.748 60.078 64.939 59.925 65.135 C 59.813 65.278 59.581 65.275 59.461 65.13 C 58.806 64.33 58.169 63.515 57.549 62.688 C 57.473 62.583 57.479 62.44 57.564 62.343 C 57.734 62.131 57.917 61.927 58.093 61.72 C 58.223 61.567 58.463 61.574 58.571 61.729 C 59.159 62.577 59.767 63.411 60.394 64.231 C 60.471 64.326 60.471 64.463 60.394 64.558 Z M 61.791 62.971 C 61.706 63.061 61.621 63.15 61.538 63.241 L 61.29 63.516 C 61.169 63.65 60.938 63.634 60.828 63.483 C 60.222 62.649 59.638 61.799 59.075 60.936 C 59.007 60.826 59.023 60.683 59.116 60.592 L 59.399 60.293 L 59.69 59.999 C 59.833 59.855 60.07 59.874 60.166 60.037 C 60.696 60.927 61.24 61.792 61.813 62.647 C 61.883 62.747 61.874 62.882 61.791 62.971 Z M 63.286 61.489 C 63.102 61.652 62.929 61.827 62.75 61.996 C 62.684 62.055 62.595 62.081 62.507 62.069 C 62.419 62.057 62.341 62.007 62.293 61.932 C 61.747 61.061 61.226 60.175 60.729 59.275 C 60.668 59.165 60.697 59.026 60.797 58.934 C 61.004 58.749 61.206 58.559 61.419 58.38 C 61.575 58.247 61.811 58.283 61.894 58.452 C 62.346 59.372 62.826 60.278 63.333 61.169 C 63.395 61.273 63.376 61.407 63.286 61.489 Z M 64.886 60.122 L 64.313 60.586 C 64.176 60.703 63.952 60.657 63.865 60.492 C 63.388 59.586 62.939 58.665 62.52 57.731 C 62.469 57.61 62.508 57.47 62.614 57.393 L 63.282 56.884 C 63.45 56.764 63.683 56.819 63.751 56.993 C 64.123 57.944 64.526 58.883 64.959 59.809 C 65.012 59.917 64.981 60.048 64.886 60.122 Z M 66.592 58.888 C 66.388 59.026 66.181 59.159 65.983 59.306 C 65.836 59.41 65.617 59.346 65.544 59.175 C 65.144 58.236 64.776 57.284 64.439 56.321 C 64.397 56.203 64.448 56.069 64.563 55.992 C 64.794 55.832 65.036 55.688 65.274 55.537 C 65.45 55.427 65.676 55.498 65.729 55.677 C 66.018 56.654 66.338 57.621 66.689 58.577 C 66.733 58.691 66.693 58.82 66.592 58.888 Z M 68.397 57.789 C 68.288 57.846 68.181 57.908 68.074 57.971 L 67.755 58.158 C 67.677 58.2 67.585 58.206 67.502 58.174 C 67.42 58.142 67.355 58.075 67.326 57.991 C 67.012 57.023 66.727 56.046 66.473 55.06 C 66.442 54.939 66.506 54.811 66.627 54.745 C 66.876 54.612 67.121 54.471 67.375 54.346 C 67.56 54.252 67.781 54.342 67.818 54.525 C 67.92 55.024 68.029 55.52 68.145 56.012 C 68.264 56.508 68.39 57.001 68.522 57.489 C 68.556 57.606 68.504 57.731 68.397 57.789 Z M 70.294 56.833 C 70.07 56.939 69.84 57.037 69.619 57.151 C 69.54 57.188 69.448 57.188 69.368 57.151 C 69.289 57.113 69.23 57.041 69.209 56.956 C 69.093 56.461 68.985 55.964 68.885 55.466 C 68.786 54.968 68.695 54.469 68.611 53.969 C 68.59 53.846 68.663 53.721 68.789 53.662 L 68.981 53.574 L 69.176 53.49 L 69.566 53.324 C 69.758 53.242 69.969 53.347 69.991 53.533 C 70.113 54.547 70.264 55.549 70.443 56.54 C 70.466 56.66 70.405 56.781 70.294 56.833 Z M 72.268 56.023 L 71.569 56.289 C 71.486 56.319 71.394 56.31 71.318 56.265 C 71.241 56.223 71.187 56.146 71.174 56.059 C 71.028 55.057 70.914 54.051 70.831 53.042 C 70.821 52.919 70.903 52.799 71.034 52.749 C 71.296 52.643 71.571 52.561 71.842 52.471 C 72.042 52.405 72.245 52.527 72.25 52.713 C 72.28 53.734 72.342 54.737 72.44 55.741 C 72.453 55.863 72.383 55.979 72.268 56.023 Z M 74.29 55.375 L 73.931 55.471 L 73.753 55.521 L 73.576 55.579 C 73.492 55.605 73.402 55.591 73.33 55.541 C 73.258 55.492 73.213 55.412 73.206 55.324 C 73.143 54.312 73.119 53.298 73.134 52.284 C 73.135 52.16 73.23 52.048 73.367 52.012 L 73.783 51.899 L 73.991 51.843 L 74.203 51.796 C 74.41 51.75 74.602 51.891 74.588 52.076 C 74.551 52.58 74.524 53.085 74.506 53.591 C 74.49 54.098 74.483 54.605 74.486 55.113 C 74.487 55.235 74.407 55.342 74.29 55.375 Z M 76.349 54.908 C 76.228 54.93 76.105 54.946 75.985 54.971 L 75.623 55.05 C 75.538 55.067 75.449 55.045 75.383 54.988 C 75.317 54.932 75.279 54.848 75.282 54.761 C 75.301 54.257 75.33 53.752 75.368 53.245 C 75.407 52.737 75.454 52.225 75.515 51.725 C 75.529 51.602 75.636 51.501 75.776 51.478 C 76.062 51.431 76.347 51.381 76.633 51.338 C 76.845 51.313 77.021 51.471 76.988 51.654 C 76.808 52.652 76.669 53.658 76.571 54.668 C 76.56 54.79 76.469 54.889 76.349 54.908 Z M 78.445 54.638 C 78.197 54.649 77.953 54.686 77.707 54.712 C 77.621 54.721 77.535 54.689 77.475 54.627 C 77.415 54.564 77.386 54.477 77.398 54.391 C 77.541 53.395 77.725 52.389 77.947 51.391 C 77.975 51.27 78.092 51.179 78.233 51.17 L 79.097 51.111 C 79.309 51.104 79.468 51.279 79.416 51.457 C 79.137 52.435 78.896 53.424 78.692 54.42 C 78.668 54.54 78.567 54.629 78.445 54.638 Z M 80.573 54.558 L 80.385 54.554 C 80.322 54.554 80.26 54.557 80.198 54.558 L 79.824 54.567 C 79.737 54.568 79.654 54.529 79.6 54.461 C 79.546 54.393 79.526 54.303 79.546 54.219 C 79.794 53.23 80.076 52.25 80.391 51.281 C 80.429 51.163 80.553 51.083 80.693 51.086 L 81.55 51.1 C 81.759 51.109 81.9 51.296 81.834 51.47 L 81.569 52.186 C 81.309 52.906 81.067 53.631 80.842 54.362 C 80.806 54.48 80.696 54.56 80.573 54.558 Z M 82.732 54.647 L 82.541 54.63 L 82.351 54.621 L 81.972 54.6 C 81.885 54.596 81.804 54.551 81.755 54.479 C 81.706 54.406 81.693 54.315 81.721 54.232 C 82.059 53.267 82.421 52.312 82.809 51.368 C 82.856 51.252 82.984 51.181 83.122 51.193 L 83.963 51.265 C 84.168 51.284 84.292 51.479 84.216 51.648 C 83.795 52.579 83.396 53.52 83.019 54.47 C 82.972 54.586 82.856 54.658 82.732 54.647 Z M 84.92 54.871 C 84.662 54.836 84.407 54.812 84.15 54.781 C 84.063 54.773 83.984 54.724 83.939 54.649 C 83.894 54.573 83.887 54.48 83.92 54.399 C 84.324 53.459 84.746 52.526 85.184 51.602 C 85.244 51.485 85.373 51.42 85.502 51.44 L 86.323 51.55 C 86.526 51.576 86.638 51.775 86.556 51.942 C 86.098 52.858 85.653 53.78 85.222 54.709 C 85.167 54.823 85.045 54.888 84.92 54.871 Z M 87.135 55.187 L 86.356 55.07 C 86.166 55.041 86.057 54.846 86.138 54.678 C 86.586 53.757 87.044 52.841 87.51 51.929 C 87.573 51.814 87.702 51.752 87.83 51.775 L 88.635 51.905 C 88.832 51.937 88.942 52.134 88.854 52.301 C 88.378 53.21 87.909 54.122 87.447 55.034 C 87.386 55.147 87.261 55.208 87.135 55.187 Z M 89.377 55.555 L 88.588 55.423 C 88.395 55.39 88.289 55.193 88.375 55.027 L 89.798 52.301 C 89.856 52.191 89.986 52.13 90.117 52.151 L 90.91 52.286 C 91.104 52.319 91.211 52.517 91.124 52.683 L 89.693 55.405 C 89.63 55.517 89.503 55.578 89.377 55.555 Z M 91.643 55.938 L 90.846 55.804 C 90.651 55.771 90.544 55.573 90.632 55.408 L 92.059 52.684 C 92.121 52.571 92.248 52.51 92.374 52.533 L 93.161 52.662 C 93.353 52.693 93.46 52.891 93.375 53.057 C 92.908 53.969 92.437 54.88 91.961 55.788 C 91.898 55.901 91.77 55.962 91.643 55.938 Z M 93.932 56.306 C 93.663 56.267 93.395 56.223 93.127 56.18 C 92.931 56.148 92.821 55.951 92.907 55.784 C 93.378 54.875 93.844 53.963 94.303 53.048 C 94.363 52.934 94.488 52.871 94.614 52.892 L 95.398 53.01 C 95.589 53.039 95.699 53.233 95.617 53.402 C 95.169 54.321 94.713 55.238 94.251 56.151 C 94.189 56.266 94.06 56.328 93.932 56.306 Z M 96.242 56.64 L 95.431 56.528 C 95.232 56.5 95.117 56.306 95.2 56.137 C 95.655 55.22 96.102 54.298 96.541 53.373 C 96.597 53.259 96.721 53.194 96.847 53.213 C 97.107 53.251 97.368 53.278 97.629 53.311 C 97.82 53.334 97.934 53.527 97.857 53.697 C 97.434 54.629 97 55.557 96.558 56.48 C 96.498 56.596 96.371 56.66 96.242 56.64 Z M 98.571 56.919 C 98.298 56.892 98.025 56.863 97.753 56.828 C 97.553 56.804 97.434 56.611 97.513 56.441 C 97.945 55.515 98.367 54.584 98.778 53.648 C 98.831 53.532 98.952 53.463 99.079 53.478 L 99.861 53.558 C 100.051 53.579 100.172 53.768 100.1 53.939 C 99.705 54.881 99.299 55.818 98.883 56.75 C 98.826 56.868 98.701 56.936 98.571 56.919 Z M 100.911 57.138 L 100.09 57.069 C 99.889 57.053 99.762 56.864 99.837 56.692 C 100.24 55.753 100.634 54.809 101.016 53.861 C 101.065 53.744 101.185 53.672 101.311 53.684 L 101.702 53.717 L 102.094 53.741 C 102.285 53.753 102.411 53.938 102.345 54.112 C 101.982 55.067 101.606 56.017 101.218 56.962 C 101.165 57.081 101.041 57.152 100.911 57.138 Z M 103.261 57.291 C 102.986 57.278 102.712 57.259 102.437 57.243 C 102.236 57.23 102.103 57.044 102.172 56.871 C 102.545 55.923 102.907 54.97 103.257 54.013 C 103.304 53.895 103.42 53.82 103.546 53.826 L 104.331 53.857 C 104.522 53.864 104.654 54.047 104.594 54.222 C 104.262 55.186 103.918 56.147 103.563 57.103 C 103.513 57.224 103.392 57.3 103.261 57.291 Z M 105.616 57.368 C 105.341 57.362 105.065 57.365 104.79 57.351 C 104.589 57.343 104.45 57.16 104.513 56.985 C 104.855 56.025 105.185 55.061 105.503 54.093 C 105.544 53.973 105.658 53.894 105.785 53.897 L 106.569 53.909 C 106.761 53.912 106.899 54.091 106.845 54.268 C 106.545 55.24 106.234 56.208 105.911 57.172 C 105.865 57.295 105.746 57.374 105.616 57.368 Z M 107.971 57.379 L 107.146 57.386 C 106.944 57.39 106.799 57.21 106.856 57.033 C 107.166 56.061 107.463 55.086 107.75 54.108 C 107.787 53.986 107.899 53.904 108.025 53.904 L 108.811 53.898 C 109.003 53.891 109.147 54.063 109.098 54.243 C 108.831 55.229 108.551 56.199 108.259 57.176 C 108.217 57.299 108.1 57.381 107.971 57.379 Z M 110.323 57.322 L 109.499 57.35 C 109.297 57.357 109.147 57.185 109.199 57.005 C 109.476 56.026 109.742 55.044 109.998 54.058 C 110.031 53.936 110.141 53.851 110.267 53.848 C 110.528 53.839 110.79 53.834 111.052 53.815 C 111.244 53.804 111.394 53.973 111.35 54.153 C 111.115 55.143 110.866 56.129 110.605 57.112 C 110.567 57.236 110.453 57.321 110.323 57.322 Z M 112.671 57.199 L 111.848 57.248 C 111.647 57.259 111.492 57.091 111.537 56.91 C 111.784 55.921 112.021 54.933 112.245 53.945 C 112.275 53.822 112.382 53.734 112.508 53.729 L 112.901 53.705 L 113.293 53.672 C 113.485 53.656 113.639 53.82 113.602 54.002 C 113.394 54.998 113.175 55.991 112.945 56.982 C 112.911 57.107 112.8 57.195 112.671 57.199 Z M 115.01 57.014 L 114.191 57.083 C 113.99 57.1 113.83 56.935 113.869 56.754 C 114.087 55.762 114.294 54.768 114.49 53.772 C 114.517 53.649 114.622 53.558 114.747 53.549 C 115.009 53.53 115.27 53.499 115.531 53.471 C 115.723 53.45 115.882 53.611 115.849 53.793 C 115.669 54.794 115.479 55.793 115.279 56.79 C 115.248 56.916 115.139 57.007 115.01 57.014 Z M 117.342 56.77 L 116.525 56.859 C 116.325 56.881 116.161 56.72 116.196 56.538 C 116.385 55.541 116.564 54.542 116.733 53.542 C 116.757 53.418 116.859 53.324 116.984 53.312 C 117.246 53.287 117.507 53.251 117.767 53.216 C 117.958 53.19 118.122 53.347 118.094 53.53 C 117.94 54.531 117.778 55.54 117.603 56.54 C 117.577 56.666 117.47 56.76 117.342 56.77 Z M 119.664 56.47 L 118.851 56.578 C 118.652 56.605 118.483 56.449 118.513 56.266 C 118.675 55.261 118.828 54.259 118.971 53.257 C 118.991 53.133 119.091 53.036 119.216 53.022 L 119.607 52.97 L 119.997 52.908 C 120.187 52.878 120.354 53.031 120.331 53.215 C 120.204 54.223 120.067 55.229 119.919 56.234 C 119.896 56.361 119.792 56.457 119.664 56.47 Z" fill="var(--token-7d27c033-cb66-44c8-bf4e-e66d9f19511b, rgb(34, 23, 66)) /* {&quot;name&quot;:&quot;Background&quot;} */"/></g><path d="M 148.5 97 L 123.548 92.254 C 121.59 91.871 120.177 90.148 120.177 88.145 L 120.177 54.45 C 120.177 49.516 121.487 44.671 123.973 40.415 L 147.121 0.776 C 147.402 0.295 147.915 0 148.47 0 L 174.027 0" fill="none" stroke-width="1.5" stroke="var(--token-7d27c033-cb66-44c8-bf4e-e66d9f19511b, rgb(34, 23, 66)) /* {&quot;name&quot;:&quot;Background&quot;} */" stroke-miterlimit="10" stroke-dasharray=""/><path d="M 174.37 119.228 C 160.011 119.228 148.37 108.259 148.37 94.728 C 148.37 81.197 160.011 70.228 174.37 70.228" fill="none" stroke-width="1.5" stroke="var(--token-7d27c033-cb66-44c8-bf4e-e66d9f19511b, rgb(34, 23, 66)) /* {&quot;name&quot;:&quot;Background&quot;} */" stroke-miterlimit="10" stroke-dasharray=""/><path d="M 174.011 108.587 C 165.669 108.587 158.907 102.465 158.907 94.913 C 158.907 87.362 165.669 81.24 174.011 81.24" fill="none" stroke-width="1.5" stroke="var(--token-7d27c033-cb66-44c8-bf4e-e66d9f19511b, rgb(34, 23, 66)) /* {&quot;name&quot;:&quot;Background&quot;} */" stroke-miterlimit="10" stroke-dasharray=""/></g></svg>