<svg xmlns="http://www.w3.org/2000/svg" viewBox="0 0 125.898 70.921" overflow="visible" ><g><path d="M 64.803 27.134 L 72.129 14.534 M 67.166 14.534 L 64.413 19.269 C 63.849 20.238 62.817 20.834 61.701 20.834 L 31.634 20.834 C 30.914 20.834 30.208 20.635 29.593 20.259 L 21.789 15.485" fill="none" stroke-width="1.5" stroke="var(--token-7d27c033-cb66-44c8-bf4e-e66d9f19511b, rgb(34, 23, 66)) /* {&quot;name&quot;:&quot;Background&quot;} */" stroke-miterlimit="10" stroke-dasharray=""/><path d="M 87.72 27.161 L 72.229 53.817 C 70.717 56.419 67.864 57.929 64.875 57.71 L 18 54.264 L 33.396 27.161" fill="none" stroke-width="1.5" stroke="var(--token-7d27c033-cb66-44c8-bf4e-e66d9f19511b, rgb(34, 23, 66)) /* {&quot;name&quot;:&quot;Background&quot;} */" stroke-linejoin="bevel" stroke-dasharray=""/><path d="M 109.238 67.45 C 116.571 67.45 122.513 61.47 122.513 54.096 C 122.513 46.721 116.569 40.742 109.238 40.742 C 101.907 40.742 95.963 46.721 95.963 54.096 C 95.963 61.47 101.906 67.45 109.238 67.45 Z M 18.011 67.45 C 25.344 67.45 31.286 61.47 31.286 54.096 C 31.286 46.721 25.342 40.742 18.011 40.742 C 10.681 40.742 4.737 46.721 4.737 54.096 C 4.737 61.47 10.679 67.45 18.011 67.45 Z" fill="none" stroke-width="1.5" stroke="var(--token-7d27c033-cb66-44c8-bf4e-e66d9f19511b, rgb(34, 23, 66)) /* {&quot;name&quot;:&quot;Background&quot;} */" stroke-linejoin="bevel" stroke-dasharray=""/><path d="M 109.176 56.603 C 110.012 56.615 110.789 56.174 111.211 55.447 C 111.632 54.721 111.632 53.822 111.211 53.096 C 110.789 52.37 110.012 51.928 109.176 51.94 C 107.908 51.958 106.891 52.997 106.891 54.272 C 106.891 55.547 107.908 56.585 109.176 56.603 Z M 17.949 56.603 C 19.229 56.603 20.267 55.56 20.267 54.272 C 20.267 52.984 19.229 51.94 17.949 51.94 C 16.669 51.94 15.632 52.984 15.632 54.272 C 15.632 55.56 16.669 56.603 17.949 56.603 Z" fill="none" stroke-width="1.5" stroke="var(--token-7d27c033-cb66-44c8-bf4e-e66d9f19511b, rgb(34, 23, 66)) /* {&quot;name&quot;:&quot;Background&quot;} */" stroke-linejoin="bevel" stroke-dasharray=""/><path d="M 109.251 70.897 C 118.447 70.897 125.898 63.399 125.898 54.152 C 125.898 44.904 118.444 37.406 109.251 37.406 C 100.059 37.406 92.605 44.904 92.605 54.152 C 92.605 63.399 100.057 70.897 109.251 70.897 Z" fill="none" stroke-width="1.5" stroke="var(--token-7d27c033-cb66-44c8-bf4e-e66d9f19511b, rgb(34, 23, 66)) /* {&quot;name&quot;:&quot;Background&quot;} */" stroke-linejoin="bevel" stroke-dasharray=""/><path d="M 108.954 33.832 C 97.73 33.832 88.629 42.988 88.629 54.279 M 17.83 70.921 C 27.026 70.921 34.477 63.423 34.477 54.176 C 34.477 44.928 27.023 37.43 17.83 37.43 C 8.638 37.43 1.184 44.928 1.184 54.176 C 1.184 63.423 8.635 70.921 17.83 70.921 Z" fill="none" stroke-width="1.5" stroke="var(--token-7d27c033-cb66-44c8-bf4e-e66d9f19511b, rgb(34, 23, 66)) /* {&quot;name&quot;:&quot;Background&quot;} */" stroke-linejoin="bevel" stroke-dasharray=""/><path d="M 0 44.294 C 3.48 38.051 10.121 33.832 17.74 33.832 C 28.964 33.832 38.065 42.988 38.065 54.279 C 38.065 54.755 38.049 55.231 38.016 55.705" fill="none" stroke-width="1.5" stroke="var(--token-7d27c033-cb66-44c8-bf4e-e66d9f19511b, rgb(34, 23, 66)) /* {&quot;name&quot;:&quot;Background&quot;} */" stroke-linejoin="bevel" stroke-dasharray=""/><path d="M 30.181 26.525 L 22.851 21.179 C 22.035 20.584 21.553 19.633 21.553 18.62 L 21.553 15.317 C 21.553 14.88 21.905 14.526 22.338 14.526 L 85.25 14.526 C 86.619 14.526 87.864 15.321 88.447 16.566 L 92.078 24.309 C 92.692 25.619 91.742 27.127 90.302 27.127 L 32.026 27.127 C 31.363 27.127 30.718 26.916 30.181 26.525 Z M 99.278 10.96 L 95.084 10.96 C 94.475 10.95 93.909 11.27 93.602 11.798 C 93.295 12.326 93.295 12.98 93.602 13.508 C 93.909 14.036 94.475 14.357 95.084 14.347 L 99.278 14.347 Z" fill="none" stroke-width="1.5" stroke="var(--token-7d27c033-cb66-44c8-bf4e-e66d9f19511b, rgb(34, 23, 66)) /* {&quot;name&quot;:&quot;Background&quot;} */" stroke-miterlimit="10" stroke-dasharray=""/><path d="M 77.921 0 L 82.781 0 C 83.853 0 84.826 0.626 85.276 1.605 L 109.354 53.969" fill="none" stroke-width="1.5" stroke="var(--token-7d27c033-cb66-44c8-bf4e-e66d9f19511b, rgb(34, 23, 66)) /* {&quot;name&quot;:&quot;Background&quot;} */" stroke-miterlimit="10" stroke-dasharray=""/></g></svg>