<svg xmlns="http://www.w3.org/2000/svg" viewBox="0 0 153.013 109.063" overflow="visible" ><g><path d="M 97.972 82.172 L 100.87 82.172 M 89.763 67.966 L 99.743 68.445 M 101.191 72.435 C 101.82 73.787 102.022 75.296 101.77 76.763 L 99.42 90.472 M 35.84 9.225 L 35.84 68.284 M 7.834 9.225 L 7.834 68.284 L 63.526 68.284 L 63.526 9.225 M 51.132 93.186 L 78.804 93.186 C 79.7 93.185 80.427 92.464 80.427 91.575 L 80.427 88.557" fill="none" stroke-width="1.5" stroke="var(--token-7d27c033-cb66-44c8-bf4e-e66d9f19511b, rgb(34, 23, 66)) /* {&quot;name&quot;:&quot;Background&quot;} */" stroke-miterlimit="10" stroke-dasharray=""/><path d="M 133.331 106.26 C 139.6 106.26 144.679 101.221 144.679 95.006 C 144.679 88.792 139.598 83.753 133.331 83.753 C 127.064 83.753 121.983 88.792 121.983 95.006 C 121.983 101.221 127.063 106.26 133.331 106.26 Z M 37.052 106.26 C 43.32 106.26 48.4 101.221 48.4 95.006 C 48.4 88.792 43.319 83.753 37.052 83.753 C 30.785 83.753 25.704 88.792 25.704 95.006 C 25.704 101.221 30.784 106.26 37.052 106.26 Z" fill="none" stroke-width="1.5" stroke="var(--token-7d27c033-cb66-44c8-bf4e-e66d9f19511b, rgb(34, 23, 66)) /* {&quot;name&quot;:&quot;Background&quot;} */" stroke-linejoin="bevel" stroke-dasharray=""/><path d="M 133.266 96.908 C 134.36 96.908 135.248 96.028 135.248 94.943 C 135.248 93.857 134.36 92.978 133.266 92.978 C 132.172 92.978 131.285 93.857 131.285 94.943 C 131.285 96.028 132.172 96.908 133.266 96.908 Z M 36.988 96.908 C 38.082 96.908 38.969 96.028 38.969 94.943 C 38.969 93.857 38.082 92.978 36.988 92.978 C 35.894 92.978 35.006 93.857 35.006 94.943 C 35.006 96.028 35.894 96.908 36.988 96.908 Z" fill="none" stroke-width="1.5" stroke="var(--token-7d27c033-cb66-44c8-bf4e-e66d9f19511b, rgb(34, 23, 66)) /* {&quot;name&quot;:&quot;Background&quot;} */" stroke-linejoin="bevel" stroke-dasharray=""/><path d="M 95.227 57.049 L 105.4 82.786" fill="none" stroke-width="1.5" stroke="var(--token-7d27c033-cb66-44c8-bf4e-e66d9f19511b, rgb(34, 23, 66)) /* {&quot;name&quot;:&quot;Background&quot;} */" stroke-miterlimit="10" stroke-dasharray=""/><path d="M 114.566 49.766 L 125.014 49.766 C 122.57 52.189 121.655 55.741 122.627 59.029 L 126.636 72.592" fill="none" stroke-width="1.5" stroke="var(--token-7d27c033-cb66-44c8-bf4e-e66d9f19511b, rgb(34, 23, 66)) /* {&quot;name&quot;:&quot;Background&quot;} */" stroke-linejoin="bevel" stroke-dasharray=""/><path d="M 133.274 109.063 C 141.134 109.063 147.503 102.744 147.503 94.951 C 147.503 87.158 141.132 80.84 133.274 80.84 C 125.415 80.84 119.043 87.158 119.043 94.951 C 119.043 102.744 125.413 109.063 133.274 109.063 Z M 36.996 109.062 C 44.857 109.062 51.226 102.744 51.226 94.951 C 51.226 87.158 44.854 80.84 36.996 80.84 C 29.138 80.84 22.766 87.158 22.766 94.951 C 22.766 102.744 29.136 109.062 36.996 109.062 Z" fill="none" stroke-width="1.5" stroke="var(--token-7d27c033-cb66-44c8-bf4e-e66d9f19511b, rgb(34, 23, 66)) /* {&quot;name&quot;:&quot;Background&quot;} */" stroke-linejoin="bevel" stroke-dasharray=""/><path d="M 20.281 90.371 C 22.344 83.039 29.13 77.659 37.182 77.659 C 45.457 77.659 52.396 83.342 54.244 90.987 L 72.593 90.987 L 72.593 0.243 L 0 3.436 L 0 87.077 L 20.281 90.372 Z M 88.875 59.217 L 92.131 59.217 M 92.131 59.217 C 93.194 59.216 94.184 58.682 94.763 57.797 C 95.121 57.25 95.643 56.829 96.256 56.592 M 92.131 59.217 L 89.963 57.421 L 92.183 56.592 M 88.975 52.042 C 89.657 51.888 90.382 53.053 93.129 53.474 C 95.875 53.895 98.816 53.605 100.306 53.833 C 102.249 54.131 102.586 55.422 102.515 55.885 C 102.424 56.475 99.782 56.04 98.323 56.152 C 97.306 56.23 95.031 57.074 92.832 56.742 C 91.586 56.551 88.662 55.248 88.425 54.927 C 88.152 54.561 88.138 52.233 88.975 52.042 Z" fill="none" stroke-width="1.5" stroke="var(--token-7d27c033-cb66-44c8-bf4e-e66d9f19511b, rgb(34, 23, 66)) /* {&quot;name&quot;:&quot;Background&quot;} */" stroke-linejoin="bevel" stroke-dasharray=""/><path d="M 96.206 65.454 L 99.989 63.846" fill="none" stroke-width="1.5" stroke="var(--token-7d27c033-cb66-44c8-bf4e-e66d9f19511b, rgb(34, 23, 66)) /* {&quot;name&quot;:&quot;Background&quot;} */" stroke-miterlimit="10" stroke-dasharray=""/><path d="M 107.359 93.031 C 110.409 93.031 112.881 90.573 112.881 87.542 C 112.881 84.511 110.409 82.053 107.359 82.053 C 104.309 82.053 101.837 84.511 101.837 87.542 C 101.837 90.573 104.309 93.031 107.359 93.031 Z M 107.059 87.234 L 110.191 94.805 M 108.038 95.074 L 112.646 95.079" fill="none" stroke-width="1.5" stroke="var(--token-7d27c033-cb66-44c8-bf4e-e66d9f19511b, rgb(34, 23, 66)) /* {&quot;name&quot;:&quot;Background&quot;} */" stroke-linejoin="bevel" stroke-dasharray=""/><path d="M 78.141 58.229 L 95.865 73.082 C 98.843 75.577 99.612 79.82 97.696 83.187 L 93.916 89.833 M 5.386 9.225 L 66.229 9.225 M 72.507 87.439 L 103.09 91.11 M 106.953 93.185 L 104.378 95.899 L 50.939 95.899" fill="none" stroke-width="1.5" stroke="var(--token-7d27c033-cb66-44c8-bf4e-e66d9f19511b, rgb(34, 23, 66)) /* {&quot;name&quot;:&quot;Background&quot;} */" stroke-miterlimit="10" stroke-dasharray=""/><path d="M 78.091 88.11 L 78.091 4.025 C 78.091 1.802 79.909 0 82.151 0 L 118.837 0 C 128.402 0 136.669 6.622 138.68 15.896 L 150.201 69.012 M 111.893 90.983 L 119.619 90.983" fill="none" stroke-width="1.5" stroke="var(--token-7d27c033-cb66-44c8-bf4e-e66d9f19511b, rgb(34, 23, 66)) /* {&quot;name&quot;:&quot;Background&quot;} */" stroke-miterlimit="10" stroke-dasharray=""/><path d="M 147.465 94.389 L 151.683 83.165 C 153.231 79.047 153.433 74.55 152.26 70.313 L 152.194 70.073 C 151.976 69.285 151.196 68.784 150.382 68.907 L 124.286 72.875 C 117.987 73.833 113.206 78.239 111.404 83.749 M 78.091 7.396 L 78.091 3.884 L 118.716 3.884 C 125.363 3.884 131.22 8.216 133.113 14.535 L 134.121 17.893 C 134.823 20.238 136.562 22.138 138.847 23.058 L 140.383 23.677 M 128.312 72.042 L 128.517 67.273 C 128.679 63.515 131.797 60.551 135.59 60.55 L 148.432 60.55 M 122.678 59.911 L 129.76 63.582" fill="none" stroke-width="1.5" stroke="var(--token-7d27c033-cb66-44c8-bf4e-e66d9f19511b, rgb(34, 23, 66)) /* {&quot;name&quot;:&quot;Background&quot;} */" stroke-miterlimit="10" stroke-dasharray=""/></g></svg>