<svg xmlns="http://www.w3.org/2000/svg" viewBox="0 0 136.903 127.244" overflow="visible" ><g><path d="M 11.913 115.161 C 11.913 108.589 17.27 103.262 23.878 103.262 C 30.486 103.262 35.843 108.589 35.843 115.161 C 35.843 121.732 30.486 127.06 23.878 127.06 C 17.27 127.06 11.913 121.732 11.913 115.161 Z" fill="none" stroke-width="1.5" stroke="var(--token-7d27c033-cb66-44c8-bf4e-e66d9f19511b, rgb(34, 23, 66)) /* {&quot;name&quot;:&quot;Background&quot;} */" stroke-miterlimit="10" stroke-dasharray=""/><path d="M 14.891 114.558 C 14.891 109.958 18.641 106.229 23.267 106.229 C 27.893 106.229 31.643 109.958 31.643 114.558 C 31.643 119.158 27.893 122.888 23.267 122.888 C 18.641 122.888 14.891 119.158 14.891 114.558 Z" fill="none" stroke-width="1.5" stroke="var(--token-7d27c033-cb66-44c8-bf4e-e66d9f19511b, rgb(34, 23, 66)) /* {&quot;name&quot;:&quot;Background&quot;} */" stroke-miterlimit="10" stroke-dasharray=""/><path d="M 20.848 114.543 C 20.848 113.229 21.919 112.164 23.241 112.164 C 24.562 112.164 25.633 113.229 25.633 114.543 C 25.633 115.857 24.562 116.923 23.241 116.923 C 21.919 116.923 20.848 115.857 20.848 114.543 Z" fill="none" stroke-width="1.5" stroke="var(--token-7d27c033-cb66-44c8-bf4e-e66d9f19511b, rgb(34, 23, 66)) /* {&quot;name&quot;:&quot;Background&quot;} */" stroke-miterlimit="10" stroke-dasharray=""/><path d="M 45.865 115.161 C 45.865 108.589 51.222 103.262 57.83 103.262 C 64.439 103.262 69.795 108.589 69.795 115.161 C 69.795 121.732 64.439 127.06 57.83 127.06 C 51.222 127.06 45.865 121.732 45.865 115.161 Z" fill="none" stroke-width="1.5" stroke="var(--token-7d27c033-cb66-44c8-bf4e-e66d9f19511b, rgb(34, 23, 66)) /* {&quot;name&quot;:&quot;Background&quot;} */" stroke-miterlimit="10" stroke-dasharray=""/><path d="M 49.439 114.558 C 49.439 109.958 53.189 106.229 57.815 106.229 C 62.441 106.229 66.19 109.958 66.19 114.558 C 66.19 119.158 62.441 122.888 57.815 122.888 C 53.189 122.888 49.439 119.158 49.439 114.558 Z" fill="none" stroke-width="1.5" stroke="var(--token-7d27c033-cb66-44c8-bf4e-e66d9f19511b, rgb(34, 23, 66)) /* {&quot;name&quot;:&quot;Background&quot;} */" stroke-miterlimit="10" stroke-dasharray=""/><path d="M 55.396 114.543 C 55.396 113.229 56.467 112.164 57.788 112.164 C 59.11 112.164 60.181 113.229 60.181 114.543 C 60.181 115.857 59.11 116.923 57.788 116.923 C 56.467 116.923 55.396 115.857 55.396 114.543 Z" fill="none" stroke-width="1.5" stroke="var(--token-7d27c033-cb66-44c8-bf4e-e66d9f19511b, rgb(34, 23, 66)) /* {&quot;name&quot;:&quot;Background&quot;} */" stroke-miterlimit="10" stroke-dasharray=""/><path d="M 79.817 115.161 C 79.817 108.589 85.174 103.262 91.783 103.262 C 98.391 103.262 103.748 108.589 103.748 115.161 C 103.748 121.732 98.391 127.06 91.783 127.06 C 85.174 127.06 79.817 121.732 79.817 115.161 Z" fill="none" stroke-width="1.5" stroke="var(--token-7d27c033-cb66-44c8-bf4e-e66d9f19511b, rgb(34, 23, 66)) /* {&quot;name&quot;:&quot;Background&quot;} */" stroke-miterlimit="10" stroke-dasharray=""/><path d="M 83.391 114.558 C 83.391 109.958 87.141 106.229 91.767 106.229 C 96.393 106.229 100.143 109.958 100.143 114.558 C 100.143 119.158 96.393 122.888 91.767 122.888 C 87.141 122.888 83.391 119.158 83.391 114.558 Z" fill="none" stroke-width="1.5" stroke="var(--token-7d27c033-cb66-44c8-bf4e-e66d9f19511b, rgb(34, 23, 66)) /* {&quot;name&quot;:&quot;Background&quot;} */" stroke-miterlimit="10" stroke-dasharray=""/><path d="M 89.348 114.543 C 89.348 113.229 90.419 112.164 91.741 112.164 C 93.062 112.164 94.133 113.229 94.133 114.543 C 94.133 115.857 93.062 116.923 91.741 116.923 C 90.419 116.923 89.348 115.857 89.348 114.543 Z" fill="none" stroke-width="1.5" stroke="var(--token-7d27c033-cb66-44c8-bf4e-e66d9f19511b, rgb(34, 23, 66)) /* {&quot;name&quot;:&quot;Background&quot;} */" stroke-miterlimit="10" stroke-dasharray=""/><path d="M 106.026 82.496 C 106.026 81.182 107.097 80.117 108.419 80.117 C 109.74 80.117 110.812 81.182 110.812 82.496 C 110.812 83.811 109.74 84.876 108.419 84.876 C 107.097 84.876 106.026 83.811 106.026 82.496 Z" fill="none" stroke-width="1.5" stroke="var(--token-7d27c033-cb66-44c8-bf4e-e66d9f19511b, rgb(34, 23, 66)) /* {&quot;name&quot;:&quot;Background&quot;} */" stroke-miterlimit="10" stroke-dasharray=""/><path d="M 106.026 73.001 C 106.026 71.687 107.097 70.621 108.419 70.621 C 109.74 70.621 110.812 71.687 110.812 73.001 C 110.812 74.315 109.74 75.381 108.419 75.381 C 107.097 75.381 106.026 74.315 106.026 73.001 Z" fill="none" stroke-width="1.5" stroke="var(--token-7d27c033-cb66-44c8-bf4e-e66d9f19511b, rgb(34, 23, 66)) /* {&quot;name&quot;:&quot;Background&quot;} */" stroke-miterlimit="10" stroke-dasharray=""/><path d="M 7.148 96.739 C 7.148 95.425 8.219 94.36 9.541 94.36 C 10.862 94.36 11.933 95.425 11.933 96.739 C 11.933 98.053 10.862 99.119 9.541 99.119 C 8.219 99.119 7.148 98.053 7.148 96.739 Z" fill="none" stroke-width="1.5" stroke="var(--token-7d27c033-cb66-44c8-bf4e-e66d9f19511b, rgb(34, 23, 66)) /* {&quot;name&quot;:&quot;Background&quot;} */" stroke-miterlimit="10" stroke-dasharray=""/><path d="M 36.337 114.87 L 45.453 114.87 M 70.239 114.87 L 79.355 114.87 M 103.878 114.587 L 112.971 114.587 L 112.971 96.172 M 11.246 114.587 L 3.574 114.587 L 3.574 97.022 C 3.574 95.519 4.174 94.078 5.243 93.015 C 6.312 91.952 7.761 91.355 9.272 91.356 L 50.581 91.356 M 64.255 91.356 L 101.86 91.356 M 102.164 89.674 L 115.231 89.674 L 115.231 95.869 L 102.164 95.869 Z M 114.111 89.089 L 114.111 33.559 C 114.111 30.43 111.56 27.893 108.413 27.893 L 103.285 27.893 L 103.285 89.089" fill="none" stroke-width="1.5" stroke="var(--token-7d27c033-cb66-44c8-bf4e-e66d9f19511b, rgb(34, 23, 66)) /* {&quot;name&quot;:&quot;Background&quot;} */" stroke-miterlimit="10" stroke-dasharray=""/><path d="M 7.148 91.14 L 7.148 23.145 L 103.441 23.145 L 103.441 89.156" fill="none" stroke-width="1.5" stroke="var(--token-7d27c033-cb66-44c8-bf4e-e66d9f19511b, rgb(34, 23, 66)) /* {&quot;name&quot;:&quot;Background&quot;} */" stroke-miterlimit="10" stroke-dasharray=""/><path d="M 50.886 89.581 L 63.953 89.581 L 63.953 95.776 L 50.886 95.776 Z M 119.81 87.863 L 136.903 127.244 M 120.949 90.413 C 118.765 103.162 118.1 123.561 135.764 124.41 M 120.664 111.094 L 112.687 111.094 M 57.419 89.279 L 57.419 23.55 M 9.558 22.984 L 9.558 22.417 C 9.558 20.852 10.833 19.584 12.407 19.584 L 15.255 19.584 C 16.829 19.584 18.104 20.853 18.104 22.418 L 18.104 22.984 M 23.517 22.984 L 23.517 22.417 C 23.518 20.853 24.793 19.584 26.366 19.584 L 29.215 19.584 C 30.788 19.584 32.064 20.853 32.064 22.418 L 32.064 22.984 M 91.891 22.984 L 91.891 22.417 C 91.891 20.853 93.166 19.584 94.739 19.584 L 97.588 19.584 C 99.162 19.584 100.437 20.853 100.437 22.418 L 100.437 22.984 M 6.994 36.583 L 6.423 36.583 C 4.85 36.583 3.574 37.851 3.574 39.416 C 3.574 40.981 4.85 42.249 6.423 42.249 L 6.994 42.249" fill="none" stroke-width="1.5" stroke="var(--token-7d27c033-cb66-44c8-bf4e-e66d9f19511b, rgb(34, 23, 66)) /* {&quot;name&quot;:&quot;Background&quot;} */" stroke-miterlimit="10" stroke-dasharray=""/><path d="M 3.419 39.381 L 1.71 39.381 C 0.765 39.381 0 38.62 0 37.681 L 0 0 M 57.548 71.395 L 103.13 71.395 M 64.955 62.896 L 95.723 62.896" fill="none" stroke-width="1.5" stroke="var(--token-7d27c033-cb66-44c8-bf4e-e66d9f19511b, rgb(34, 23, 66)) /* {&quot;name&quot;:&quot;Background&quot;} */" stroke-miterlimit="10" stroke-dasharray=""/></g></svg>