<svg xmlns="http://www.w3.org/2000/svg" viewBox="0 0 136 51" overflow="visible" ><g><g><path d="M 0 4.407 L 12.477 4.407" fill="none" stroke-width="1.5" stroke="var(--token-7d27c033-cb66-44c8-bf4e-e66d9f19511b, rgb(34, 23, 66)) /* {&quot;name&quot;:&quot;Background&quot;} */"/><path d="M 17.468 4.407 L 29.945 4.407" fill="none" stroke-width="1.5" stroke="var(--token-7d27c033-cb66-44c8-bf4e-e66d9f19511b, rgb(34, 23, 66)) /* {&quot;name&quot;:&quot;Background&quot;} */"/><path d="M 14.972 11.963 L 14.972 0" fill="none" stroke-width="1.5" stroke="var(--token-7d27c033-cb66-44c8-bf4e-e66d9f19511b, rgb(34, 23, 66)) /* {&quot;name&quot;:&quot;Background&quot;} */"/></g><g transform="translate(106.055 0)"><path d="M 0 4.407 L 12.477 4.407" fill="none" stroke-width="1.5" stroke="var(--token-7d27c033-cb66-44c8-bf4e-e66d9f19511b, rgb(34, 23, 66)) /* {&quot;name&quot;:&quot;Background&quot;} */"/><path d="M 17.468 4.407 L 29.945 4.407" fill="none" stroke-width="1.5" stroke="var(--token-7d27c033-cb66-44c8-bf4e-e66d9f19511b, rgb(34, 23, 66)) /* {&quot;name&quot;:&quot;Background&quot;} */"/><path d="M 14.972 11.963 L 14.972 0" fill="none" stroke-width="1.5" stroke="var(--token-7d27c033-cb66-44c8-bf4e-e66d9f19511b, rgb(34, 23, 66)) /* {&quot;name&quot;:&quot;Background&quot;} */"/></g><path d="M 18.716 11.963 L 18.716 23.331 C 18.716 25.398 17.04 27.074 14.972 27.074 L 14.972 27.074 C 12.905 27.074 11.229 25.398 11.229 23.331 L 11.229 11.963 Z" fill="none" stroke-width="1.5" stroke="var(--token-7d27c033-cb66-44c8-bf4e-e66d9f19511b, rgb(34, 23, 66)) /* {&quot;name&quot;:&quot;Background&quot;} */"/><path d="M 124.771 11.963 L 124.771 23.331 C 124.771 25.398 123.095 27.074 121.028 27.074 L 121.028 27.074 C 118.96 27.074 117.284 25.398 117.284 23.331 L 117.284 11.963 Z" fill="none" stroke-width="1.5" stroke="var(--token-7d27c033-cb66-44c8-bf4e-e66d9f19511b, rgb(34, 23, 66)) /* {&quot;name&quot;:&quot;Background&quot;} */"/><g transform="translate(18.716 9.444)"><path d="M 67.221 0 C 71.394 0 74.776 3.383 74.776 7.556 L 74.776 7.556 C 74.776 11.728 71.394 15.111 67.221 15.111 L 31.348 15.111 C 27.175 15.111 23.792 11.728 23.792 7.556 L 23.792 7.556 C 23.792 3.383 27.175 0 31.348 0 Z" fill="none" stroke-width="1.5" stroke="var(--token-7d27c033-cb66-44c8-bf4e-e66d9f19511b, rgb(34, 23, 66)) /* {&quot;name&quot;:&quot;Background&quot;} */"/><path d="M 32.526 3.778 C 34.594 3.778 36.27 5.454 36.27 7.521 L 36.27 7.59 C 36.27 9.657 34.594 11.333 32.526 11.333 L 32.526 11.333 C 30.459 11.333 28.783 9.657 28.783 7.59 L 28.783 7.521 C 28.783 5.454 30.459 3.778 32.526 3.778 Z" fill="none" stroke-width="1.5" stroke="var(--token-7d27c033-cb66-44c8-bf4e-e66d9f19511b, rgb(34, 23, 66)) /* {&quot;name&quot;:&quot;Background&quot;} */"/><path d="M 0 6.926 L 23.792 6.926" fill="none" stroke-width="1.5" stroke="var(--token-7d27c033-cb66-44c8-bf4e-e66d9f19511b, rgb(34, 23, 66)) /* {&quot;name&quot;:&quot;Background&quot;} */"/><path d="M 74.776 6.926 L 98.569 6.926" fill="none" stroke-width="1.5" stroke="var(--token-7d27c033-cb66-44c8-bf4e-e66d9f19511b, rgb(34, 23, 66)) /* {&quot;name&quot;:&quot;Background&quot;} */"/><path d="M 39.927 6.926 L 44.294 6.926" fill="none" stroke-width="1.5" stroke="var(--token-7d27c033-cb66-44c8-bf4e-e66d9f19511b, rgb(34, 23, 66)) /* {&quot;name&quot;:&quot;Background&quot;} */"/><path d="M 47.413 6.926 L 51.78 6.926" fill="none" stroke-width="1.5" stroke="var(--token-7d27c033-cb66-44c8-bf4e-e66d9f19511b, rgb(34, 23, 66)) /* {&quot;name&quot;:&quot;Background&quot;} */"/><path d="M 54.899 6.926 L 59.266 6.926" fill="none" stroke-width="1.5" stroke="var(--token-7d27c033-cb66-44c8-bf4e-e66d9f19511b, rgb(34, 23, 66)) /* {&quot;name&quot;:&quot;Background&quot;} */"/><path d="M 62.385 6.926 L 66.752 6.926" fill="none" stroke-width="1.5" stroke="var(--token-7d27c033-cb66-44c8-bf4e-e66d9f19511b, rgb(34, 23, 66)) /* {&quot;name&quot;:&quot;Background&quot;} */"/></g><path d="M 79.596 28.333 C 81.805 28.333 83.596 30.124 83.596 32.333 L 83.596 41.963 C 83.596 44.172 81.805 45.963 79.596 45.963 L 56.404 45.963 C 54.195 45.963 52.404 44.172 52.404 41.963 L 52.404 32.333 C 52.404 30.124 54.195 28.333 56.404 28.333 Z" fill="none" stroke-width="1.5" stroke="var(--token-7d27c033-cb66-44c8-bf4e-e66d9f19511b, rgb(34, 23, 66)) /* {&quot;name&quot;:&quot;Background&quot;} */"/><path d="M 31.193 51 L 31.193 39.889 C 31.193 37.68 32.984 35.889 35.193 35.889 L 52.404 35.889" fill="none" stroke-width="1.5" stroke="var(--token-7d27c033-cb66-44c8-bf4e-e66d9f19511b, rgb(34, 23, 66)) /* {&quot;name&quot;:&quot;Background&quot;} */"/><path d="M 104.807 51 L 104.807 39.889 C 104.807 37.68 103.016 35.889 100.807 35.889 L 83.596 35.889" fill="none" stroke-width="1.5" stroke="var(--token-7d27c033-cb66-44c8-bf4e-e66d9f19511b, rgb(34, 23, 66)) /* {&quot;name&quot;:&quot;Background&quot;} */"/><path d="M 57.394 28.333 L 57.394 24.556" fill="none" stroke-width="1.5" stroke="var(--token-7d27c033-cb66-44c8-bf4e-e66d9f19511b, rgb(34, 23, 66)) /* {&quot;name&quot;:&quot;Background&quot;} */"/><path d="M 77.358 28.333 L 77.358 24.556" fill="none" stroke-width="1.5" stroke="var(--token-7d27c033-cb66-44c8-bf4e-e66d9f19511b, rgb(34, 23, 66)) /* {&quot;name&quot;:&quot;Background&quot;} */"/></g></svg>